<svg width="72" height="72" viewBox="0 0 72 72" fill="none" xmlns="http://www.w3.org/2000/svg">
<path fill-rule="evenodd" clip-rule="evenodd" d="M11.7897 64.2744H12.7643V62.3269V59.7992C12.7643 56.415 13.8387 53.2684 15.7604 50.9044C17.5731 48.6744 20.1523 47.1344 23.3027 46.7502L28.5349 46.112L35.3573 52.1544C35.7287 52.4826 36.2817 52.4743 36.6437 52.1536L43.4652 46.1124L48.6974 46.7506C51.8475 47.1345 54.4267 48.6749 56.2393 50.9044C58.1617 53.2688 59.2358 56.4162 59.2358 59.7996V62.3269V64.2745H60.2103C60.7484 64.2745 61.1846 63.8386 61.1846 63.3009V59.8C61.1846 55.9746 59.9518 52.3936 57.746 49.6805C55.6235 47.0699 52.6089 45.2676 48.9326 44.8195L48.2209 44.7331C48.8943 42.3391 49.7217 40.3683 50.5183 38.4721C52.1458 34.596 53.6474 31.0198 53.6474 24.5304C53.6474 19.905 51.6125 15.7442 48.427 12.7194C45.174 9.63035 40.7142 7.7251 35.9994 7.7251C31.2847 7.7251 26.8253 9.63035 23.5719 12.7194C20.3864 15.7437 18.3514 19.9049 18.3514 24.5304C18.3514 31.0182 19.8527 34.5943 21.4799 38.4705L21.4806 38.4721C22.2768 40.3679 23.1045 42.3387 23.7779 44.7327L23.067 44.8195C19.3904 45.2676 16.3761 47.0699 14.2536 49.6805C12.0482 52.3931 10.8155 55.9737 10.8155 59.8V63.3009C10.8155 63.8386 11.2516 64.2744 11.7897 64.2744ZM41.4645 41.9313L42.0653 44.7605L35.9998 50.133L29.9345 44.7608L30.5337 41.9392C32.3562 43.0212 34.3019 43.6449 35.9997 43.6449C37.6912 43.6449 39.6389 43.0181 41.4645 41.9313ZM43.9367 44.2121L43.1974 40.7286L43.1964 40.7279C43.622 40.3875 44.0317 40.0214 44.4209 39.6325C46.5553 37.4999 48.0916 34.6713 48.0916 31.5605V25.8864C48.0916 25.3488 47.6554 24.9129 47.1174 24.9129C43.5963 24.9129 40.2627 23.7027 37.6709 21.8716C36.4018 20.9741 35.3139 19.9328 34.4767 18.8172C34.4554 18.7849 34.4321 18.7541 34.4076 18.7249C33.4993 17.4922 32.8965 16.172 32.6885 14.8596C32.6048 14.3306 32.107 13.9697 31.5777 14.0537C31.0483 14.1373 30.6872 14.6343 30.7712 15.1637C30.9765 16.4587 31.4845 17.7483 32.2388 18.9727C31.3818 19.3443 30.3203 19.6977 29.1938 19.9802C27.7482 20.3427 26.2115 20.5813 24.8816 20.5813C24.3436 20.5813 23.9074 21.0172 23.9074 21.5549V31.5609C23.9074 34.6771 25.4418 37.5098 27.5766 39.6431C27.9654 40.0316 28.3755 40.3973 28.8006 40.7381L28.0633 44.2094L25.7264 44.4942C24.9994 41.8222 24.124 39.737 23.2838 37.7356L23.2767 37.7185C21.7281 34.0302 20.2999 30.6282 20.2999 24.5291C20.2999 20.4623 22.0976 16.7961 24.9113 14.1248C27.8119 11.3698 31.7913 9.6705 35.9989 9.6705C40.2072 9.6705 44.1861 11.3698 47.0875 14.1248C49.9012 16.7964 51.6989 20.4625 51.6989 24.5291C51.6989 30.6287 50.2707 34.0306 48.7221 37.7185L48.7213 37.7205C47.8787 39.7266 47.0012 41.8159 46.272 44.4957L43.9367 44.2121ZM36.5527 23.4618C39.2093 25.3391 42.5654 26.6321 46.1433 26.8333L46.1438 31.5613C46.1438 34.1037 44.8467 36.4563 43.0447 38.257C40.9356 40.3651 38.1768 41.6979 35.9998 41.6979C33.8105 41.6979 31.0579 40.3697 28.954 38.2672C27.1512 36.4657 25.8565 34.1091 25.8565 31.5613V22.4946C27.0893 22.4109 28.4125 22.1814 29.6661 21.8666C31.0524 21.5186 32.37 21.0611 33.3995 20.5786C34.2802 21.6331 35.3463 22.6098 36.5527 23.4618Z" fill="white"/>
</svg>
