<svg width="72" height="72" viewBox="0 0 72 72" fill="none" xmlns="http://www.w3.org/2000/svg">
<path fill-rule="evenodd" clip-rule="evenodd" d="M38.2712 4.05107C38.5147 4.03821 38.7605 4.03535 39.0054 4.03916L39.0061 4.04112C40.7195 4.07587 42.447 4.55782 44.0138 5.31413C45.8044 6.17858 47.3913 7.40307 48.4949 8.85617C49.5986 10.3096 50.2391 12.06 49.8387 13.8174L48.1621 21.1667C49.1231 21.2496 49.8055 22.1068 49.8055 23.025V25.6879C49.8055 26.7023 48.9877 27.4214 47.9415 27.5548C47.6249 27.5857 45.9506 27.7472 45.2454 27.8086C44.8664 29.4451 44.1279 30.9339 43.0214 32.1279C42.418 32.779 41.7067 33.3324 40.9035 33.7782L41.205 36.2848C45.8001 36.6045 49.7588 37.0936 54.2424 39.081C57.4977 40.7903 59.3755 43.4336 59.385 46.6175L59.4393 63.8003C59.4369 64.3861 58.9633 64.8609 58.3784 64.8628L57.299 64.8693V62.7401L57.251 46.6266C57.2439 44.2224 56.0551 42.4412 53.2567 40.9713C51.5368 40.0678 49.2074 39.3549 46.3043 38.8667L39.6867 45.5388C39.2725 45.9603 38.5954 45.9636 38.1765 45.5469L35.9611 43.3342L33.6958 45.6031C33.2793 46.0222 32.6022 46.0222 32.1856 45.6031L25.3724 38.7415L25.3721 38.74C22.5984 39.1748 20.3569 39.8611 18.6921 40.7508C15.9056 42.2404 14.6916 44.1155 14.6916 46.6164V63.8407V65.9788L13.6302 65.982C13.042 65.9844 12.5626 65.5086 12.5607 64.9194V46.6161C12.5607 43.355 14.4229 40.6127 17.6887 38.8667C21.511 36.8745 26.3855 36.4911 30.7407 36.283L31.0754 33.8555C30.2133 33.3997 29.4535 32.8211 28.8139 32.1343C27.6992 30.9373 26.9593 29.44 26.5899 27.794L23.8956 27.5483C23.005 27.4673 22.1253 26.7063 22.1253 25.6856V23.0228C22.1253 22.1112 22.809 21.3391 23.6816 21.1872L22.0672 12.8482C21.9693 12.3418 22.0896 11.6951 22.4519 11.2812C22.8147 10.8678 23.246 10.7101 23.6483 10.5958C24.1823 10.4441 24.7539 10.3666 25.3776 10.2821C25.6935 10.2393 26.0227 10.1947 26.3673 10.1377C28.4162 9.79811 30.8689 9.13801 33.0201 6.57856C34.401 4.93597 36.3216 4.16156 38.2712 4.05107ZM43.0848 7.23355C41.5674 6.50104 39.8828 6.10098 38.3896 6.18528C36.8961 6.27014 35.6235 6.78878 34.6477 7.94991C32.0857 10.9975 28.9578 11.871 26.7153 12.2425C26.4875 12.2797 26.2324 12.3159 25.9637 12.354C25.3922 12.435 24.7594 12.5248 24.1979 12.6512L25.8769 21.3211L26.3263 21.363L26.3367 17.9834C26.341 17.2966 26.9824 16.7922 27.6496 16.9518C27.6496 16.9518 29.1233 17.3004 30.8969 17.4871C32.6706 17.6738 34.7514 17.58 35.5755 17.139C35.8931 16.9689 36.6606 16.0026 37.148 15.0762C37.6349 14.1499 37.9426 13.3198 37.9426 13.3198C38.0924 12.9188 38.4666 12.6478 38.8931 12.6278C39.3682 12.6044 39.8014 12.8992 39.954 13.3507C39.954 13.3507 40.2231 14.1642 40.6216 15.0529C41.0201 15.9417 41.7191 16.8985 41.7785 16.9347C42.138 16.9223 42.5517 16.808 42.8394 16.668C43.4119 16.3946 43.8941 16.0284 43.8941 16.0284C44.596 15.4988 45.5998 16.0003 45.5998 16.8804L45.5708 21.3707L45.9369 21.3383L47.7614 13.345C47.983 12.3716 47.6521 11.2652 46.8023 10.1465C45.9526 9.02767 44.6026 7.96605 43.0848 7.23355ZM38.9013 16.2431C38.3601 17.2631 37.7359 18.4049 36.582 19.0225C34.8541 19.9465 32.5973 19.8089 30.6695 19.606C29.6745 19.5015 29.2511 19.4111 28.7801 19.3107C28.6779 19.2888 28.5734 19.2665 28.4604 19.2435L28.4437 25.2903C28.4361 27.4539 29.1218 29.3385 30.37 30.6787C31.6182 32.0195 33.4388 32.8606 35.9287 32.8606C38.4186 32.8606 40.2222 32.0194 41.4647 30.6787C42.7072 29.338 43.3977 27.4469 43.4138 25.276L43.4619 18.683C43.444 18.6907 43.4261 18.6984 43.4082 18.7062C43.0867 18.8447 42.761 18.985 42.3696 19.0455C41.8461 19.126 41.2032 19.1055 40.6302 18.7392C39.7509 18.1779 39.3655 17.3 38.9944 16.4544C38.9634 16.3838 38.9323 16.3131 38.9013 16.2431ZM26.3195 23.5048L24.2558 23.3172L24.2558 25.4384L26.3257 25.628C26.3247 25.531 26.3235 25.4321 26.3224 25.3319C26.3155 24.74 26.3081 24.1003 26.3195 23.5048ZM47.6744 25.4384V23.3172L45.5564 23.5152C45.5552 23.6961 45.555 23.8773 45.5548 24.0584C45.5543 24.5908 45.5537 25.122 45.5274 25.6384L47.6744 25.4384ZM39.1404 36.986L38.8556 34.6042C37.9521 34.8533 36.9749 34.9941 35.9283 34.9941C34.9255 34.9941 33.9883 34.8617 33.1138 34.6336L32.7748 37.084L35.9221 40.276L39.1404 36.986ZM34.4576 41.822L30.9231 38.2505C29.9226 38.2819 28.9654 38.3371 28.0567 38.4172L32.9412 43.3408L34.4576 41.822ZM43.6592 38.5081C42.7705 38.4105 41.8395 38.3315 40.8651 38.2705L37.4223 41.7816L38.9245 43.2799L43.6592 38.5081ZM43.5408 48.9179L47.8014 48.9017V48.8998C49.2231 48.8942 49.2317 51.0316 47.8099 51.0354L43.5493 51.0516C42.0967 51.0897 42.088 48.8898 43.5408 48.9179Z" fill="white"/>
</svg>
