<svg width="72" height="72" viewBox="0 0 72 72" fill="none" xmlns="http://www.w3.org/2000/svg">
<path d="M35.3248 51.5907C35.1532 51.7704 35.0487 52.0082 35.0487 52.2661C35.0487 52.523 35.1532 52.7609 35.3248 52.9414C35.5053 53.113 35.753 53.2175 36.0001 53.2175C36.2473 53.2175 36.495 53.113 36.6755 52.9414C36.8471 52.7609 36.9515 52.523 36.9515 52.2661C36.9515 52.0189 36.8471 51.7704 36.6755 51.5907C36.314 51.2386 35.6765 51.2386 35.3248 51.5907H35.3248Z" fill="white"/>
<path d="M35.3248 55.3964C35.1532 55.5761 35.0487 55.8245 35.0487 56.0717C35.0487 56.3189 35.1532 56.5665 35.3248 56.7377C35.496 56.9187 35.7432 57.0231 36.0001 57.0231C36.2571 57.0231 36.5043 56.9186 36.6755 56.7471C36.8471 56.5665 36.9515 56.3189 36.9515 56.0717C36.9515 55.8245 36.8471 55.5761 36.6755 55.3964C36.3238 55.0443 35.6765 55.0443 35.3248 55.3964H35.3248Z" fill="white"/>
<path d="M34.0972 33.2378H37.9029C38.4278 33.2378 38.8543 32.8126 38.8543 32.2864C38.8543 31.7601 38.4278 31.335 37.9029 31.335H34.0972C33.5723 31.335 33.1458 31.7601 33.1458 32.2864C33.1458 32.8126 33.5723 33.2378 34.0972 33.2378Z" fill="white"/>
<path fill-rule="evenodd" clip-rule="evenodd" d="M55.4827 43.0954L43.8233 38.7228C43.7996 38.7134 43.7753 38.6977 43.751 38.6821C43.7337 38.6708 43.7162 38.6596 43.6989 38.6506C45.2721 36.5294 46.4651 33.5614 46.4651 29.4321V22.2736C47.3528 21.4887 49.3194 19.2844 49.3194 15.161C49.3194 13.0624 47.6124 11.3554 45.5137 11.3554C45.4805 11.3554 45.4482 11.3601 45.416 11.3647C45.3881 11.3687 45.3603 11.3727 45.3319 11.3737C43.5548 7.87218 39.9701 5.64697 35.9997 5.64697C32.0292 5.64697 28.4445 7.87218 26.6674 11.3737C26.6385 11.3727 26.6105 11.3687 26.5826 11.3646C26.5506 11.36 26.5187 11.3554 26.4856 11.3554C24.387 11.3554 22.68 13.0624 22.68 15.161C22.68 19.2844 24.6465 21.488 25.5342 22.2736V29.4321C25.5342 33.5602 26.7273 36.5294 28.3009 38.6501C28.2842 38.6589 28.2676 38.6697 28.251 38.6804C28.2258 38.6968 28.2006 38.7131 28.1752 38.7223L16.5169 43.095C15.1718 43.5996 14.1176 45.1197 14.1176 46.5575V65.5856C14.1176 66.1118 14.5441 66.537 15.0691 66.537H16.0206V64.6341V46.5574C16.0206 45.9058 16.5753 45.1064 17.1853 44.8771L25.6642 41.6976C25.8145 43.8927 26.5111 48.2623 29.5612 51.9235C29.7476 52.1478 30.0177 52.2658 30.2917 52.2658C30.4735 52.2658 30.657 52.2136 30.8188 52.1061L36.0001 48.6521L41.1807 52.1057C41.3425 52.2136 41.526 52.2658 41.7078 52.2658C41.9817 52.2658 42.2518 52.1478 42.4396 51.9243C45.4896 48.2631 46.1862 43.8935 46.3365 41.6984L54.8163 44.878C55.425 45.1065 55.9797 45.9058 55.9797 46.5573L55.9797 64.6341V66.537H56.9309C57.4559 66.537 57.8824 66.1118 57.8824 65.5856V46.5575C57.8824 45.1197 56.8278 43.5996 55.4827 43.0954ZM44.4638 40.9956C44.4086 42.5132 44.0174 46.5737 41.4999 50.0331L37.9543 47.669C39.841 46.6471 42.6591 44.5073 42.6591 40.849V40.2591C42.821 40.3551 42.9853 40.4417 43.1548 40.5054L44.4638 40.9956ZM35.9976 46.4899C34.9947 46.0809 31.7608 44.5464 31.2987 41.5694C33.6182 43.2135 35.7665 43.6756 35.8133 43.6854C35.8748 43.6965 35.9364 43.7033 35.9993 43.7033C36.0621 43.7033 36.1237 43.6965 36.1857 43.6841C36.2325 43.6748 38.3808 43.2123 40.7003 41.5681C40.2348 44.5328 36.9982 46.0787 35.9976 46.4899ZM47.4166 15.1609C47.4166 17.7935 46.472 19.424 45.7584 20.2803C44.6406 18.1655 43.611 15.8592 43.611 15.1609C43.611 14.1127 44.4643 13.2581 45.5138 13.2581C46.5633 13.2581 47.4166 14.1127 47.4166 15.1609ZM35.9997 7.54969C39.1394 7.54969 41.9698 9.26135 43.47 11.9614C42.4141 12.6388 41.7082 13.8158 41.7082 15.1609C41.7082 16.7852 43.8743 20.8257 44.5624 22.0679V22.6388C42.9156 28.6021 41.4474 28.608 40.8918 28.608C40.3409 28.608 39.6855 28.3901 38.9907 28.1577C38.1073 27.863 37.1053 27.5291 35.9997 27.5291C34.8941 27.5291 33.8922 27.863 33.0074 28.1582L32.9966 28.1618C32.3062 28.3915 31.6543 28.6084 31.1063 28.6084H31.0995C30.5393 28.6084 29.0762 28.5778 27.4358 22.6392V22.0684C28.1239 20.826 30.29 16.7851 30.29 15.1614C30.29 13.8162 29.5841 12.6393 28.5282 11.9618C30.0297 9.26135 32.8601 7.54969 35.9997 7.54969ZM24.5828 15.1609C24.5828 14.1127 25.4361 13.2581 26.4857 13.2581C27.5352 13.2581 28.3885 14.1127 28.3885 15.1609C28.3885 15.8584 27.3581 18.1655 26.241 20.2816C25.5296 19.4262 24.5828 17.7943 24.5828 15.1609ZM27.4371 27.9707C28.4492 29.7346 29.6206 30.511 31.1068 30.511C31.9647 30.511 32.801 30.2324 33.6089 29.9631L33.6167 29.9605C34.3983 29.7005 35.2051 29.4322 35.9997 29.4322C36.7952 29.4322 37.6029 29.7011 38.3845 29.9613L38.3896 29.9631C39.1975 30.2324 40.0338 30.511 40.8918 30.511C42.3779 30.511 43.5502 29.7346 44.5624 27.9707V29.4321C44.5624 39.1526 37.3203 41.4394 36.0026 41.7754C34.7437 41.4424 27.437 39.0903 27.437 29.4321L27.4371 27.9707ZM28.8434 40.5053C29.0137 40.4425 29.1781 40.3558 29.3399 40.259V40.8489C29.3399 44.5072 32.158 46.647 34.0448 47.6685L30.4991 50.0326C27.9817 46.5731 27.5905 42.5118 27.5353 40.9951L28.8434 40.5053Z" fill="white"/>
</svg>
