<svg width="72" height="72" viewBox="0 0 72 72" fill="none" xmlns="http://www.w3.org/2000/svg">
<path d="M55.0587 57.7843V63.3564C55.0587 63.8773 54.6373 64.2996 54.1176 64.2996C53.5978 64.2996 53.1764 63.8773 53.1764 63.3564V57.7843C53.1772 55.7025 52.3525 53.7057 50.8836 52.2336C49.4147 50.7611 47.4223 49.9345 45.3446 49.9358C43.3119 49.9443 41.4241 48.8819 40.3732 47.1378C40.2354 46.9243 40.1896 46.6636 40.2459 46.4156C40.3026 46.1672 40.4568 45.9528 40.674 45.8202C40.8908 45.688 41.1518 45.6488 41.398 45.7124C41.6438 45.7756 41.8539 45.936 41.9799 46.1571C42.6917 47.3365 43.9694 48.0553 45.3446 48.0494C47.9214 48.0482 50.3929 49.0731 52.2151 50.8994C54.037 52.7252 55.0599 55.2022 55.0587 57.7843ZM37.5154 47.6093C35.591 48.0282 33.5793 47.6303 31.9579 46.5107C32.2327 45.9022 32.3995 45.2508 32.4507 44.5851C40.5179 46.968 48.5882 40.8632 48.5882 32.4807C48.5882 24.481 48.5975 24.6082 48.566 24.2806C48.4412 22.9837 46.566 23.1571 46.692 24.4659C46.713 24.6793 46.7063 24.8667 46.7063 32.4832C46.7063 36.3164 44.6656 39.8584 41.353 41.7747C38.0404 43.6915 33.9598 43.6915 30.6472 41.7747C27.3346 39.8584 25.2943 36.3163 25.2943 32.4832C25.2943 30.3609 25.272 28.7103 25.2649 27.4795C25.251 25.9982 25.9207 24.5935 27.0795 23.6733C28.2383 22.7533 29.756 22.4215 31.1916 22.7739C35.5517 23.8207 37.3092 26.5468 42.8965 26.2848C43.4163 26.2604 43.8184 25.8187 43.794 25.2974C43.7696 24.7765 43.3285 24.374 42.8087 24.3984C37.7709 24.6342 36.3748 22.077 31.6319 20.9367C29.6332 20.4483 27.5215 20.9115 25.9093 22.1924C24.2968 23.473 23.3644 25.4272 23.3825 27.4888C23.3884 28.491 23.4014 29.59 23.4085 30.9421C23.0913 30.78 22.8245 30.5332 22.6379 30.2292C22.451 29.9252 22.3514 29.5757 22.3497 29.2186V24.2975C22.3027 22.1601 22.606 16.7883 26.4379 13.0866C30.7223 8.95035 37.4211 8.94906 42.6292 10.7719L41.8822 11.0784C40.9834 11.4486 41.1763 12.7847 42.1397 12.8882L43.7939 13.0664C46.9372 13.3876 49.7855 15.0635 51.5972 17.6574C50.409 19.1005 49.7607 20.9141 49.7645 22.7849V29.219C49.7645 29.7399 50.1859 30.1622 50.7057 30.1622C51.2254 30.1622 51.6468 29.7399 51.6468 29.219V22.7849C51.643 21.1566 52.2825 19.5927 53.4258 18.4355C53.7355 18.1087 53.7909 17.6156 53.5611 17.2283C51.6847 14.2125 48.8931 12.2763 45.7057 11.4923C46.0171 11.2296 46.1246 10.7963 45.9729 10.4181C45.8898 10.2063 45.7318 10.032 45.5293 9.92884C42.7928 8.54344 38.8906 7.57079 35.1764 7.71481C25.7731 8.07904 20.2737 15.1119 20.4705 24.3306V29.2201C20.4743 30.0829 20.7672 30.9196 21.302 31.5954C21.8373 32.2717 22.5835 32.7479 23.4209 32.9479C23.5083 35.2504 24.2226 37.4851 25.4856 39.4102C26.749 41.3354 28.5132 42.8778 30.5881 43.8703V44.1179C30.5877 45.1622 30.173 46.1636 29.4351 46.9008C28.6973 47.6385 27.6974 48.0516 26.6553 48.049C24.0789 48.0495 21.6087 49.0752 19.7869 50.901C17.9655 52.7264 16.9416 55.2023 16.9412 57.784V63.3562C16.9412 63.877 17.3626 64.2994 17.8823 64.2994C18.4021 64.2994 18.8235 63.877 18.8235 63.3562V57.784C18.8239 55.7026 19.6491 53.7063 21.1176 52.2347C22.5864 50.7626 24.5781 49.9356 26.6553 49.9356C28.2709 49.9406 29.8149 49.2677 30.9128 48.0794C32.9582 49.4837 35.4913 49.9802 37.914 49.4521C38.4107 49.3313 38.7203 48.8352 38.6119 48.335C38.5031 47.8344 38.0157 47.5122 37.514 47.6091L37.5154 47.6093ZM45.5296 59.4658H42.7061C42.1864 59.4658 41.7649 59.8881 41.7649 60.409C41.7649 60.9299 42.1864 61.3522 42.7061 61.3522H45.5296C46.0493 61.3522 46.4708 60.9299 46.4708 60.409C46.4708 59.8881 46.0493 59.4658 45.5296 59.4658Z" fill="white"/>
</svg>
