<svg width="72" height="72" viewBox="0 0 72 72" fill="none" xmlns="http://www.w3.org/2000/svg">
<path fill-rule="evenodd" clip-rule="evenodd" d="M52.1373 47.0128L52.1218 47.0428C57.9395 50.2294 61.6556 56.4164 61.6552 63.0743V64.9657H59.8402V63.0741C59.8402 57.0857 56.5046 51.5196 51.2791 48.6447C48.5057 53.694 45.405 56.2568 42.0519 56.2568C39.2337 56.2568 37.0713 54.4207 36.0009 53.2844C34.9306 54.4207 32.7673 56.2568 29.9496 56.2568C26.5964 56.2568 23.4954 53.694 20.7227 48.6447C15.4973 51.5197 12.1609 57.0863 12.1609 63.0741V63.1554V64.9657H10.3448V63.0738C10.3448 56.4161 14.0615 50.2274 19.8801 47.042L19.8647 47.012L20.7026 46.6082C24.1118 44.9649 26.7278 44.8655 27.717 44.828C27.8862 44.8216 28.0078 44.8169 28.0776 44.8067L28.246 45.0776L29.1818 41.4122C26.8902 39.1461 25.2611 35.8795 24.5728 32.1011C23.0226 30.5975 22.4241 28.299 22.6001 27.4655C22.6001 27.4653 22.6068 27.433 22.6195 27.3728C22.7237 26.8779 23.2252 24.4958 23.6194 22.4949C25.0788 15.1986 31.438 10.0842 39.9368 12.1924C40.8918 10.6847 43.6539 7.03467 48.0143 7.03467C49.722 7.03467 51.4753 7.6085 53.2273 8.73984C57.7155 11.6394 60.1847 16.9021 59.6723 22.477C59.3663 25.7653 58.5806 28.6786 57.3343 31.1405C57.2419 31.9114 57.1809 33.7817 57.8768 34.5888C58.2767 35.0539 58.953 35.0856 59.9184 34.7489C60.1888 34.6572 60.4822 34.6943 60.7179 34.8489C60.9545 35.0051 61.1041 35.2614 61.1229 35.5435C61.1283 35.6331 61.2499 37.7509 59.6496 39.4711C58.3719 40.8458 56.4131 41.5547 53.8269 41.5784H53.8181C53.8052 41.5784 53.7918 41.5784 53.7793 41.5776C53.4466 41.5634 50.5866 41.3113 46.2492 37.0708C45.3704 38.9189 44.2319 40.5033 42.8991 41.7293L43.7546 45.0788L43.9235 44.8075C43.9651 44.8136 44.0514 44.8179 44.1778 44.8241C45.0741 44.8685 47.9879 45.0127 51.2993 46.609L52.1373 47.0128ZM41.3384 42.9519C39.7506 43.9879 37.9973 44.5396 36.1981 44.5396L36.1976 44.5395C34.2689 44.5395 32.4011 43.9078 30.7201 42.7193L29.6147 47.049C33.8414 52.3642 38.3806 52.0855 42.3853 47.049L41.3384 42.9519ZM49.3532 47.7437C47.9477 47.1945 46.3562 46.8169 44.8838 46.6848C43.2011 49.2431 40.766 51.7234 37.8082 52.5214C42.4551 56.8123 46.5856 53.3777 49.6395 47.8662C49.5984 47.8492 49.5576 47.8312 49.5168 47.8132C49.4625 47.7893 49.4083 47.7653 49.3532 47.7437ZM52.2395 10.259C50.7872 9.32101 49.3654 8.84554 48.0142 8.84554C44.9131 8.84554 42.7338 11.34 41.7563 12.738C46.4773 14.3764 49.3532 18.7741 48.3238 23.6492C50.4979 24.511 50.4152 29.6996 47.8239 32.1132C47.61 33.302 47.1665 34.7793 47.0002 35.2581C50.9701 39.3327 53.604 39.7378 53.8523 39.7678C55.8843 39.7411 57.3805 39.2348 58.3008 38.2596C58.7593 37.7733 59.0109 37.2299 59.1484 36.7657C58.055 36.8569 57.1377 36.5103 56.4966 35.7652C55.0819 34.1191 55.5057 31.0704 55.5587 30.7283C55.5738 30.632 55.6039 30.5383 55.649 30.4516C56.8293 28.1684 57.5744 25.4293 57.8637 22.3106C58.3151 17.409 56.1598 12.7906 52.2395 10.259ZM46.6273 22.7919C47.5038 16.9549 41.6885 13.4999 36.0706 13.4999L36.0701 13.4998C30.5475 13.4998 26.4676 17.507 25.3998 22.8481C25.1378 24.1807 24.8276 25.6797 24.6182 26.6848C32.2975 26.2465 38.18 22.3835 40.6596 18.2188C40.6641 18.2115 40.6737 18.1955 40.6795 18.1861C40.6813 18.1832 40.6827 18.1809 40.6834 18.1796C40.8602 17.8713 41.2376 17.6604 41.6363 17.7375C44.4169 18.2454 45.5121 20.5081 46.2819 22.0987C46.4034 22.3497 46.5167 22.5839 46.6273 22.7919ZM41.8846 19.6648C38.617 24.4183 32.3439 28.1387 24.5293 28.5246C24.8407 29.7801 25.3973 30.3416 25.8072 30.7552C26.0632 31.0135 26.262 31.214 26.3083 31.4899C26.9323 35.2199 28.5272 38.4082 30.7987 40.4689C32.4158 41.9478 34.2818 42.7284 36.1985 42.7284C37.9982 42.7284 39.7606 42.0391 41.2961 40.7344C43.9534 38.5125 45.5244 34.9483 46.0878 31.4946C46.1104 31.3574 46.2782 31.1635 46.5069 30.8993C47.2549 30.0352 48.6537 28.4195 47.7495 25.5776C47.6584 25.8151 47.5581 26.0572 47.4473 26.3022C47.0816 27.1128 45.8884 26.9615 45.7267 26.0964C45.3267 23.9499 43.9805 20.4186 41.8846 19.6648ZM29.9488 54.4464C31.7342 54.4464 33.243 53.3971 34.1917 52.5211C31.2628 51.7327 28.7946 49.2349 27.1165 46.6846C26.2413 46.7633 25.0657 46.9696 23.9585 47.2967C23.671 47.3813 23.3859 47.4743 23.103 47.5751C22.9509 47.6297 22.7992 47.6847 22.6483 47.7435C22.5924 47.7652 22.5373 47.7895 22.4823 47.8139C22.4423 47.8316 22.4023 47.8493 22.362 47.866C24.7496 52.1757 27.3622 54.4464 29.9488 54.4464Z" fill="white"/>
</svg>
