<svg width="154" height="200" viewBox="0 0 154 200" fill="none" xmlns="http://www.w3.org/2000/svg">
<g opacity="0.4">
<path d="M153.33 133.634H121.089L85.1981 112.913C80.5759 110.244 72.502 110.579 67.1643 113.66L32.5688 133.634H0.343536V155.278H0.353697C0.342414 156.298 0.629583 157.298 1.17984 158.157C1.73009 159.015 2.51941 159.694 3.45058 160.109L68.4615 197.644C73.0839 200.312 81.1578 199.978 86.4953 196.896L148.915 160.858C150.043 160.352 151.032 159.58 151.797 158.608C152.562 157.637 153.079 156.494 153.306 155.278H153.33V133.634Z" fill="url(#paint0_linear_17_218)"/>
<path d="M2.38854 156.77H2.37838V135.126H34.6032L69.1989 115.152C74.5366 112.071 82.6106 111.736 87.2328 114.405L123.123 135.126H153.33V133.634H121.089L85.1981 112.913C80.5759 110.244 72.502 110.579 67.1645 113.66L32.5688 133.634H0.343536V155.278H0.353697C0.342414 156.298 0.629583 157.298 1.17984 158.157C1.73009 159.015 2.51941 159.694 3.45058 160.109L3.81641 160.321C3.33403 159.869 2.95628 159.317 2.70963 158.703C2.46298 158.09 2.3534 157.43 2.38854 156.77V156.77Z" fill="#D4088C"/>
<path d="M68.4617 176L3.45058 138.466C-1.17182 135.797 -0.59219 131.135 4.74529 128.054L67.1645 92.0159C72.5018 88.9345 80.5759 88.5997 85.1981 91.2683L150.209 128.803C154.832 131.471 154.252 136.133 148.915 139.214L86.4953 175.252C81.158 178.334 73.0839 178.668 68.4617 176Z" fill="url(#paint1_linear_17_218)"/>
<path d="M150.209 128.802L85.1981 91.268C82.3898 89.8392 79.2361 89.2299 76.0977 89.5097C78.3883 89.5906 80.6305 90.1919 82.6542 91.268L147.665 128.802C152.288 131.471 151.708 136.133 146.371 139.214L83.9514 175.252C81.2035 176.757 78.1482 177.614 75.0186 177.758C79.0038 178.019 82.9819 177.15 86.4956 175.252L148.915 139.214C154.252 136.133 154.832 131.471 150.209 128.802Z" fill="#6EE8FC"/>
<path d="M76.4279 167.061C74.3058 167.121 72.2036 166.638 70.3211 165.656L21.9211 137.711C21.1814 137.363 20.5492 136.822 20.0913 136.145C19.6335 135.468 19.3671 134.68 19.3201 133.864C19.4392 132.813 19.8306 131.811 20.4558 130.958C21.0809 130.105 21.9181 129.429 22.8844 128.999L69.3558 102.169C71.4804 100.988 73.8523 100.323 76.2808 100.226C78.7093 100.129 81.1267 100.604 83.3385 101.611L131.739 129.556C132.479 129.904 133.111 130.445 133.569 131.122C134.027 131.799 134.293 132.587 134.339 133.403C134.221 134.454 133.829 135.456 133.204 136.31C132.579 137.163 131.742 137.838 130.775 138.268L84.3038 165.099C81.888 166.412 79.1774 167.087 76.4279 167.061V167.061ZM77.2317 101.3C74.6764 101.278 72.1575 101.908 69.9131 103.13L23.4419 129.96C22.6483 130.299 21.9549 130.836 21.428 131.519C20.9012 132.203 20.5585 133.01 20.4328 133.864C20.4852 134.484 20.7025 135.078 21.0622 135.586C21.422 136.093 21.9109 136.495 22.4784 136.75L70.8784 164.695C72.9179 165.613 75.1441 166.041 77.3786 165.944C79.6132 165.848 81.7941 165.229 83.7465 164.137L130.218 137.307C131.012 136.968 131.705 136.431 132.233 135.748C132.76 135.065 133.103 134.257 133.229 133.403C133.176 132.783 132.958 132.189 132.598 131.682C132.238 131.174 131.749 130.772 131.181 130.518L82.7812 102.572C81.07 101.682 79.1597 101.245 77.2317 101.3V101.3Z" fill="#480689"/>
<path d="M71.3779 175.999L6.36671 138.465C1.74432 135.797 2.32415 131.135 7.66143 128.053L70.0807 92.0156C72.7858 90.5332 75.7904 89.6801 78.8708 89.5196C74.8102 89.2136 70.7471 90.08 67.1645 92.0156L4.74529 128.053C-0.59219 131.135 -1.17182 135.797 3.45058 138.465L68.4617 175.999C71.3148 177.447 74.5208 178.053 77.7055 177.748C75.4927 177.642 73.3312 177.044 71.3779 175.999Z" fill="#D4088C"/>
</g>
<g opacity="0.5">
<path d="M153.33 103.819H121.089L85.1981 83.098C80.5759 80.4294 72.502 80.7639 67.1643 83.8455L32.5688 103.819H0.343536V125.464H0.353697C0.342414 126.483 0.629583 127.484 1.17984 128.342C1.73009 129.201 2.51941 129.88 3.45058 130.295L68.4615 167.829C73.0839 170.498 81.1578 170.163 86.4953 167.082L148.915 131.044C150.043 130.538 151.032 129.766 151.797 128.794C152.562 127.822 153.079 126.679 153.306 125.464H153.33V103.819Z" fill="url(#paint2_linear_17_218)"/>
<path d="M2.38854 126.956H2.37838V105.311H34.6032L69.1989 85.3375C74.5366 82.2559 82.6106 81.9214 87.2328 84.59L123.123 105.311H153.33V103.819H121.089L85.1981 83.098C80.5759 80.4294 72.502 80.7639 67.1645 83.8455L32.5688 103.819H0.343536V125.464H0.353697C0.342414 126.483 0.629583 127.484 1.17984 128.342C1.73009 129.201 2.51941 129.88 3.45058 130.295L3.81641 130.506C3.33404 130.054 2.95627 129.502 2.70963 128.889C2.46298 128.276 2.35342 127.616 2.38854 126.956V126.956Z" fill="#D4088C"/>
<path d="M68.4617 146.185L3.45058 108.651C-1.17182 105.982 -0.59219 101.321 4.74529 98.2392L67.1645 62.2015C72.5018 59.1199 80.5759 58.7854 85.1981 61.454L150.209 98.9882C154.832 101.657 154.252 106.318 148.915 109.4L86.4953 145.438C81.158 148.519 73.0839 148.854 68.4617 146.185Z" fill="url(#paint3_linear_17_218)"/>
<path d="M150.209 98.9878L85.1981 61.4536C82.3899 60.0247 79.2361 59.4153 76.0977 59.6953C78.3884 59.776 80.6305 60.3773 82.6542 61.4536L147.665 98.9878C152.288 101.656 151.708 106.318 146.371 109.4L83.9514 145.437C81.2036 146.942 78.1482 147.799 75.0186 147.943C79.0038 148.204 82.9819 147.336 86.4956 145.437L148.915 109.4C154.252 106.318 154.832 101.656 150.209 98.9878Z" fill="#6EE8FC"/>
<path d="M76.4279 137.247C74.3058 137.307 72.2036 136.823 70.3211 135.842L21.9211 107.897C21.1812 107.549 20.5489 107.008 20.091 106.331C19.6332 105.654 19.3668 104.866 19.3201 104.049C19.439 102.998 19.8304 101.997 20.4556 101.143C21.0808 100.29 21.918 99.6149 22.8844 99.1847L69.3558 72.3544C71.481 71.1757 73.8529 70.5115 76.2811 70.4151C78.7094 70.3186 81.1265 70.7926 83.3385 71.799L131.739 99.742C132.479 100.089 133.111 100.63 133.569 101.307C134.027 101.985 134.293 102.773 134.339 103.589C134.221 104.641 133.83 105.643 133.204 106.496C132.579 107.35 131.742 108.026 130.775 108.456L84.3038 135.284C81.888 136.597 79.1774 137.273 76.4279 137.247V137.247ZM77.2276 71.4859C74.6736 71.465 72.1564 72.0947 69.9131 73.3156L23.4419 100.146C22.6482 100.485 21.9547 101.021 21.4278 101.705C20.901 102.388 20.5584 103.196 20.4328 104.049C20.4851 104.669 20.7023 105.264 21.0621 105.771C21.4218 106.279 21.9109 106.681 22.4784 106.935L70.8784 134.88C72.9179 135.799 75.1441 136.227 77.3786 136.13C79.6132 136.033 81.7941 135.414 83.7465 134.323L130.218 107.495C131.012 107.156 131.706 106.619 132.233 105.935C132.76 105.251 133.103 104.443 133.229 103.589C133.176 102.969 132.958 102.375 132.598 101.867C132.238 101.36 131.749 100.958 131.181 100.703L82.7812 72.7603C81.0688 71.8693 79.1571 71.4307 77.2276 71.4859V71.4859Z" fill="#480689"/>
<path d="M71.3779 146.185L6.36671 108.651C1.74432 105.982 2.32415 101.321 7.66143 98.239L70.0807 62.2013C72.7858 60.7189 75.7903 59.8657 78.8708 59.7051C74.8102 59.3992 70.7471 60.2656 67.1645 62.2013L4.74529 98.239C-0.59219 101.321 -1.17182 105.982 3.45058 108.651L68.4617 146.185C71.3148 147.633 74.5208 148.239 77.7055 147.933C75.4927 147.827 73.3312 147.23 71.3779 146.185V146.185Z" fill="#D4088C"/>
</g>
<g opacity="0.7">
<path d="M153.33 74.0045H121.089L85.1981 53.2832C80.5759 50.6143 72.502 50.9492 67.1643 54.0305L32.5688 74.0045H0.343536V95.6487H0.353697C0.342414 96.6683 0.629583 97.6689 1.17984 98.5274C1.73009 99.3858 2.51941 100.065 3.45058 100.48L68.4615 138.014C73.0839 140.683 81.1578 140.348 86.4953 137.267L148.915 101.229C150.043 100.723 151.032 99.951 151.797 98.9791C152.562 98.0072 153.079 96.8645 153.306 95.6487H153.33V74.0045Z" fill="url(#paint4_linear_17_218)"/>
<path d="M2.38854 97.1407H2.37838V75.4965H34.6032L69.1989 55.5227C74.5366 52.4411 82.6106 52.1063 87.2328 54.7752L123.123 75.4965H153.33V74.0045H121.089L85.1981 53.283C80.5759 50.6144 72.502 50.9492 67.1645 54.0306L32.5688 74.0045H0.343536V95.6487H0.353697C0.342414 96.6683 0.629583 97.669 1.17984 98.5274C1.73009 99.3859 2.51941 100.065 3.45058 100.48L3.81641 100.691C3.33403 100.239 2.95628 99.6874 2.70963 99.074C2.46298 98.4607 2.3534 97.8008 2.38854 97.1407Z" fill="#D4088C"/>
<path d="M68.4617 116.37L3.45058 78.8362C-1.17182 76.1675 -0.59219 71.5058 4.74529 68.4244L67.1645 32.3866C72.5018 29.305 80.5759 28.9704 85.1981 31.639L150.209 69.1733C154.832 71.8421 154.252 76.5036 148.915 79.5852L86.4953 115.623C81.158 118.704 73.0839 119.039 68.4617 116.37Z" fill="url(#paint5_linear_17_218)"/>
<path d="M150.209 69.1729L85.1981 31.6387C82.3899 30.2098 79.2361 29.6004 76.0977 29.8803C78.3883 29.9612 80.6305 30.5625 82.6542 31.6387L147.665 69.1729C152.288 71.8417 151.708 76.5032 146.371 79.5848L83.9514 115.622C81.2035 117.127 78.1482 117.984 75.0186 118.128C79.0038 118.39 82.9819 117.521 86.4956 115.622L148.915 79.5848C154.252 76.5032 154.832 71.8417 150.209 69.1729Z" fill="#6EE8FC"/>
<path d="M76.4321 107.431C74.3086 107.491 72.205 107.007 70.3211 106.025L21.9211 78.0821C21.1811 77.7342 20.5487 77.193 20.0909 76.5154C19.6331 75.8379 19.3667 75.0493 19.3201 74.2329C19.4392 73.1819 19.8307 72.1801 20.4558 71.3269C21.081 70.4737 21.9181 69.7984 22.8844 69.3681L69.3558 42.5378C71.4809 41.3586 73.8528 40.6942 76.2811 40.5977C78.7095 40.5012 81.1266 40.9755 83.3385 41.9823L131.739 69.9254C132.479 70.2727 133.111 70.8135 133.569 71.4907C134.027 72.168 134.293 72.9564 134.339 73.7725C134.221 74.824 133.83 75.8262 133.205 76.6799C132.579 77.5335 131.742 78.209 130.775 78.6394L84.3038 105.47C81.889 106.781 79.18 107.456 76.4321 107.431ZM77.2276 41.6695C74.6737 41.6486 72.1565 42.2782 69.9131 43.4989L23.4419 70.3295C22.6483 70.6683 21.9549 71.2051 21.428 71.8885C20.9012 72.5719 20.5585 73.3792 20.4328 74.2329C20.4848 74.8531 20.702 75.4479 21.0617 75.9558C21.4215 76.4636 21.9107 76.8659 22.4784 77.1207L70.8784 105.064C72.9181 105.981 75.144 106.409 77.3783 106.312C79.6126 106.216 81.7934 105.598 83.7465 104.508L130.218 77.6782C131.012 77.3393 131.706 76.8022 132.233 76.1183C132.76 75.4345 133.103 74.6268 133.229 73.7725C133.176 73.1526 132.958 72.5581 132.598 72.0507C132.238 71.5433 131.749 71.1415 131.181 70.8868L82.7812 42.9437C81.0687 42.0528 79.1571 41.6142 77.2276 41.6695V41.6695Z" fill="#480689"/>
<path d="M71.3779 116.37L6.36671 78.8357C1.74432 76.1671 2.32415 71.5054 7.66143 68.4238L70.0807 32.3862C72.7858 30.9038 75.7903 30.0506 78.8708 29.8902C74.8102 29.5842 70.7471 30.4506 67.1645 32.3862L4.74529 68.4238C-0.59219 71.5054 -1.17182 76.1671 3.45058 78.8357L68.4617 116.37C71.3149 117.817 74.5208 118.424 77.7055 118.118C75.4927 118.012 73.3312 117.415 71.3779 116.37Z" fill="#D4088C"/>
</g>
<path d="M153.33 44.4376H121.086L85.1921 23.7948C80.5695 21.1363 72.4948 21.4696 67.1567 24.5395L32.5581 44.4376H0.329956V66H0.340117C0.328834 67.0158 0.616028 68.0126 1.16633 68.8678C1.71664 69.723 2.50602 70.3993 3.43727 70.8132L68.4539 108.205C73.0768 110.864 81.1514 110.53 86.4894 107.46L148.914 71.5592C150.043 71.0551 151.032 70.286 151.797 69.3178C152.561 68.3496 153.079 67.2112 153.306 66H153.33V44.4376Z" fill="url(#paint6_linear_17_218)"/>
<path d="M2.37514 67.4646H2.36498V45.9127H34.5927L69.1914 26.0239C74.5296 22.9555 82.6043 22.6223 87.2269 25.2796L123.121 45.9127H153.33V44.4269H121.086L85.1921 23.7939C80.5695 21.1367 72.4948 21.4698 67.1568 24.5383L32.5581 44.4269H0.329956V65.9789H0.340117C0.32886 66.9941 0.616031 67.9905 1.16633 68.8453C1.71663 69.7001 2.50603 70.376 3.43727 70.7898L3.80314 71C3.32072 70.5499 2.94293 70.0003 2.69626 69.3896C2.44959 68.7789 2.34 68.1219 2.37514 67.4646V67.4646Z" fill="#D4088C"/>
<path d="M68.4618 86.2051L3.45058 48.8131C-1.17182 46.1545 -0.59219 41.5107 4.74529 38.4408L67.1645 2.5396C72.5018 -0.530325 80.576 -0.863843 85.1982 1.79489L150.209 39.1869C154.832 41.8455 154.252 46.4893 148.915 49.5592L86.4953 85.4604C81.1581 88.5303 73.084 88.8639 68.4618 86.2051Z" fill="url(#paint7_linear_17_218)"/>
<path d="M150.222 39.1985L85.469 1.81726C82.6719 0.394186 79.5307 -0.212688 76.4047 0.0660848C78.6863 0.146457 80.9196 0.74532 82.9352 1.81726L147.688 39.1985C152.292 41.8564 151.714 46.499 146.398 49.568L84.2272 85.459C81.4903 86.9578 78.4471 87.8114 75.33 87.9547C79.2993 88.215 83.2616 87.3499 86.7613 85.459L148.932 49.568C154.248 46.499 154.826 41.8564 150.222 39.1985Z" fill="#6EE8FC"/>
<path d="M76.4323 77.995C74.3092 78.0552 72.2059 77.5703 70.3224 76.5863L21.9306 48.5805C21.1909 48.2321 20.5589 47.69 20.1011 47.0113C19.6434 46.3327 19.3769 45.5428 19.33 44.7249C19.4488 43.6712 19.8401 42.6668 20.4651 41.8112C21.0902 40.9557 21.9273 40.2786 22.8936 39.847L69.3573 12.9584C71.4816 11.7759 73.8531 11.1094 76.2811 11.0124C78.7091 10.9154 81.126 11.3906 83.3375 12.3999L131.729 40.4076C132.469 40.7556 133.101 41.2974 133.559 41.9757C134.016 42.654 134.283 43.4437 134.33 44.2613C134.211 45.315 133.82 46.3194 133.195 47.1749C132.57 48.0304 131.733 48.7075 130.766 49.1391L84.3027 76.0297C81.8883 77.3442 79.1797 78.0206 76.4323 77.995ZM77.2318 12.0882C74.6769 12.0662 72.1585 12.6973 69.9145 13.9218L23.4511 40.8105C22.6572 41.1501 21.9636 41.6884 21.4368 42.3738C20.91 43.0593 20.5676 43.8688 20.4425 44.7249C20.4953 45.346 20.7128 45.9416 21.0724 46.4501C21.432 46.9586 21.9206 47.3616 22.4878 47.6172L70.8796 75.623C72.9189 76.5423 75.1444 76.9708 77.3784 76.8741C79.6123 76.7774 81.7928 76.1584 83.7454 75.0663L130.209 48.1757C131.003 47.8361 131.697 47.2977 132.224 46.6124C132.751 45.927 133.094 45.1175 133.22 44.2613C133.166 43.6405 132.949 43.0452 132.589 42.5371C132.23 42.0289 131.741 41.6264 131.174 41.3711L82.7803 13.3632C81.0695 12.471 79.1595 12.0321 77.2318 12.0882Z" fill="url(#paint8_linear_17_218)"/>
<path d="M71.7933 86.1818L6.40201 48.8029C1.75258 46.1453 2.33581 41.5031 7.70429 38.4342L70.4885 2.54567C73.2094 1.06942 76.2315 0.219744 79.33 0.0598416C75.2456 -0.244768 71.1588 0.61801 67.5552 2.54567L4.7711 38.4342C-0.597581 41.5031 -1.1806 46.1453 3.46882 48.8029L68.8601 86.1818C71.7298 87.6235 74.9545 88.2275 78.1579 87.9232C75.9321 87.8174 73.758 87.2226 71.7933 86.1818Z" fill="#25BFEC"/>
<path d="M88.2436 98.8908L143.416 67.1324C143.694 66.9341 143.922 66.6736 144.081 66.3718C144.239 66.0701 144.325 65.7355 144.33 65.395V62.7966C144.33 62.1269 143.921 61.8192 143.416 62.1091L88.2436 93.8675C87.9654 94.0659 87.7378 94.3264 87.5792 94.6282C87.4205 94.93 87.3351 95.2646 87.33 95.6051V98.2035C87.33 98.8731 87.7391 99.1809 88.2436 98.8908Z" fill="#6DE0F6"/>
<path d="M142.208 66.4457C142.486 66.2473 142.714 65.9867 142.873 65.685C143.031 65.3832 143.117 65.0486 143.122 64.708V62.2779L143.416 62.1091C143.921 61.8192 144.33 62.127 144.33 62.7966V65.3948C144.325 65.7353 144.239 66.07 144.081 66.3718C143.922 66.6736 143.694 66.9342 143.416 67.1326L88.2436 98.8908C87.7391 99.1809 87.33 98.8731 87.33 98.2035V98.0352L142.208 66.4457Z" fill="#267FE5"/>
<defs>
<linearGradient id="paint0_linear_17_218" x1="-14.1346" y1="155.278" x2="172.264" y2="155.278" gradientUnits="userSpaceOnUse">
<stop stop-color="#A31FA9"/>
<stop offset="0.06679" stop-color="#8B17A0"/>
<stop offset="0.1494" stop-color="#740F98"/>
<stop offset="0.23927" stop-color="#640A92"/>
<stop offset="0.34075" stop-color="#5B078F"/>
<stop offset="0.4785" stop-color="#58068E"/>
<stop offset="0.62636" stop-color="#4D22A3"/>
<stop offset="0.94358" stop-color="#3168DA"/>
<stop offset="1" stop-color="#2C75E4"/>
</linearGradient>
<linearGradient id="paint1_linear_17_218" x1="-0.917563" y1="133.636" x2="142.583" y2="169.144" gradientUnits="userSpaceOnUse">
<stop stop-color="#8D139B"/>
<stop offset="0.16507" stop-color="#851BA1"/>
<stop offset="0.42843" stop-color="#6E33B2"/>
<stop offset="0.75514" stop-color="#4958CD"/>
<stop offset="1" stop-color="#2979E4"/>
</linearGradient>
<linearGradient id="paint2_linear_17_218" x1="-14.1346" y1="125.464" x2="172.264" y2="125.464" gradientUnits="userSpaceOnUse">
<stop stop-color="#A31FA9"/>
<stop offset="0.06679" stop-color="#8B17A0"/>
<stop offset="0.1494" stop-color="#740F98"/>
<stop offset="0.23927" stop-color="#640A92"/>
<stop offset="0.34075" stop-color="#5B078F"/>
<stop offset="0.4785" stop-color="#58068E"/>
<stop offset="0.62636" stop-color="#4D22A3"/>
<stop offset="0.94358" stop-color="#3168DA"/>
<stop offset="1" stop-color="#2C75E4"/>
</linearGradient>
<linearGradient id="paint3_linear_17_218" x1="-0.917559" y1="103.822" x2="142.583" y2="139.33" gradientUnits="userSpaceOnUse">
<stop stop-color="#8D139B"/>
<stop offset="0.16507" stop-color="#851BA1"/>
<stop offset="0.42843" stop-color="#6E33B2"/>
<stop offset="0.75514" stop-color="#4958CD"/>
<stop offset="1" stop-color="#2979E4"/>
</linearGradient>
<linearGradient id="paint4_linear_17_218" x1="-14.1346" y1="95.6487" x2="172.264" y2="95.6487" gradientUnits="userSpaceOnUse">
<stop stop-color="#A31FA9"/>
<stop offset="0.06679" stop-color="#8B17A0"/>
<stop offset="0.1494" stop-color="#740F98"/>
<stop offset="0.23927" stop-color="#640A92"/>
<stop offset="0.34075" stop-color="#5B078F"/>
<stop offset="0.4785" stop-color="#58068E"/>
<stop offset="0.62636" stop-color="#4D22A3"/>
<stop offset="0.94358" stop-color="#3168DA"/>
<stop offset="1" stop-color="#2C75E4"/>
</linearGradient>
<linearGradient id="paint5_linear_17_218" x1="-0.917545" y1="74.0066" x2="142.583" y2="109.515" gradientUnits="userSpaceOnUse">
<stop stop-color="#8D139B"/>
<stop offset="0.16507" stop-color="#851BA1"/>
<stop offset="0.42843" stop-color="#6E33B2"/>
<stop offset="0.75514" stop-color="#4958CD"/>
<stop offset="1" stop-color="#2979E4"/>
</linearGradient>
<linearGradient id="paint6_linear_17_218" x1="-14.1495" y1="66" x2="172.266" y2="66" gradientUnits="userSpaceOnUse">
<stop stop-color="#A31FA9"/>
<stop offset="0.06679" stop-color="#8B17A0"/>
<stop offset="0.1494" stop-color="#740F98"/>
<stop offset="0.23927" stop-color="#640A92"/>
<stop offset="0.34075" stop-color="#5B078F"/>
<stop offset="0.4785" stop-color="#58068E"/>
<stop offset="0.62636" stop-color="#4D22A3"/>
<stop offset="0.94358" stop-color="#3168DA"/>
<stop offset="1" stop-color="#2C75E4"/>
</linearGradient>
<linearGradient id="paint7_linear_17_218" x1="-0.91756" y1="44.0019" x2="142.52" y2="79.6298" gradientUnits="userSpaceOnUse">
<stop stop-color="#267FE5"/>
<stop offset="0.16992" stop-color="#2C87E7"/>
<stop offset="0.44096" stop-color="#3D9FEB"/>
<stop offset="0.77726" stop-color="#59C4F2"/>
<stop offset="1" stop-color="#6EE1F8"/>
</linearGradient>
<linearGradient id="paint8_linear_17_218" x1="19.33" y1="44.4927" x2="134.33" y2="44.4927" gradientUnits="userSpaceOnUse">
<stop stop-color="#6DE0F6"/>
<stop offset="0.15946" stop-color="#68D8F5"/>
<stop offset="0.41382" stop-color="#5AC0F1"/>
<stop offset="0.72938" stop-color="#439BEA"/>
<stop offset="1" stop-color="#2C75E4"/>
</linearGradient>
</defs>
</svg>
