<svg width="1443" height="808" viewBox="0 0 1443 808" fill="none" xmlns="http://www.w3.org/2000/svg">
<path fill-rule="evenodd" clip-rule="evenodd" d="M705 0.333496C703.527 0.333496 702.333 1.5274 702.333 3.00016C702.333 4.30202 703.266 5.38599 704.5 5.62003V79.5002H517.62C517.386 78.2664 516.302 77.3335 515 77.3335C513.698 77.3335 512.614 78.2664 512.38 79.5002H5.61991C5.38587 78.2664 4.3019 77.3335 3.00004 77.3335C1.52728 77.3335 0.333375 78.5274 0.333375 80.0002C0.333375 81.302 1.26628 82.386 2.50004 82.62L2.50004 105.38C1.26628 105.614 0.333374 106.698 0.333374 108C0.333374 109.473 1.52728 110.667 3.00004 110.667C4.4728 110.667 5.66671 109.473 5.66671 108C5.66671 106.698 4.7338 105.614 3.50004 105.38L3.50004 82.62C4.57185 82.4167 5.4166 81.572 5.61991 80.5002H512.38C512.583 81.572 513.428 82.4167 514.5 82.62V105.38C513.266 105.614 512.333 106.698 512.333 108C512.333 109.473 513.527 110.667 515 110.667C516.473 110.667 517.667 109.473 517.667 108C517.667 106.698 516.734 105.614 515.5 105.38V82.62C516.572 82.4167 517.417 81.572 517.62 80.5002H705.5L705.5 80.0002V79.5002V5.62003C706.734 5.38599 707.667 4.30202 707.667 3.00016C707.667 1.5274 706.473 0.333496 705 0.333496ZM722.5 0.333496C721.027 0.333496 719.833 1.5274 719.833 3.00016C719.833 4.30202 720.766 5.38599 722 5.62003V429L517.473 429C517.077 428.023 516.119 427.333 515 427.333C513.881 427.333 512.923 428.023 512.527 429L5.47287 429C5.07727 428.023 4.11917 427.333 3.00004 427.333C1.52728 427.333 0.333375 428.527 0.333375 430C0.333375 431.302 1.26628 432.386 2.50004 432.62L2.50004 455.38C1.26628 455.614 0.333374 456.698 0.333374 458C0.333374 459.473 1.52728 460.667 3.00004 460.667C4.4728 460.667 5.66671 459.473 5.66671 458C5.66671 456.698 4.7338 455.614 3.50004 455.38L3.50004 432.62C4.73381 432.386 5.66671 431.302 5.66671 430H512.333C512.333 431.302 513.266 432.386 514.5 432.62V455.38C513.266 455.614 512.333 456.698 512.333 458C512.333 459.473 513.527 460.667 515 460.667C516.473 460.667 517.667 459.473 517.667 458C517.667 456.698 516.734 455.614 515.5 455.38V432.62C516.734 432.386 517.667 431.302 517.667 430H722H723V5.62003C724.234 5.38599 725.167 4.30202 725.167 3.00016C725.167 1.5274 723.973 0.333496 722.5 0.333496ZM278.473 776C278.077 775.023 277.119 774.333 276 774.333C274.527 774.333 273.333 775.527 273.333 777C273.333 778.302 274.266 779.386 275.5 779.62V802.38C274.266 802.614 273.333 803.698 273.333 805C273.333 806.473 274.527 807.667 276 807.667C277.473 807.667 278.667 806.473 278.667 805C278.667 803.698 277.734 802.614 276.5 802.38V779.62C277.734 779.386 278.667 778.302 278.667 777L738.5 777V802.38C737.266 802.614 736.333 803.698 736.333 805C736.333 806.473 737.527 807.667 739 807.667C740.473 807.667 741.667 806.473 741.667 805C741.667 803.698 740.734 802.614 739.5 802.38V777L1168.33 777C1168.33 778.302 1169.27 779.386 1170.5 779.62V802.38C1169.27 802.614 1168.33 803.698 1168.33 805C1168.33 806.473 1169.53 807.667 1171 807.667C1172.47 807.667 1173.67 806.473 1173.67 805C1173.67 803.698 1172.73 802.614 1171.5 802.38V779.62C1172.73 779.386 1173.67 778.302 1173.67 777C1173.67 775.527 1172.47 774.333 1171 774.333C1169.88 774.333 1168.92 775.023 1168.53 776H739.5V430L981.333 430C981.333 431.302 982.266 432.386 983.5 432.62V455.38C982.266 455.614 981.333 456.698 981.333 458C981.333 459.473 982.527 460.667 984 460.667C985.473 460.667 986.667 459.473 986.667 458C986.667 456.698 985.734 455.614 984.5 455.38V432.62C985.734 432.386 986.667 431.302 986.667 430H1437.33C1437.33 431.302 1438.27 432.386 1439.5 432.62V455.38C1438.27 455.614 1437.33 456.698 1437.33 458C1437.33 459.473 1438.53 460.667 1440 460.667C1441.47 460.667 1442.67 459.473 1442.67 458C1442.67 456.698 1441.73 455.614 1440.5 455.38V432.62C1441.73 432.386 1442.67 431.302 1442.67 430C1442.67 428.527 1441.47 427.333 1440 427.333C1438.88 427.333 1437.92 428.023 1437.53 429H986.473C986.077 428.023 985.119 427.333 984 427.333C982.881 427.333 981.923 428.023 981.527 429H739.5L739.5 80.5H981.38C981.583 81.5719 982.428 82.4167 983.5 82.62V105.38C982.266 105.614 981.333 106.698 981.333 108C981.333 109.473 982.527 110.667 984 110.667C985.473 110.667 986.667 109.473 986.667 108C986.667 106.698 985.734 105.614 984.5 105.38V82.62C985.572 82.4167 986.417 81.5719 986.62 80.5H1437.38C1437.58 81.5719 1438.43 82.4167 1439.5 82.62V105.38C1438.27 105.614 1437.33 106.698 1437.33 108C1437.33 109.473 1438.53 110.667 1440 110.667C1441.47 110.667 1442.67 109.473 1442.67 108C1442.67 106.698 1441.73 105.614 1440.5 105.38V82.62C1441.73 82.386 1442.67 81.302 1442.67 80.0002C1442.67 78.5274 1441.47 77.3335 1440 77.3335C1438.7 77.3335 1437.61 78.2663 1437.38 79.5H986.62C986.386 78.2663 985.302 77.3335 984 77.3335C982.698 77.3335 981.614 78.2663 981.38 79.5H739.5V5.62003C740.734 5.38599 741.667 4.30202 741.667 3.00016C741.667 1.5274 740.473 0.333496 739 0.333496C737.527 0.333496 736.333 1.5274 736.333 3.00016C736.333 4.30202 737.266 5.38599 738.5 5.62003V79.5L738.5 80.5L738.5 429L738.5 430V776L278.473 776Z" fill="url(#paint0_linear_17_646)"/>
<defs>
<linearGradient id="paint0_linear_17_646" x1="-112.5" y1="388" x2="1514.5" y2="558" gradientUnits="userSpaceOnUse">
<stop offset="0.203125" stop-color="#2C75E4"/>
<stop offset="1" stop-color="#B06AB3"/>
</linearGradient>
</defs>
</svg>
