<svg width="502" height="278" viewBox="0 0 502 278" fill="none" xmlns="http://www.w3.org/2000/svg">
<path d="M426.223 126.398C416.08 126.386 406.039 128.417 396.698 132.37C396.909 130.386 397.016 128.393 397.019 126.398C397.034 116.424 394.403 106.623 389.395 97.9978C384.387 89.3722 377.181 82.23 368.512 77.2999C359.844 72.3699 350.023 69.8285 340.052 69.9351C330.081 70.0417 320.316 72.7925 311.755 77.9068C309.413 56.0307 298.89 35.849 282.296 21.4087C265.702 6.96844 244.265 -0.66285 222.282 0.0452061C200.299 0.753262 179.396 9.74832 163.766 25.2266C148.135 40.7048 138.932 61.5218 138.001 83.5033C124.21 78.0206 109.378 75.6523 94.566 76.5677C79.7537 77.4831 65.3262 81.6596 52.3145 88.7988C39.3027 95.938 28.0277 105.864 19.2949 117.867C10.5622 129.87 4.58739 143.654 1.79721 158.234C-0.99296 172.815 -0.529592 187.832 3.15426 202.212C6.83811 216.593 13.6515 229.982 23.1077 241.424C32.5638 252.865 44.4294 262.076 57.8566 268.399C71.2838 274.722 85.9412 278 100.782 278H426.223C446.32 278 465.594 270.014 479.805 255.798C494.016 241.583 502 222.303 502 202.199C502 182.096 494.016 162.815 479.805 148.6C465.594 134.385 446.32 126.398 426.223 126.398Z" fill="url(#paint0_linear_16_668)"/>
<defs>
<linearGradient id="paint0_linear_16_668" x1="44.0557" y1="112.009" x2="499.475" y2="112.63" gradientUnits="userSpaceOnUse">
<stop stop-color="#4568DC"/>
<stop offset="1" stop-color="#B06AB3"/>
</linearGradient>
</defs>
</svg>
