<svg width="72" height="72" viewBox="0 0 72 72" fill="none" xmlns="http://www.w3.org/2000/svg">
<path fill-rule="evenodd" clip-rule="evenodd" d="M34.5749 55.3009L34.2962 54.8217L34.2964 54.8233L34.2945 54.8204C34.2118 54.6946 32.676 52.3571 27.462 52.3852H12.0772V15.5671H13.0282C13.0404 15.5671 13.2133 15.5654 13.514 15.5624L13.5141 15.5624C15.5147 15.5426 23.1686 15.4669 26.7546 15.4669C32.0017 15.4669 34.3181 17.0611 35.3334 18.3263C36.8071 16.9679 38.5878 15.9865 40.5237 15.4669L53.6424 11.7207V34.1754H51.7265L51.726 14.265L41.1239 17.3036C39.2139 17.7754 37.4915 18.8146 36.184 20.2847V37.4861C37.1194 37.7713 37.862 38.4864 38.1821 39.4105C38.5023 40.3345 38.3617 41.3558 37.8036 42.1587C37.2455 42.9621 36.3369 43.4498 35.3595 43.4717C34.3816 43.4937 33.4525 43.0469 32.8591 42.2694C32.2657 41.4924 32.0792 40.4781 32.3579 39.5411C32.6368 38.6036 33.3463 37.8555 34.2679 37.5289L34.2674 20.1411C34.1248 19.7412 32.9952 17.3674 26.8325 17.3674H21.8283V20.8208L25.3385 24.331C25.7584 24.1126 26.2242 23.9974 26.697 23.9949C27.5033 24.0044 28.2733 24.3325 28.8383 24.9075C29.4033 25.4825 29.7184 26.2575 29.714 27.0639C29.7095 27.8702 29.3863 28.6422 28.8148 29.2107C28.2433 29.7797 27.4698 30.0993 26.6634 30.0998C25.8576 30.1008 25.0837 29.7822 24.5112 29.2142C23.9387 28.6466 23.6145 27.8751 23.6085 27.0688C23.612 26.5961 23.7272 26.1309 23.9445 25.7106L19.8769 21.6355V17.3818L14.0073 17.4317V24.2452H16.052L19.1403 27.3335C20.0216 26.8847 21.0638 26.8852 21.9444 27.334C22.8251 27.7832 23.4375 28.6265 23.5921 29.6029C23.7466 30.5794 23.4245 31.5703 22.7253 32.2694C22.0261 32.9686 21.0348 33.2908 20.0588 33.1362C19.0825 32.9816 18.2392 32.3692 17.7899 31.4885C17.3411 30.6079 17.3406 29.5658 17.7892 28.6847L15.2586 26.161L14.0074 26.1605V37.5994H18.5828C18.8891 36.6733 19.6191 35.9492 20.5477 35.651C21.4762 35.3528 22.4915 35.5164 23.2799 36.0908C24.0679 36.6653 24.5341 37.582 24.5341 38.5573C24.5341 39.5327 24.0679 40.4493 23.2799 41.0243C22.4916 41.5988 21.4762 41.7623 20.5477 41.4636C19.6191 41.1654 18.889 40.4413 18.5828 39.5152H14.0144V50.4464H16.1593V47.8084L19.2331 44.7345H20.5417C20.848 43.8079 21.578 43.0838 22.5066 42.7856C23.4351 42.4874 24.4504 42.6509 25.2388 43.2254C26.0267 43.8004 26.493 44.7169 26.493 45.6924C26.493 46.6672 26.0267 47.5843 25.2388 48.1588C24.4505 48.7333 23.4351 48.8969 22.5066 48.5987C21.578 48.3004 20.8479 47.5763 20.5417 46.6503V46.6498H20.0271L18.0752 48.6016V50.4462H27.4619C28.5704 50.4278 29.6781 50.5285 30.7647 50.7464V46.5141L26.8401 42.582V37.1343C25.914 36.8286 25.1899 36.098 24.8917 35.1695C24.5935 34.241 24.7565 33.2256 25.3315 32.4377C25.906 31.6493 26.8226 31.1835 27.798 31.1835C28.7733 31.1835 29.6899 31.6493 30.2644 32.4377C30.8394 33.2255 31.0025 34.2409 30.7043 35.1695C30.406 36.0981 29.6819 36.8286 28.7559 37.1343V41.803L32.6805 45.7351V51.3468C33.6419 51.7259 34.5226 52.2839 35.2756 52.9915L35.2761 52.991C35.891 51.9188 37.3062 50.3175 40.2804 49.3236L40.8594 51.1399C37.2204 52.3627 36.5696 54.493 36.5696 54.5858L36.3767 55.3009H34.5749ZM28.8131 33.8195C28.6375 33.3936 28.2226 33.1164 27.7618 33.1164C27.137 33.1163 26.6293 33.6205 26.6253 34.2459C26.6223 34.7061 26.8976 35.1226 27.322 35.3011C27.7464 35.4791 28.2366 35.3839 28.5632 35.0592C28.8899 34.7346 28.9881 34.2454 28.8131 33.8195ZM24.4725 45.2564C24.2965 44.8315 23.8821 44.5547 23.4223 44.5547C23.1211 44.5547 22.8319 44.6744 22.6189 44.8879C22.4055 45.1008 22.2858 45.39 22.2858 45.6917C22.2858 46.1515 22.5626 46.5659 22.9875 46.7415C23.4123 46.9175 23.901 46.8203 24.2262 46.4951C24.5513 46.17 24.6486 45.6813 24.4725 45.2564ZM21.4566 37.4056V37.4061V37.4201C20.8357 37.4235 20.3315 37.9217 20.3196 38.5426C20.3196 39.0024 20.5968 39.4168 21.0217 39.5923C21.4461 39.7684 21.9353 39.6711 22.2604 39.346C22.5856 39.0208 22.6828 38.5321 22.5068 38.1073C22.3308 37.6824 21.9163 37.4056 21.4566 37.4056ZM21.5628 29.6286C21.3872 29.2037 20.9728 28.927 20.513 28.927L20.5131 28.9269C20.2113 28.9269 19.9221 29.0466 19.7092 29.2596C19.4957 29.473 19.376 29.7622 19.376 30.0634C19.376 30.5232 19.6528 30.9376 20.0777 31.1137C20.5026 31.2897 20.9913 31.1925 21.3164 30.8673C21.6416 30.5422 21.7388 30.0535 21.5628 29.6286ZM27.747 26.633C27.571 26.2081 27.1566 25.9313 26.6968 25.9313L26.6968 25.9313C26.3956 25.9313 26.1064 26.051 25.8929 26.2639C25.68 26.4774 25.5603 26.7666 25.5603 27.0678C25.5603 27.5276 25.8371 27.942 26.262 28.1181C26.6868 28.2941 27.1755 28.1969 27.5007 27.8717C27.8258 27.5466 27.9231 27.0579 27.747 26.633ZM34.2254 40.8225C34.4015 41.2469 34.8159 41.5241 35.2757 41.5241H35.2258C35.536 41.5376 35.8382 41.4239 36.0621 41.2095C36.2865 40.9945 36.4127 40.6978 36.4127 40.3871C36.4127 39.9273 36.1354 39.5129 35.711 39.3369C35.2861 39.1614 34.7974 39.2586 34.4723 39.5833C34.1471 39.9084 34.0499 40.3976 34.2254 40.8225ZM38.3712 57.338L38.271 57.6451C38.0834 58.2047 37.5598 58.5817 36.9699 58.5817H33.3454C32.7555 58.5817 32.2314 58.2047 32.0444 57.6451L31.9442 57.338C31.7273 56.6862 31.3109 56.1187 30.7543 55.7157C30.1973 55.3133 29.5286 55.0954 28.8414 55.0929H9.53871C9.42401 55.0929 9.33126 55.0001 9.33126 54.8859V22.0918H10.7041V20.1758H7.41528V54.8849C7.41528 55.4534 7.64118 55.999 8.04363 56.4014C8.44556 56.8034 8.99113 57.0293 9.56014 57.0293H28.8412C29.4301 57.0283 29.9522 57.4063 30.1353 57.9658L30.2425 58.273V58.2735C30.4594 58.9283 30.8773 59.4978 31.4373 59.9012C31.9969 60.3041 32.6696 60.5201 33.3593 60.5181H36.9843C37.6735 60.5191 38.3457 60.3026 38.9053 59.8997C39.4648 59.4967 39.8832 58.9277 40.1011 58.2735L40.2014 57.9663V57.9658C40.3889 57.4068 40.9125 57.0298 41.5024 57.0293H56.8296V55.0919H41.4871C40.7979 55.0914 40.1257 55.3078 39.5661 55.7108C39.0066 56.1137 38.5882 56.6827 38.3703 57.3369L38.3712 57.338ZM60.9625 51.1119H62.8785V20.1777H59.5966V22.0937H60.9625V51.1119ZM56.3079 36.871H58.2239V15.5244H54.9425V17.4404H56.3079V36.871ZM58.4092 41.9131C59.3866 44.6239 58.9034 47.6469 57.1301 49.9185L64.5153 57.2604L63.1568 58.6188L55.7858 51.2837C53.5427 53.0935 50.5276 53.6246 47.8013 52.69C45.0749 51.7555 43.0199 49.4866 42.3586 46.6814C41.6968 43.8764 42.5222 40.9287 44.5438 38.8746C46.5655 36.8205 49.5002 35.9488 52.3154 36.5656C55.1308 37.1825 57.4318 39.2018 58.4092 41.9131ZM50.5096 51.227L50.5101 51.2265L50.5096 51.2273C52.2346 51.2252 53.8886 50.5406 55.1104 49.3228C56.3322 48.105 57.0224 46.4534 57.0298 44.7284C57.0353 42.9979 56.3532 41.3363 55.1329 40.1096C53.9126 38.8822 52.2545 38.1906 50.524 38.1871C48.7935 38.183 47.1324 38.8672 45.9072 40.089C44.6813 41.3107 43.9917 42.9693 43.9897 44.6998C43.9878 46.4302 44.6739 48.0903 45.8967 49.3146C47.12 50.5388 48.7791 51.227 50.5096 51.227Z" fill="url(#paint0_linear_16_465)"/>
<defs>
<linearGradient id="paint0_linear_16_465" x1="7" y1="31.5" x2="72" y2="47" gradientUnits="userSpaceOnUse">
<stop offset="0.0508802" stop-color="#4568DC"/>
<stop offset="1" stop-color="#B06AB3"/>
</linearGradient>
</defs>
</svg>
