<svg width="72" height="72" viewBox="0 0 72 72" fill="none" xmlns="http://www.w3.org/2000/svg">
<path fill-rule="evenodd" clip-rule="evenodd" d="M21.9035 58.0626H20.8203C19.3909 58.0603 18.0206 57.4914 17.0097 56.4809C15.9992 55.4699 15.4303 54.0997 15.4286 52.6707V14.9425C15.4286 13.5125 15.9964 12.1412 17.0075 11.1302C18.0186 10.1191 19.3905 9.55078 20.8205 9.55078H54.2383C54.81 9.55304 55.3576 9.78141 55.7619 10.1857C56.1662 10.59 56.3946 11.1375 56.3963 11.7094V47.278C56.3946 47.8498 56.1662 48.3979 55.7619 48.8022C55.3576 49.2065 54.8101 49.4344 54.2383 49.4366H53.8567C53.0278 51.51 53.0291 53.8248 53.8604 55.8975H55.3141V58.0639H35.913V55.8975H51.5647C51.2245 54.8068 51.0566 53.6662 51.0706 52.5167C51.0838 51.4688 51.2498 50.4314 51.5609 49.4366H20.8205C19.6651 49.4366 18.5977 50.0529 18.0203 51.0532C17.4423 52.0541 17.4423 53.2868 18.0203 54.287C18.5977 55.2873 19.6652 55.9036 20.8205 55.9036H21.9037L21.9035 58.0626ZM20.8203 11.718C19.9627 11.718 19.1399 12.0591 18.5338 12.6653C17.927 13.2714 17.5865 14.0941 17.5865 14.9518V48.3465C18.5202 47.649 19.6548 47.2718 20.8203 47.2712H46.6156V45.5332L43.9237 42.8413H43.0311C42.8511 43.4531 42.5205 44.0164 42.0625 44.4766C41.343 45.1989 40.3675 45.6077 39.3486 45.6139L39.3486 45.614C38.3252 45.6185 37.3418 45.2153 36.6154 44.4941C35.889 43.7729 35.4792 42.7924 35.4764 41.7689C35.4736 40.7455 35.8779 39.7627 36.6002 39.0374C37.322 38.3123 38.3032 37.9035 39.3272 37.9023C40.3506 37.9007 41.333 38.3067 42.0569 39.0295C42.5196 39.4915 42.8526 40.0587 43.0329 40.6748H44.8209L48.7821 44.636V47.2712H54.2381V36.2451H49.902C49.7216 36.8585 49.3901 37.4232 48.9302 37.8839C48.2096 38.6062 47.2318 39.0144 46.2112 39.0184V39.0183C45.1883 39.0205 44.206 38.6157 43.4815 37.8939C42.7569 37.1716 42.3486 36.191 42.3469 35.1675C42.3458 34.1446 42.7512 33.1629 43.4736 32.4389C44.1965 31.7143 45.1771 31.3072 46.2005 31.3066C47.2234 31.3055 48.2052 31.7115 48.9285 32.435C49.3906 32.8963 49.7234 33.463 49.9037 34.0786H54.2381V17.1743H51.4828L37.6235 31.0341C37.9302 31.5959 38.0951 32.2304 38.0951 32.8818C38.0929 33.9024 37.6869 34.8808 36.9662 35.6031C36.245 36.3254 35.2678 36.7337 34.2472 36.7376V36.7375C33.2237 36.7398 32.242 36.3355 31.5175 35.6131C30.7923 34.8908 30.3846 33.9102 30.3829 32.8873C30.3818 31.8639 30.7867 30.8821 31.5096 30.1582C32.2325 29.4336 33.2131 29.0265 34.2365 29.0259C34.8912 29.0255 35.5289 29.1914 36.0929 29.5006L50.5857 15.0078H54.2381V11.7026L31.831 11.7129V15.5421L33.842 17.5532C34.405 17.2446 35.0414 17.0786 35.6951 17.0786C36.7179 17.0786 37.6985 17.4852 38.4215 18.2081C39.1449 18.9315 39.5509 19.9122 39.5509 20.9345C39.5486 21.9568 39.1421 22.9362 38.4192 23.6591C37.6969 24.3815 36.7168 24.7886 35.6951 24.7908L35.6951 24.7909C34.6722 24.7909 33.6916 24.3843 32.9687 23.6614C32.2452 22.938 31.8392 21.9574 31.8392 20.9345C31.8392 20.2832 32.004 19.6488 32.3107 19.0871L29.6646 16.4476V11.7139L24.402 11.7163V33.9222C24.9728 34.1087 25.4977 34.4278 25.9302 34.8603C26.6542 35.5832 27.0607 36.5644 27.0607 37.5879C27.0585 38.6085 26.6531 39.5869 25.9319 40.3092C25.2112 41.0316 24.2334 41.4392 23.2128 41.4438V41.4436C22.1899 41.4459 21.2076 41.041 20.4831 40.3187C19.7585 39.5969 19.3503 38.6163 19.3491 37.5929C19.3474 36.57 19.7529 35.5882 20.4752 34.8637C20.9656 34.3725 21.575 34.0272 22.2355 33.8555V11.7173L20.8203 11.718ZM21.6453 36.9456C21.9091 36.3135 22.5283 35.903 23.2128 35.9064L23.2129 35.9065C24.1398 35.911 24.8898 36.6609 24.8943 37.5879C24.8977 38.2724 24.4872 38.8915 23.8551 39.1549C23.223 39.4188 22.4945 39.2744 22.0101 38.7906C21.5257 38.3063 21.382 37.5777 21.6453 36.9456ZM32.6683 32.2282C32.9367 31.5967 33.5609 31.1907 34.2472 31.2003L34.2471 31.2003C35.1674 31.2137 35.9077 31.9615 35.9123 32.8817C35.9156 33.5679 35.5034 34.1882 34.8691 34.4504C34.2353 34.7132 33.5051 34.566 33.0224 34.0782C32.5397 33.5911 32.3993 32.8598 32.6683 32.2282ZM34.1275 20.2929C34.3914 19.6608 35.0099 19.2503 35.6951 19.2536L35.6951 19.2536C36.6221 19.2576 37.372 20.0081 37.3766 20.9346C37.3799 21.6196 36.9694 22.2388 36.3373 22.5021C35.7052 22.766 34.9767 22.6217 34.4923 22.1373C34.008 21.6535 33.8642 20.9244 34.1275 20.2929ZM37.7867 41.1216C38.0477 40.4895 38.6646 40.0768 39.3486 40.0768L39.3486 40.0767C39.7957 40.0745 40.2254 40.251 40.5429 40.5662C40.8598 40.882 41.038 41.3111 41.038 41.7582C41.0414 42.4423 40.632 43.0609 40.0004 43.3247C39.3695 43.5892 38.6416 43.4466 38.1566 42.9639C37.6717 42.4811 37.5256 41.7537 37.7867 41.1216ZM46.2112 33.481C45.5266 33.4776 44.9075 33.8881 44.6436 34.5203C44.3803 35.1524 44.5241 35.8809 45.0085 36.3652C45.4928 36.8496 46.2214 36.9934 46.8535 36.7301C47.4856 36.4662 47.8961 35.847 47.8927 35.1625C47.8882 34.2355 47.1382 33.4856 46.2113 33.4811L46.2112 33.481ZM28.9053 59.3003L33.7636 62.0814V52.6719H31.5971V58.3463L28.9053 56.8108L26.2211 58.3463V52.6719H24.0547V62.0814L28.9053 59.3003Z" fill="url(#paint0_linear_16_381)"/>
<defs>
<linearGradient id="paint0_linear_16_381" x1="11" y1="26" x2="64.5" y2="50.5" gradientUnits="userSpaceOnUse">
<stop stop-color="#4568DC"/>
<stop offset="1" stop-color="#B06AB3"/>
</linearGradient>
</defs>
</svg>
