<svg width="72" height="72" viewBox="0 0 72 72" fill="none" xmlns="http://www.w3.org/2000/svg">
<path fill-rule="evenodd" clip-rule="evenodd" d="M56.7309 46.6695C55.1432 45.5899 52.5392 42.0968 52.5392 30.7285C52.5392 20.0591 46.0611 15.8037 41.2978 14.0255C41.3612 13.6445 41.425 13.1997 41.425 12.8187C41.425 9.64319 38.8848 7.10303 35.7093 7.10303C32.5338 7.10303 29.9937 9.64319 29.9937 12.8187C29.9937 13.1997 30.057 13.6444 30.1208 14.0255C25.3576 15.7403 18.8795 20.0588 18.8795 30.7285C18.8795 42.1603 16.2755 45.6533 14.6877 46.6695C13.3538 47.5586 12.5919 49.083 12.5919 50.607C12.5919 53.2744 14.7511 55.3702 17.3551 55.3702H54.0638C56.6678 55.3702 58.827 53.211 58.827 50.607C58.8266 49.083 58.0646 47.5586 56.7312 46.6695H56.7309ZM35.7093 9.6433C37.4875 9.64335 38.8847 11.0405 38.8847 12.8188C38.8847 13.0093 38.8847 13.1364 38.8213 13.3269C36.2173 12.7554 33.8043 13.0731 32.5338 13.3269C32.5338 13.2317 32.5179 13.1523 32.5021 13.0729C32.4863 12.9934 32.4704 12.914 32.4704 12.8188C32.5338 11.0405 33.931 9.6433 35.7093 9.6433ZM54.0635 52.8934H17.3549C16.1481 52.8934 15.1318 51.8772 15.1318 50.6704C15.1318 49.9084 15.5128 49.2097 16.1481 48.8288C19.6412 46.4153 21.4194 40.382 21.4194 30.792C21.4194 21.1384 27.3894 17.455 32.3431 16.0578H32.4064C32.4064 16.0578 33.8036 15.613 35.7724 15.613C36.7887 15.613 37.8683 15.7401 39.0751 16.1211H39.1384C44.0922 17.5183 50.0621 21.202 50.0621 30.8554C50.0621 36.8887 50.7607 41.5248 52.1579 44.7005H26.1824C25.4838 44.7005 24.9123 45.272 24.9123 45.9706C24.9123 46.6692 25.4838 47.2407 26.1824 47.2407H53.4916H53.555C54.0631 47.9393 54.6346 48.4475 55.2698 48.8918C55.9051 49.3366 56.2861 50.0348 56.2861 50.7334C56.2861 51.8772 55.2698 52.8935 54.063 52.8935L54.0635 52.8934ZM36.3445 64.897C40.2819 64.8969 43.6477 61.9753 44.2196 58.1012L44.4101 56.6406H28.2787L28.4691 58.1012C29.0411 61.9753 32.4071 64.897 36.3445 64.897ZM41.2347 59.1809C40.4089 61.0863 38.4401 62.3564 36.3443 62.3564C34.2485 62.3564 32.2797 61.0863 31.4539 59.1809H41.2347ZM24.0233 45.1453C24.0871 45.2087 24.1504 45.2725 24.1504 45.3358L24.1504 45.3358C24.1821 45.3675 24.1979 45.4152 24.2138 45.4629C24.2296 45.5106 24.2454 45.5582 24.2771 45.5901V45.8439C24.2771 46.0344 24.2133 46.2249 24.1499 46.3521C24.0866 46.4792 24.0232 46.6059 23.8961 46.7331C23.6423 46.9869 23.3246 47.1141 23.007 47.1141C22.6898 47.1141 22.3722 46.9869 22.1812 46.7326C21.9274 46.4788 21.8002 46.1612 21.8002 45.8435V45.5897C21.8002 45.463 21.8002 45.3992 21.8636 45.3358C21.8956 45.304 21.9115 45.2721 21.9275 45.2402C21.9433 45.2086 21.9592 45.1769 21.9907 45.1453C21.9907 45.082 22.0545 45.0182 22.1179 44.9548C22.5622 44.4467 23.4514 44.4467 23.8961 44.9548C23.9282 44.9866 23.9441 45.0185 23.96 45.0504C23.9759 45.0821 23.9917 45.1138 24.0233 45.1453Z" fill="url(#paint0_linear_16_622)"/>
<defs>
<linearGradient id="paint0_linear_16_622" x1="13" y1="36" x2="59" y2="49" gradientUnits="userSpaceOnUse">
<stop stop-color="#4568DC"/>
<stop offset="1" stop-color="#B06AB3"/>
</linearGradient>
</defs>
</svg>
