<svg width="72" height="72" viewBox="0 0 72 72" fill="none" xmlns="http://www.w3.org/2000/svg">
<path d="M56.753 21.1816V21.06C56.6924 20.8779 56.6314 20.7563 56.5103 20.6347L44.7889 8.91334C44.6673 8.79175 44.4851 8.73117 44.3636 8.67059H44.242H44.1204L19.7677 8.67017C17.3992 8.67017 15.4555 10.6138 15.4555 12.9824V59.0176C15.4555 61.3862 17.3992 63.3299 19.7677 63.3299H52.5026C54.8711 63.3299 56.8148 61.3862 56.8148 59.0176V21.3635C56.8148 21.2419 56.7538 21.2419 56.7538 21.1813L56.753 21.1816ZM45.0924 12.0108L53.4126 20.331H45.2746C45.153 20.331 45.0924 20.2705 45.0924 20.1489L45.0924 12.0108ZM52.4412 61.2649H19.7671C18.4915 61.2649 17.3986 60.2325 17.3986 58.8963V12.9218C17.3986 11.6462 18.431 10.5532 19.7671 10.5532H43.0884V20.1486C43.0884 21.3632 44.0602 22.335 45.2748 22.335H54.81V58.9567C54.81 60.2323 53.7776 61.2646 52.4414 61.2646L52.4412 61.2649Z" fill="white"/>
<path d="M22.1962 29.1375H36.9542C37.5007 29.1375 37.926 28.7122 37.926 28.1657C37.926 27.6192 37.5007 27.1938 36.9542 27.1938H22.1962C21.6497 27.1938 21.2244 27.6192 21.2244 28.1657C21.1634 28.7122 21.6493 29.1375 22.1962 29.1375Z" fill="white"/>
<path d="M50.0724 31.749H22.1962C21.6497 31.749 21.2244 32.1744 21.2244 32.7208C21.2244 33.2673 21.6497 33.6927 22.1962 33.6927H50.0724C50.6189 33.6927 51.0443 33.2673 51.0443 32.7208C51.0443 32.1743 50.5583 31.749 50.0724 31.749Z" fill="white"/>
<path d="M50.0724 36.304H22.1962C21.6497 36.304 21.2244 36.7293 21.2244 37.2758C21.2244 37.8223 21.6497 38.2476 22.1962 38.2476H50.0724C50.6189 38.2476 51.0443 37.8223 51.0443 37.2758C51.0443 36.7293 50.5583 36.304 50.0724 36.304Z" fill="white"/>
<path d="M46.4285 41.8307C46.4285 41.2842 46.0032 40.8589 45.4567 40.8589H22.1961C21.6496 40.8589 21.2243 41.2842 21.2243 41.8307C21.2243 42.3772 21.6496 42.8025 22.1961 42.8025H45.4567C46.0032 42.8025 46.4281 42.3772 46.4281 41.8307H46.4285Z" fill="white"/>
<path d="M51.3478 55.3133C51.1656 55.2527 50.8013 55.1311 50.7403 55.0705C50.5581 54.9489 50.315 54.8884 50.0722 54.9489C49.6469 55.0705 49.5257 55.4954 49.3436 55.9207C49.283 56.0423 49.222 56.3461 49.1008 56.5282C49.0402 56.4677 48.9186 56.2855 48.7971 56.1029C48.5543 55.7386 48.4327 55.2527 48.3111 54.6452C49.3435 53.1269 50.2548 51.2443 49.7688 49.7865C49.5867 49.179 49.2223 48.8147 48.797 48.8147C48.5543 48.8147 48.1289 48.8753 47.7646 49.4222C47.2181 50.2724 46.7928 52.3982 46.975 54.2809C46.3675 55.0706 45.7604 55.7992 45.1529 56.3457C44.9101 56.5884 44.9101 57.0138 45.1529 57.2565C45.3956 57.4993 45.821 57.4993 46.0637 57.2565C46.1853 57.1349 46.6712 56.649 47.2782 55.9204C47.3998 56.2242 47.521 56.4669 47.6426 56.7101C47.9463 57.196 48.4322 57.8641 49.1003 57.8641H49.2218C49.9505 57.7425 50.2542 57.0138 50.4364 56.3458C50.558 56.4063 50.7401 56.4674 50.8617 56.4674C51.1655 56.5885 51.6514 55.3739 51.3476 55.3133L51.3478 55.3133ZM48.6759 50.6974C48.6759 51.0617 48.5543 51.487 48.4331 51.9119C48.4933 51.4264 48.5543 51.0011 48.6759 50.6974Z" fill="white"/>
</svg>
