<svg width="72" height="72" viewBox="0 0 72 72" fill="none" xmlns="http://www.w3.org/2000/svg">
<path d="M49.225 42.0881C51.051 42.0881 52.5274 40.6004 52.5274 38.7857C52.5274 36.9711 51.0397 35.4833 49.225 35.4833H47.8953C48.1208 34.9536 48.2335 34.3786 48.1995 33.7927L46.6218 11.0717C46.4864 9.13344 44.8633 7.62354 42.936 7.62354H29.0734C27.1461 7.62354 25.5235 9.13393 25.388 11.0608L23.8102 33.7819C23.765 34.3677 23.889 34.9427 24.1145 35.4724H22.7847C20.9588 35.4724 19.4824 36.9601 19.4824 38.7748C19.4824 40.5895 20.97 42.0772 22.7847 42.0772H34.8782V46.822L23.7996 49.5266C23.2925 49.6507 22.9429 50.1016 22.9429 50.62V55.4888C21.1057 55.9846 19.7533 57.653 19.7533 59.6365C19.7533 62.0142 21.6921 63.9529 24.0698 63.9529C26.4476 63.9529 28.3863 62.0142 28.3863 59.6365C28.3863 57.6416 27.0226 55.9851 25.1967 55.4888V51.5106L34.8778 49.1436V55.4888C33.0405 55.9846 31.6882 57.653 31.6882 59.6365C31.6882 62.0142 33.6269 63.9529 36.0047 63.9529C38.3824 63.9529 40.3211 62.0142 40.3211 59.6365C40.3211 57.6416 38.9575 55.9851 37.1315 55.4888V49.1436L46.8126 51.5106V55.4888C44.9754 55.9846 43.623 57.653 43.623 59.6365C43.623 62.0142 45.5617 63.9529 47.9395 63.9529C50.3173 63.9529 52.256 62.0142 52.256 59.6365C52.256 57.6416 50.8923 55.9851 49.0664 55.4888V50.62C49.0664 50.1016 48.7055 49.6507 48.2098 49.5266L37.132 46.8441V42.0993H49.2256L49.225 42.0881ZM26.132 59.659C26.132 60.7972 25.208 61.7212 24.0698 61.7212C22.9316 61.7212 22.0076 60.7972 22.0076 59.659C22.0076 58.5208 22.9316 57.5967 24.0698 57.5967C25.208 57.5854 26.132 58.5208 26.132 59.659ZM50.0136 59.659C50.0136 60.7972 49.0895 61.7212 47.9513 61.7212C46.8131 61.7212 45.8891 60.7972 45.8891 59.659C45.8891 58.5208 46.8131 57.5967 47.9513 57.5967C49.0782 57.5854 50.0136 58.5208 50.0136 59.659ZM38.0669 59.659C38.0669 60.7972 37.1428 61.7212 36.0046 61.7212C34.8664 61.7212 33.9424 60.7972 33.9424 59.659C33.9424 58.5208 34.8664 57.5967 36.0046 57.5967C37.1428 57.5854 38.0669 58.5208 38.0669 59.659ZM26.4471 35.0215C26.1768 34.7286 26.0301 34.3451 26.0641 33.9395L27.6418 11.2184C27.6871 10.4637 28.3183 9.87742 29.0734 9.87742H42.9359C43.6911 9.87742 44.3222 10.4633 44.3671 11.2184L45.9449 33.9395C45.9788 34.3451 45.8321 34.7286 45.5619 35.0215C45.2916 35.3145 44.9081 35.4838 44.5138 35.4838H27.4959C27.1011 35.4725 26.7294 35.3149 26.4473 35.0215H26.4471ZM21.7362 38.7862C21.7362 38.2003 22.2098 37.738 22.7843 37.738H49.2126C49.7984 37.738 50.2607 38.2116 50.2607 38.7862C50.2607 39.3611 49.7871 39.8343 49.2126 39.8343H22.7843C22.2098 39.8343 21.7362 39.3607 21.7362 38.7862Z" fill="white"/>
<path d="M37.1883 13.1236C35.5204 12.7741 33.8072 13.1797 32.4996 14.2392C31.1921 15.2986 30.4483 16.8764 30.4483 18.5556C30.4483 19.1754 30.9553 19.6825 31.5751 19.6825C32.1949 19.6825 32.702 19.1754 32.702 18.5556C32.702 17.5523 33.153 16.6169 33.919 15.9859C34.7081 15.3434 35.6996 15.1066 36.7251 15.3208C37.9647 15.5802 38.9679 16.583 39.227 17.8227C39.5199 19.2089 38.9454 20.5953 37.7618 21.3392C35.9595 22.5005 34.8779 24.3825 34.8779 26.3886V26.9971C34.8779 27.6169 35.385 28.124 36.0048 28.124C36.6246 28.124 37.1316 27.6169 37.1316 26.9971V26.3886C37.1316 25.1603 37.8189 23.9881 38.9803 23.2556C40.9638 22.0047 41.9217 19.6944 41.4374 17.3726C40.9977 15.276 39.2959 13.5627 37.1883 13.1235V13.1236Z" fill="white"/>
<path d="M35.2055 30.4231C34.9913 30.6372 34.8786 30.9188 34.8786 31.2231C34.8786 31.516 34.9913 31.8089 35.2055 32.0122C35.2616 32.0684 35.3182 32.1137 35.3744 32.1589C35.4418 32.1929 35.4984 32.2264 35.5659 32.2603C35.6333 32.283 35.7125 32.3056 35.78 32.3278C35.8588 32.3391 35.9267 32.3504 36.0055 32.3504C36.2984 32.3504 36.5913 32.2264 36.7946 32.0122C37.0088 31.8094 37.1328 31.5165 37.1328 31.2231C37.1328 30.9188 37.0088 30.6259 36.7946 30.4231C36.3772 30.0061 35.6225 30.0061 35.2055 30.4231L35.2055 30.4231Z" fill="white"/>
</svg>
