<svg width="72" height="72" viewBox="0 0 72 72" fill="none" xmlns="http://www.w3.org/2000/svg">
<path fill-rule="evenodd" clip-rule="evenodd" d="M35.8397 34.8725C30.9306 34.8725 26.9359 30.8777 26.9359 25.9676C26.9359 21.0574 30.9297 17.0626 35.8397 17.0626C40.7498 17.0626 44.745 21.0574 44.745 25.9676C44.745 30.8777 40.7493 34.8725 35.8397 34.8725ZM35.8397 13.9928C29.2371 13.9928 23.8643 19.3646 23.8643 25.9685C23.8643 32.5712 29.2365 37.9441 35.8397 37.9441C42.4432 37.9441 47.8152 32.5719 47.8152 25.9685C47.8152 19.3649 42.4435 13.9928 35.8397 13.9928ZM57.1047 54.7359C61.4507 49.7668 64.0878 43.2673 64.0878 36.1622C64.0878 20.5864 51.4171 7.91315 35.8393 7.91315C20.2637 7.91404 7.59073 20.5864 7.59073 36.1622C7.59073 43.2682 10.2279 49.7678 14.5752 54.7359V54.1807C14.5752 46.4079 20.8982 40.0851 28.6717 40.0851H43.0064C50.7795 40.0851 57.1029 46.4082 57.1029 54.1807V54.7363L57.1047 54.7359ZM27.1763 63.0493V53.7833C27.1763 52.9348 26.4882 52.2481 25.6411 52.2481C24.7931 52.2481 24.1059 52.9349 24.1059 53.7833V61.8562C21.7634 60.7822 19.5924 59.3966 17.6446 57.7533V54.1808C17.6446 48.1013 22.5914 43.1558 28.6713 43.1558H43.0059C49.0857 43.1558 54.0321 48.1014 54.0321 54.1808V57.7533C52.0853 59.3966 49.9142 60.7817 47.5708 61.8562L47.5717 53.7833C47.5717 52.9348 46.8845 52.2481 46.037 52.2481C45.1885 52.2481 44.5013 52.9349 44.5013 53.7833V63.0493C41.7707 63.9324 38.8598 64.4114 35.838 64.4114C32.8181 64.4105 29.908 63.9319 27.1765 63.0493H27.1763ZM35.8392 4.84302C18.5702 4.84302 4.5202 18.8932 4.5202 36.1614C4.5202 53.4307 18.569 67.4798 35.838 67.4798C53.1081 67.4798 67.157 53.4307 67.157 36.1614C67.1574 18.8921 53.1081 4.84302 35.838 4.84302H35.8392Z" fill="white"/>
</svg>
