<svg width="108" height="108" viewBox="0 0 108 108" fill="none" xmlns="http://www.w3.org/2000/svg">
<path d="M9.57115 10.899C8.4413 10.899 7.53027 11.8467 7.53027 12.9765V95.2582C7.53027 96.388 8.44133 97.299 9.57115 97.299H98.0491C99.1783 97.299 100.089 96.388 100.089 95.2582C100.089 94.0924 99.1782 93.1813 98.0484 93.1813H11.6493V12.9767C11.6493 11.8468 10.7383 10.8992 9.57244 10.8992L9.57115 10.899ZM71.3008 30.4667C70.0253 30.4667 69.1143 31.6325 69.1508 32.6167C69.1874 33.6734 70.2075 34.6211 71.3008 34.548H82.5973L52.716 62.6424C48.9626 59.5449 45.1728 56.4113 41.9661 53.6782C41.5651 53.2406 40.9094 52.986 40.3262 53.0584C39.8527 53.0584 39.4151 53.2772 39.0507 53.605L18.4987 72.1168C17.6966 72.809 17.6242 74.2302 18.353 75.0322C19.0819 75.8342 20.4664 75.8701 21.2684 75.1412L40.4725 57.8317L51.3314 66.8692C52.0969 67.598 53.4449 67.6346 54.2103 66.9058L85.6949 37.2796V48.9771C85.6583 50.0338 86.6792 51.054 87.7358 51.054C88.8291 51.054 89.8127 50.0339 89.8127 48.9771V32.5061C89.8127 31.4128 88.8285 30.4652 87.7358 30.4652L71.3008 30.4667Z" fill="url(#paint0_linear_27_457)"/>
<defs>
<linearGradient id="paint0_linear_27_457" x1="6.8571" y1="45.92" x2="113.148" y2="69.1248" gradientUnits="userSpaceOnUse">
<stop offset="0.0508802" stop-color="#4568DC"/>
<stop offset="1" stop-color="#B06AB3"/>
</linearGradient>
</defs>
</svg>
