<svg width="108" height="108" viewBox="0 0 108 108" fill="none" xmlns="http://www.w3.org/2000/svg">
<path fill-rule="evenodd" clip-rule="evenodd" d="M17.912 18.8115H90.3093C94.9977 18.8115 98.7049 22.5214 98.7049 27.2133V69.9844C98.7049 74.5674 94.9977 78.3862 90.3093 78.3862H55.7457V86.024H73.5181C73.9542 86.024 74.2815 86.3515 74.2815 86.679V88.5336C74.2815 88.8611 73.9542 89.1886 73.5181 89.1886H34.7032C34.3759 89.1886 34.0487 88.8611 34.0487 88.5336V86.679C34.0487 86.3515 34.3759 86.024 34.7032 86.024H52.5844V78.3862H17.912C13.3324 78.3862 9.51639 74.5672 9.51639 69.9844V27.2133C9.51639 22.5214 13.3326 18.8115 17.912 18.8115ZM17.912 21.8666H90.3093C93.2533 21.8666 95.6521 24.2673 95.6521 27.2133V69.9844C95.6521 72.9306 93.2531 75.3311 90.3093 75.3311H17.912C14.968 75.3311 12.5692 72.9304 12.5692 69.9844V27.2133C12.5692 24.2671 14.9682 21.8666 17.912 21.8666Z" fill="url(#paint0_linear_23_23)"/>
<defs>
<linearGradient id="paint0_linear_23_23" x1="8.86773" y1="47.3378" x2="109.46" y2="73.3167" gradientUnits="userSpaceOnUse">
<stop offset="0.0508802" stop-color="#4568DC"/>
<stop offset="1" stop-color="#B06AB3"/>
</linearGradient>
</defs>
</svg>
