<svg width="108" height="108" viewBox="0 0 108 108" fill="none" xmlns="http://www.w3.org/2000/svg">
<path fill-rule="evenodd" clip-rule="evenodd" d="M60.2315 93.2581H22.8427C18.3561 93.2581 14.7419 89.6439 14.7419 85.1572V22.8427C14.7419 18.3561 18.3561 14.7418 22.8427 14.7418H47.7686C47.8932 14.7418 47.9555 14.7418 48.0801 14.8041C48.2048 14.7418 48.2671 14.7418 48.3917 14.7418H60.2315C64.7181 14.7418 68.3324 18.3561 68.3324 22.8427V24.089C68.3324 25.1483 67.5223 25.9584 66.4629 25.9584C65.4036 25.9584 64.5935 25.1483 64.5935 24.089V22.8427C64.5935 20.4124 62.6617 18.4807 60.2315 18.4807H48.3917C48.2671 18.4807 48.2048 18.4807 48.0801 18.4184C47.9555 18.4807 47.8932 18.4807 47.7686 18.4807H22.8427C20.4124 18.4807 18.4807 20.4125 18.4807 22.8427V85.1572C18.4807 87.5876 20.4125 89.5193 22.8427 89.5193H60.2315C62.6618 89.5193 64.5935 87.5874 64.5935 85.1572V83.911C64.5935 82.8516 65.4036 82.0415 66.4629 82.0415C67.5223 82.0415 68.3324 82.8516 68.3324 83.911V85.1572C68.3324 89.6439 64.7181 93.2581 60.2315 93.2581ZM29.0742 22.2203C28.0148 22.2203 27.2047 23.0304 27.2047 24.0897C27.2047 25.1491 28.0148 25.9591 29.0742 25.9591H32.1899C33.2493 25.9591 34.0593 25.1491 34.0593 24.0897C34.0593 23.0304 33.2493 22.2203 32.1899 22.2203H29.0742ZM55.8687 24.0897C55.8687 23.0304 55.0586 22.2203 53.9993 22.2203H41.5364C40.477 22.2203 39.6669 23.0304 39.6669 24.0897C39.6669 25.1491 40.477 25.9591 41.5364 25.9591H53.9993C55.0586 25.9591 55.8687 25.1491 55.8687 24.0897ZM34.6832 78.9265C34.6832 82.7278 37.7367 85.7811 41.5378 85.7811C45.3389 85.7811 48.3924 82.7276 48.3924 78.9265C48.3924 75.1254 45.3389 72.0719 41.5378 72.0719C37.7367 72.0719 34.6832 75.1254 34.6832 78.9265ZM44.6535 78.9265C44.6535 80.6713 43.2826 82.0422 41.5378 82.0422C39.793 82.0422 38.4221 80.6713 38.4221 78.9265C38.4221 77.1817 39.793 75.8108 41.5378 75.8108C43.2826 75.8108 44.6535 77.1817 44.6535 78.9265ZM44.6535 54.0007C44.6535 40.6037 55.5579 29.6987 68.9555 29.6987C82.3525 29.6987 93.2574 40.6037 93.2574 54.0007C93.2574 67.3977 82.3525 78.3026 68.9555 78.3026C55.5585 78.3026 44.6535 67.3977 44.6535 54.0007ZM68.9555 74.5652C80.2975 74.5652 89.52 65.3419 89.52 54.0007L89.5194 53.9998C89.5194 50.2609 88.5224 46.7089 86.7152 43.7178L70.3895 62.7241C70.0156 63.098 69.5171 63.3472 69.0186 63.3472H68.9563C68.4578 63.3472 68.0216 63.1603 67.6477 62.7864L58.3005 53.4392C57.5527 52.7537 57.5527 51.5698 58.3005 50.822C58.986 50.0742 60.1699 50.0742 60.9177 50.822L68.8316 58.7359L84.4722 40.54C80.733 36.178 75.1246 33.4362 68.9555 33.4362C57.6135 33.4362 48.391 42.6587 48.391 54.0007C48.391 65.3426 57.6135 74.5652 68.9555 74.5652Z" fill="url(#paint0_linear_22_962)"/>
<defs>
<linearGradient id="paint0_linear_22_962" x1="14.1708" y1="46.5673" x2="104.865" y2="65.0496" gradientUnits="userSpaceOnUse">
<stop offset="0.0508802" stop-color="#4568DC"/>
<stop offset="1" stop-color="#B06AB3"/>
</linearGradient>
</defs>
</svg>
