<svg width="108" height="108" viewBox="0 0 108 108" fill="none" xmlns="http://www.w3.org/2000/svg">
<path fill-rule="evenodd" clip-rule="evenodd" d="M50.6454 28.2628C55.2198 31.4674 63.5991 33.1533 71.6373 33.1533C79.6754 33.1533 88.0545 31.4675 92.629 28.263V32.2783V33.1528C92.629 36.0741 84.6429 40.1503 71.6372 40.1503C58.6321 40.1503 50.6454 36.0741 50.6454 33.1528V32.2783V28.2628ZM47.2177 21.7822H47.1466V22.6571V32.2783V33.1522V42.7749V43.6489V44.6026C43.8936 43.977 40.31 43.6494 36.6516 43.6494C24.7791 43.6494 12.1624 47.3274 12.1609 54.1444V54.1456V63.7667V64.6406V74.2618V75.1373V85.6325C12.1609 92.4503 24.7783 96.1287 36.6516 96.1287H36.6519C43.315 96.1287 49.637 95.0398 54.1614 93.1261C58.8797 95.1013 65.3623 96.1287 71.637 96.1287C83.5102 96.1287 96.1277 92.4511 96.1277 85.6331V75.1373V74.2625V64.6413V63.7667V54.1455V53.2707V43.6489V42.7749V33.1528V32.2783V22.7166C96.1279 22.6968 96.128 22.677 96.128 22.6571C96.128 22.6373 96.1279 22.6174 96.1277 22.5976V21.7822H96.057C95.0278 15.5251 82.9922 12.1609 71.6373 12.1609C60.2824 12.1609 48.2468 15.5251 47.2177 21.7822ZM92.629 22.6358C92.5888 19.7161 84.6102 15.6604 71.6373 15.6604C58.6316 15.6604 50.6455 19.7366 50.6455 22.6579C50.6455 25.5792 58.6323 29.6554 71.6373 29.6554C84.6102 29.6554 92.5888 25.5997 92.629 22.6801V22.6358ZM71.637 43.6484C63.5989 43.6484 55.2197 41.9624 50.6454 38.7578V42.7749V43.6489C50.6454 46.5702 58.6321 50.6464 71.6372 50.6464C84.6429 50.6464 92.629 46.5702 92.629 43.6489V42.7749V38.7584C88.0546 41.9629 79.6752 43.6484 71.637 43.6484ZM50.6454 49.2546C55.2197 52.4592 63.5989 54.1451 71.637 54.1452C79.6752 54.1452 88.0546 52.4593 92.629 49.2547V53.2707V54.1455C92.629 57.0668 84.6429 61.143 71.6372 61.143C58.6321 61.143 50.6454 57.0668 50.6454 54.1455V53.27V49.2546ZM71.637 64.6417C63.5989 64.6417 55.2197 62.9558 50.6454 59.7512V61.4147C50.6496 61.4852 50.6496 61.5552 50.6454 61.6246V63.7667V64.6413C50.6454 67.5626 58.6321 71.6388 71.6372 71.6388C84.6429 71.6388 92.629 67.5626 92.629 64.6413V63.7667V59.7512C88.0546 62.9559 79.6752 64.6417 71.637 64.6417ZM47.1466 48.1702V53.27V54.1455V60.122C43.9467 60.7915 40.3497 61.1431 36.6515 61.1431C23.6465 61.1431 15.6597 57.0669 15.6597 54.1456C15.6597 51.2243 23.6458 47.1481 36.6515 47.1481C40.3454 47.1481 43.9434 47.5001 47.1466 48.1702ZM36.6516 64.6419C28.6133 64.6419 20.234 62.9559 15.6596 59.7513V63.7667V64.6406V64.6409C15.6601 67.5622 23.6467 71.6381 36.6514 71.6381C40.3496 71.6381 43.9466 71.2865 47.1466 70.617V64.6406V63.7667V63.6895C43.8975 64.3142 40.3145 64.6418 36.6514 64.6418L36.6516 64.6419ZM50.6454 70.2463V74.2618V75.1373C50.6454 78.0586 58.6321 82.1348 71.6372 82.1348C84.6429 82.1348 92.629 78.0586 92.629 75.1373V74.2625V70.2468C88.0546 73.4513 79.6752 75.1369 71.637 75.1369C63.5989 75.1368 55.2197 73.4509 50.6454 70.2463ZM36.6513 75.1368C40.3144 75.1368 43.8975 74.8096 47.1466 74.1844V74.2618V75.1373V81.1138C43.9479 81.7833 40.3505 82.1348 36.6514 82.1348C23.6476 82.1348 15.6612 78.0594 15.6596 75.1382L15.6596 75.1373L15.6596 74.2618V70.2463C20.234 73.4509 28.6133 75.1369 36.6516 75.1369L36.6513 75.1368ZM50.6454 85.6331V80.743C55.2197 83.9476 63.5989 85.6335 71.637 85.6336C79.6752 85.6336 88.0546 83.9477 92.629 80.7431V85.6331C92.629 88.5544 84.6429 92.6306 71.6372 92.6306C58.6321 92.6306 50.6454 88.5544 50.6454 85.6331ZM50.1317 90.8593C48.2581 89.403 47.1466 87.656 47.1466 85.6325V84.6813C43.8991 85.3064 40.3154 85.6336 36.6513 85.6336L36.6516 85.6336C28.6133 85.6336 20.234 83.9476 15.6596 80.743V85.6331C15.6596 88.5544 23.6463 92.6306 36.6514 92.6306C41.6214 92.6306 46.3443 91.9992 50.1317 90.8593Z" fill="url(#paint0_linear_27_508)"/>
<defs>
<linearGradient id="paint0_linear_27_508" x1="46.7904" y1="20.6699" x2="94.8525" y2="43.5232" gradientUnits="userSpaceOnUse">
<stop offset="0.0508802" stop-color="#4568DC"/>
<stop offset="1" stop-color="#B06AB3"/>
</linearGradient>
</defs>
</svg>
