<svg width="108" height="108" viewBox="0 0 108 108" fill="none" xmlns="http://www.w3.org/2000/svg">
<path fill-rule="evenodd" clip-rule="evenodd" d="M82.9059 22.3189C87.8306 26.0851 91.1621 33.0376 88.2653 40.5695L88.2628 40.57C95.0706 42.0183 100.285 47.9571 100.285 55.3437C100.285 63.4551 93.7669 70.1181 85.5108 70.1181H69.1434C68.2745 70.1181 67.695 69.5386 67.695 68.6697C67.695 67.8008 68.2745 67.2214 69.1434 67.2214L85.5108 67.2207C92.0284 67.2207 97.3878 61.8621 97.3878 55.3438C97.3878 48.9708 92.4625 43.7562 86.0895 43.4668C85.0753 43.322 84.4958 42.1631 84.9306 41.2942C88.4069 34.6311 85.5094 28.1135 81.1644 24.782C72.0401 17.6839 59.7284 24.6372 59.7284 35.2106C59.7284 36.0795 59.1489 36.659 58.28 36.659C57.4111 36.659 56.8316 36.0795 56.8316 35.2106C56.8316 31.0094 58.57 26.9537 61.4667 23.9124C56.832 13.9185 43.5067 9.57276 33.2228 15.5116C23.5183 21.0153 20.0422 33.4728 25.691 43.3219C25.9804 44.0461 25.8357 44.915 25.1115 45.3497C24.3873 45.6391 23.5184 45.4944 23.0836 44.7703C22.0701 43.0324 21.3459 41.2941 20.7664 39.2662C14.6828 41.0047 10.4825 46.5088 10.4825 52.8817C10.4825 60.7036 16.8562 67.0765 24.6774 67.0765H38.7276C39.5965 67.0765 40.176 67.656 40.176 68.5249C40.176 69.3938 39.5965 69.9733 38.7276 69.9733H24.6774C15.2626 69.9733 7.58594 62.2968 7.58594 52.8818C7.58594 45.2052 12.8006 38.3975 20.1877 36.3696C18.884 27.0994 23.2291 17.8292 31.6299 12.9039C43.2176 6.2409 57.8478 10.7314 63.6413 21.7395C70.3048 16.9595 77.9813 18.408 82.9059 22.3189ZM54.6613 93.1479L57.5581 90.2511L57.5582 90.2515C58.1377 89.672 59.0065 89.672 59.5867 90.3962C60.1662 90.9757 60.1662 91.8446 59.5867 92.4241L54.2273 97.7835C53.6478 98.363 52.7789 98.363 52.1994 97.7835L46.84 92.4241C46.2605 91.8446 46.2605 90.9757 46.84 90.3962C47.4195 89.8167 48.2884 89.8167 48.8678 90.3962L51.7646 93.293V54.9089C51.7646 54.04 52.3441 53.4606 53.213 53.4606C54.0819 53.4606 54.6613 54.0401 54.6613 54.9089V93.1479ZM47.4197 79.9676V61.2835C47.4197 60.4146 46.8402 59.8351 45.9713 59.8351H38.2947C37.4258 59.8351 36.8463 60.4146 36.8463 61.2835C36.8463 62.1523 37.4258 62.7318 38.2947 62.7318H44.5228V78.5197H25.2582L28.155 75.623C28.7345 75.0435 28.7345 74.1746 28.155 73.5951C27.5755 73.0156 26.7067 73.0156 26.1272 73.5951L20.7677 78.9545C20.1883 79.534 20.1883 80.4029 20.7677 80.9824L26.1272 86.3418C26.7066 86.9213 27.5755 86.9213 28.155 86.3418C28.7345 85.7623 28.7345 84.8934 28.155 84.3139L25.2582 81.4172H45.8253C46.6942 81.4165 47.4184 80.6923 47.4184 79.9681L47.4197 79.9676ZM80.2992 73.5942L85.6586 78.9536L85.6584 78.9531C86.0932 79.5326 86.0932 80.4021 85.5144 80.9809L80.1549 86.3404C79.5754 86.9198 78.7066 86.9198 78.1271 86.3404C77.5476 85.7609 77.5476 84.892 78.1271 84.3125L81.0238 81.4157H60.4568C59.5879 81.4157 59.0084 80.8363 59.0084 79.9674V61.2832C59.0084 60.4143 59.5879 59.8348 60.4568 59.8348H68.1334C69.0023 59.8348 69.5818 60.4143 69.5818 61.2832C69.5818 62.1521 69.0023 62.7316 68.1334 62.7316H61.9052V78.5195L81.1681 78.5188L78.2713 75.622C77.6919 75.0426 77.6918 74.1737 78.2713 73.5942C78.8508 73.0147 79.7197 73.0147 80.2992 73.5942ZM30.1831 59.8341C29.3142 59.8341 28.7347 60.4136 28.7347 61.2825C28.7347 62.1514 29.3142 62.7308 30.1831 62.7308H33.6593C34.5281 62.7308 35.1076 62.1514 35.1076 61.2825C35.1076 60.4136 34.5282 59.8341 33.6593 59.8341H30.1831ZM77.5472 61.2826C77.5472 62.1515 76.9677 62.731 76.0988 62.731H72.6227C71.7538 62.731 71.1743 62.1515 71.1743 61.2826C71.1743 60.4137 71.7538 59.8342 72.6227 59.8342H76.0988C76.9677 59.8342 77.5472 60.4137 77.5472 61.2826Z" fill="url(#paint0_linear_27_378)"/>
<defs>
<linearGradient id="paint0_linear_27_378" x1="6.91174" y1="45.6282" x2="113.57" y2="68.4117" gradientUnits="userSpaceOnUse">
<stop offset="0.0508802" stop-color="#4568DC"/>
<stop offset="1" stop-color="#B06AB3"/>
</linearGradient>
</defs>
</svg>
