<svg width="108" height="108" viewBox="0 0 108 108" fill="none" xmlns="http://www.w3.org/2000/svg">
<path fill-rule="evenodd" clip-rule="evenodd" d="M50.5601 46.6155C51.162 46.0136 51.5002 45.1967 51.5002 44.3454C51.5002 43.4941 51.162 42.6772 50.5601 42.0753C49.9582 41.4734 49.1413 41.1352 48.29 41.1352C47.4388 41.1352 46.6219 41.4734 46.02 42.0753C45.4181 42.6772 45.0798 43.4941 45.0798 44.3454C45.0798 45.1967 45.4181 46.0136 46.02 46.6155C46.6219 47.2174 47.4388 47.5556 48.29 47.5556C49.1413 47.5556 49.9582 47.2174 50.5601 46.6155ZM95.3083 95.2389C95.9353 95.8651 96.9514 95.8651 97.5784 95.2389L97.5777 95.2389C98.204 94.6119 98.204 93.5958 97.5777 92.9688L89.7995 85.1906C93.5155 80.8783 95.2998 75.2297 94.7351 69.5645C94.1705 63.9001 91.3064 58.7145 86.8122 55.2205V28.1815C86.8114 26.9347 86.3156 25.7395 85.4342 24.8581C84.5528 23.9768 83.3577 23.4809 82.1108 23.4802H61.1309V16.9459C61.1302 15.699 60.6343 14.5039 59.7529 13.6225C58.8715 12.7411 57.6764 12.2453 56.4296 12.2446H40.1508C38.9039 12.2453 37.7088 12.7411 36.8274 13.6225C35.946 14.5039 35.4502 15.6991 35.4495 16.9459V23.4802H14.4695C13.2226 23.4809 12.0275 23.9768 11.1461 24.8581C10.2647 25.7396 9.76887 26.9347 9.76816 28.1815V71.7465C9.76887 72.9934 10.2647 74.1885 11.1461 75.0699C12.0275 75.9513 13.2227 76.4471 14.4695 76.4479H53.6888C55.3543 83.5283 60.5944 89.2263 67.5114 91.4771C74.427 93.7277 82.0169 92.2049 87.5301 87.4606L95.3083 95.2389ZM57.9206 23.4792H38.6595L38.6595 16.9449C38.6602 16.1215 39.3273 15.4544 40.1507 15.4537H56.4294C57.2528 15.4544 57.9199 16.1215 57.9206 16.9449V23.4792ZM12.9779 40.1815V28.1805L12.9783 28.1805C12.979 27.3571 13.6462 26.69 14.4695 26.6893H82.111C82.9343 26.69 83.6014 27.3571 83.6021 28.1805V40.1528C49.7557 57.9551 18.2489 42.9582 12.9779 40.1815ZM53.1062 71.6318C53.1062 72.1743 53.1463 72.706 53.1879 73.2369L14.4699 73.2364C13.6466 73.2357 12.9795 72.5686 12.9788 71.7452V43.7744C24.2768 49.1035 36.604 51.8923 49.0944 51.9438C61.0766 51.9631 72.8984 49.1664 83.603 43.7786V53.1382C78.4252 50.4268 72.3459 50.0163 66.8513 52.0075C61.356 53.9987 56.9505 58.2077 54.7113 63.6064H17.7941C16.9077 63.6064 16.189 64.3251 16.189 65.2115V70.0267C16.189 70.9131 16.9077 71.6318 17.7941 71.6318H53.1062ZM19.3984 66.8166H53.6883C53.5629 67.3447 53.464 67.8792 53.3787 68.4216H19.3984V66.8166ZM86.4564 59.1471C89.7674 62.4584 91.6277 66.9492 91.6277 71.6318C91.6218 76.313 89.7603 80.8001 86.4505 84.1107C83.14 87.4205 78.653 89.2822 73.9716 89.2879C69.2888 89.2879 64.7982 87.4278 61.4869 84.1166C58.1759 80.8053 56.3156 76.3147 56.3156 71.6318C56.3156 66.949 58.1757 62.4584 61.4869 59.1471C64.7982 55.8361 69.2888 53.9758 73.9716 53.9758C78.6545 53.9758 83.1451 55.8359 86.4564 59.1471ZM72.3666 58.7911C72.3666 57.9047 73.0853 57.186 73.9716 57.186C77.8017 57.1904 81.4732 58.7137 84.1819 61.4216C86.8898 64.1301 88.4132 67.8018 88.4175 71.6318C88.4175 72.5182 87.6988 73.2369 86.8124 73.2369C85.926 73.2369 85.2073 72.5182 85.2073 71.6318C85.2037 68.6531 84.0184 65.7975 81.9126 63.6909C79.8059 61.5849 76.9503 60.3998 73.9716 60.3962C73.0853 60.3962 72.3666 59.6775 72.3666 58.7911Z" fill="url(#paint0_linear_22_1017)"/>
<defs>
<linearGradient id="paint0_linear_22_1017" x1="9.12611" y1="46.0755" x2="110.618" y2="67.9516" gradientUnits="userSpaceOnUse">
<stop offset="0.0508802" stop-color="#4568DC"/>
<stop offset="1" stop-color="#B06AB3"/>
</linearGradient>
</defs>
</svg>
