<svg width="108" height="108" viewBox="0 0 108 108" fill="none" xmlns="http://www.w3.org/2000/svg">
<path fill-rule="evenodd" clip-rule="evenodd" d="M58.4826 33.6033L43.1101 18.2301L36.6373 24.7029L36.6254 24.7147L13.8926 47.4475L20.4551 54.01L43.1099 31.2654L58.483 46.6385L70.7991 34.3224C71.2487 33.8728 71.8777 33.8728 72.3273 34.3224C72.777 34.772 72.777 35.401 72.3273 35.8506L58.4825 49.6942L43.1099 34.3217L20.4551 57.0671L10.8361 47.4475L35.109 23.1746L35.1209 23.1629L43.1102 15.1736L58.4833 30.5468L73.2262 15.893L66.4838 9.15051H89.0486V28.0294C89.0486 28.659 88.599 29.108 87.97 29.108C87.3404 29.108 86.8914 28.6584 86.8914 28.0294V11.3081H71.6982L76.2829 15.8928L58.4826 33.6033ZM78.1706 29.6477C77.901 29.6477 77.6313 29.558 77.4514 29.2884C77.0017 28.8387 77.0017 28.2098 77.4514 27.7601L82.8456 22.3658L85.7228 25.243C86.1724 25.6926 86.1724 26.3216 85.7228 26.7712C85.2731 27.2208 84.6442 27.2208 84.1945 26.7712L82.8463 25.4229L78.9809 29.2883C78.71 29.5579 78.4404 29.6476 78.1707 29.6476L78.1706 29.6477ZM95.8809 99.0503C95.2513 99.0503 94.8023 98.6007 94.8023 97.9717V33.9631H77.5415V97.9717C77.5415 98.6013 77.0919 99.0503 76.4629 99.0503C75.8333 99.0503 75.3843 98.6007 75.3843 97.9717L75.3839 55.5387L58.1226 55.5393V97.7921C58.1226 98.3314 57.5833 98.7811 57.044 98.7811L57.0442 98.7806C56.4146 98.7806 55.9656 98.331 55.9656 97.702L55.9653 72.4398H38.615V97.7016C38.615 98.3312 38.1654 98.7808 37.5358 98.7808L37.536 98.7806C36.9064 98.7806 36.4574 98.331 36.4574 97.702V85.655H19.196V97.7014C19.196 98.331 18.7464 98.7806 18.1174 98.7806L18.1177 98.7806C17.4881 98.7806 17.0391 98.3309 17.0391 97.702L17.0385 83.4978H36.4574V70.2826H55.9652L55.965 53.3815H75.3839L75.3837 31.8055H96.9596V97.9717C96.9596 98.6007 96.5106 99.0503 95.881 99.0503H95.8809Z" fill="url(#paint0_linear_26_315)"/>
<defs>
<linearGradient id="paint0_linear_26_315" x1="10.2098" y1="45.5901" x2="110.02" y2="65.0757" gradientUnits="userSpaceOnUse">
<stop offset="0.0508802" stop-color="#4568DC"/>
<stop offset="1" stop-color="#B06AB3"/>
</linearGradient>
</defs>
</svg>
