<svg width="108" height="108" viewBox="0 0 108 108" fill="none" xmlns="http://www.w3.org/2000/svg">
<path fill-rule="evenodd" clip-rule="evenodd" d="M62.6916 48.9287C62.3861 49.1319 61.9782 49.3359 61.5711 49.3359L61.5711 49.3359C61.4691 49.3359 61.3674 49.3105 61.2656 49.2851L61.2655 49.2851C61.1638 49.2597 61.062 49.2343 60.96 49.2343C60.4506 49.0304 60.0434 48.4193 60.0434 47.8082V12.1554C60.0434 11.7475 60.145 11.238 60.4506 11.0341C60.7561 10.8309 61.164 10.627 61.5711 10.627C71.5535 10.627 80.8235 14.498 87.8523 21.5269C88.0556 21.8324 88.2595 22.2403 88.2595 22.6475C88.2595 23.0546 88.1579 23.4625 87.8523 23.768L62.6916 48.9287ZM84.5923 22.5451C78.6841 17.1463 71.1457 13.9886 63.0988 13.683V44.1406L84.5923 22.5451ZM81.3326 34.158C81.9444 33.5469 82.861 33.5469 83.4721 34.158L83.4706 34.1577C97.936 48.7245 97.936 72.2553 83.4706 86.7202C76.1363 93.953 66.6635 97.6201 57.1911 97.6201C47.7173 97.6201 38.1427 93.953 30.9099 86.7202C23.881 79.6915 20.01 70.3199 20.01 60.439C20.01 59.6247 20.7226 58.9113 21.5376 58.9113H56.4774L81.3326 34.158ZM33.0488 84.5813C46.2913 97.9255 67.8869 97.9255 81.231 84.5813L81.231 84.5816C94.1681 71.6447 94.576 50.8633 82.2499 37.5199L58.2097 61.5601C57.9042 61.7633 57.4963 61.9672 57.0892 61.9672H23.0662C23.4733 70.5237 26.9365 78.469 33.0488 84.5813ZM24.6958 27.8424C24.6958 27.8424 24.5942 27.8424 24.5942 27.944L24.4926 28.0456C17.4637 35.0745 13.5927 44.3444 13.5927 54.3268C13.5927 55.1418 14.3061 55.8545 15.1204 55.8545H50.7732C51.1804 55.8545 51.5882 55.6506 51.8938 55.4473C52.1993 55.1418 52.3009 54.7339 52.3009 54.3268C52.3009 53.9196 52.097 53.5118 51.8938 53.2062L26.6312 28.0455C26.1217 27.5361 25.3067 27.4344 24.6956 27.8416L24.6958 27.8424ZM16.6481 52.7993C16.9537 44.7524 20.1114 37.214 25.5102 31.3058L47.0038 52.7993H16.6481ZM55.8665 52.1884C55.6626 52.29 55.4594 52.29 55.2555 52.29C54.8476 52.29 54.4405 52.0861 54.1349 51.8836L28.9742 26.7228C28.771 26.4173 28.5671 26.0094 28.5671 25.6023C28.5671 25.1951 28.6687 24.7873 28.9742 24.4817C36.0029 17.4528 45.3745 13.5818 55.2554 13.5818C56.0697 13.5818 56.7831 14.2945 56.7831 15.1095V50.7623C56.7831 51.3734 56.4776 51.9845 55.8665 52.1884ZM32.2335 25.6009L53.727 47.0945V16.7388C45.68 17.0444 38.1416 20.2021 32.2335 25.6009Z" fill="url(#paint0_linear_26_158)"/>
<defs>
<linearGradient id="paint0_linear_26_158" x1="13.0056" y1="45.8884" x2="106.774" y2="63.6207" gradientUnits="userSpaceOnUse">
<stop offset="0.0508802" stop-color="#4568DC"/>
<stop offset="1" stop-color="#B06AB3"/>
</linearGradient>
</defs>
</svg>
