<svg width="108" height="108" viewBox="0 0 108 108" fill="none" xmlns="http://www.w3.org/2000/svg">
<path d="M37.8723 10C37.0624 9.99674 36.403 10.6508 36.3998 11.4608V14.3855H33.4638C32.6584 14.3888 32.0063 15.041 32.003 15.8463C32.0063 16.6516 32.6584 17.3038 33.4638 17.307H36.3998V20.2633C36.3965 21.0778 37.0578 21.7392 37.8723 21.7359C38.6822 21.7326 39.3363 21.0733 39.3331 20.2633V17.307H42.2664C43.0763 17.3103 43.7356 16.6562 43.7389 15.8463C43.7356 15.0364 43.0763 14.3822 42.2664 14.3855H39.3331V11.4608C39.3298 10.6554 38.6776 10.0033 37.8723 10ZM81.8701 17.3189C81.4812 17.3169 81.1067 17.4695 80.8304 17.7425L76.4338 22.1483C75.8648 22.7206 75.8648 23.6445 76.4338 24.2167C77.0061 24.7857 77.9299 24.7857 78.5022 24.2167L80.3983 22.3265V24.6495C80.3983 32.9631 76.4345 37.8357 70.5449 40.9542C64.6553 44.0734 56.7951 45.1879 49.6095 45.1879C48.7996 45.1847 48.1402 45.8388 48.137 46.6487C48.1337 47.4632 48.795 48.1245 49.6095 48.1212C57.0894 48.1212 65.3439 47.035 71.921 43.5523C78.4982 40.0696 83.3327 33.9398 83.3327 24.6484V22.3193L85.2263 24.2154C85.7999 24.7916 86.7329 24.7916 87.3058 24.2154C87.8747 23.6431 87.8747 22.7193 87.3058 22.147L82.9117 17.7412C82.6354 17.4675 82.2609 17.3149 81.8719 17.3175L81.8701 17.3189ZM55.4855 24.6724C54.6802 24.6757 54.028 25.3279 54.0248 26.1332V27.6058H52.5522C51.7469 27.609 51.0947 28.2612 51.0915 29.0665C51.0882 29.8764 51.7423 30.5358 52.5522 30.5391H54.0248V31.9998C54.0215 32.8098 54.6756 33.4691 55.4855 33.4724C56.3 33.4757 56.9613 32.8144 56.9581 31.9998V30.5391H58.4188C59.2333 30.5424 59.894 29.881 59.8914 29.0665C59.8881 28.2566 59.2288 27.6025 58.4188 27.6058H56.9581V26.1332C56.9548 25.3233 56.2955 24.6692 55.4855 24.6724ZM26.1374 30.5161C23.7246 30.5161 21.7408 32.5 21.7408 34.9134C21.7408 37.3263 23.7247 39.3192 26.1374 39.3192C28.5501 39.3192 30.5315 37.3261 30.5315 34.9134C30.5315 32.5005 28.5503 30.5161 26.1374 30.5161ZM27.61 34.9134C27.61 35.7417 26.965 36.386 26.1374 36.386C25.3105 36.386 24.6767 35.7417 24.6767 34.9134C24.6767 34.1113 25.2712 33.4906 26.0988 33.4526C26.9644 33.4526 27.61 34.0858 27.61 34.9134ZM96.5274 97.9998C97.342 98.003 98.0026 97.3417 98 96.5272L97.9993 42.2525C97.9993 39.8403 96.0174 37.8467 93.6053 37.8467H90.672C88.2598 37.8467 86.2635 39.8398 86.2635 42.2525V95.0672H83.3302L83.3308 51.0558C83.3308 48.6436 81.3489 46.65 78.9367 46.65H76.0007C73.5886 46.65 71.6067 48.6431 71.6067 51.0558V95.0672H68.6734V59.8591C68.6734 57.4469 66.677 55.4533 64.2649 55.4533H61.3316C58.9194 55.4533 56.9375 57.4464 56.9375 59.8591V63.0988C53.4961 59.5861 48.8324 57.3422 43.7383 56.9774V46.6507C43.7357 45.8401 43.0763 45.1866 42.2658 45.1899C32.2362 45.1899 22.7769 49.855 16.6723 57.8142C10.5667 65.7734 8.50229 76.1214 11.0983 85.8131C11.3066 86.5968 12.1113 87.0604 12.8944 86.8502L17.1909 85.6985C18.4795 89.6258 20.6703 93.208 23.6016 96.1399C24.1751 96.7155 25.1082 96.7155 25.681 96.1399L28.8291 92.9886C32.632 96.2839 37.4298 97.9961 42.2693 98L96.5274 97.9998ZM90.6719 40.78H93.6052C94.4426 40.78 95.066 41.4138 95.066 42.2526V95.0673H89.1967V42.2526C89.1967 41.4138 89.8345 40.78 90.6719 40.78ZM40.8058 48.1762V76.3343L13.5798 83.6243C11.7981 75.252 13.7618 66.4284 19.0025 59.5963C24.2419 52.7659 32.2625 48.6225 40.8061 48.1753L40.8058 48.1762ZM76.0004 49.5826H78.9364C79.7738 49.5826 80.3971 50.2164 80.3971 51.0551V95.0666H74.5278L74.5285 51.0551C74.5285 50.2164 75.1629 49.5826 76.001 49.5826H76.0004ZM61.3319 58.3852H64.2652C65.1026 58.3852 65.7377 59.019 65.7377 59.8578L65.7371 95.0659H59.8711V88.0161C62.6584 83.3588 63.5758 77.6564 62.0999 72.1467C61.5958 70.2648 60.8382 68.503 59.8711 66.8929V59.8574C59.8711 59.0187 60.4945 58.3849 61.3319 58.3849L61.3319 58.3852ZM43.7388 59.9206C51.0851 60.5315 57.3282 65.6773 59.2636 72.9031C61.3273 80.6063 57.9731 88.7182 51.0687 92.7055C44.5911 96.4461 36.5358 95.6729 30.9094 90.907L43.275 78.5321C43.5637 78.2617 43.7392 77.8773 43.7392 77.4609L43.7388 59.9206ZM37.351 80.2996L24.6705 92.998C22.642 90.6822 21.0221 87.8588 20.0328 84.9431L37.351 80.2996ZM56.9388 91.8182V95.0664H52.8426C54.3688 94.1491 55.7346 93.0505 56.9388 91.8182Z" fill="url(#paint0_linear_22_968)"/>
<defs>
<linearGradient id="paint0_linear_22_968" x1="9.35998" y1="45.6695" x2="111.01" y2="66.3846" gradientUnits="userSpaceOnUse">
<stop offset="0.0508802" stop-color="#4568DC"/>
<stop offset="1" stop-color="#B06AB3"/>
</linearGradient>
</defs>
</svg>
