<svg width="99" height="116" viewBox="0 0 99 116" fill="none" xmlns="http://www.w3.org/2000/svg">
<path d="M54.0471 57.8239C55.1865 57.8239 56.041 58.8208 56.041 59.8178C56.041 60.5299 55.6137 61.242 55.044 61.3844V66.0844L51.7683 69.645V76.1965C51.7683 76.7662 51.1986 77.3359 50.6289 77.3359C50.0592 77.3359 49.4895 76.7662 49.4895 76.1965V69.2177C49.4895 69.0753 49.4895 69.0753 49.4895 68.9329C49.4895 68.9329 49.4895 68.9329 49.632 68.7905L52.6228 65.7996V61.8117C52.0531 61.3844 51.6259 60.8148 51.6259 60.2451C52.0531 58.6784 53.0501 57.8239 54.0471 57.8239ZM43.2229 0C38.3805 1.70908 33.6805 4.2727 29.8351 7.69086C25.7048 11.3939 22.2867 15.9514 20.1503 21.0786C18.7261 24.3544 17.8715 27.7725 17.4443 31.1907C16.4473 40.7331 20.2927 49.136 27.5563 55.4027C28.6957 56.3996 29.6927 57.2542 30.6896 58.2511C31.4018 59.1057 32.1139 59.6754 32.3987 60.8147C32.3987 60.8147 32.3987 60.9572 32.5412 60.9572C32.1139 61.5269 31.6866 62.0966 31.2593 62.3814C31.2593 61.9541 31.1169 61.5269 30.9745 61.242C30.6896 60.3875 30.12 59.8178 29.5503 59.2481C28.5533 58.2511 27.5563 57.3966 26.417 56.542C18.7261 49.8482 14.7382 41.1603 15.7352 30.9059C16.1625 27.2028 17.1594 23.7847 18.4412 20.3665C22.1443 12.5332 26.9866 6.97874 34.5351 2.70604C24.423 5.98178 8.61403 16.0938 5.90799 30.1937C5.76557 29.9089 5.3383 29.1968 5.05345 28.7695C1.0656 37.5997 -0.785905 51.5572 3.62922 58.6784C2.9171 58.3936 2.34741 58.1087 2.20498 57.6814C3.34437 62.9511 5.19588 72.2086 13.0292 72.0662C11.1777 72.4935 9.0413 72.4935 7.75949 72.2086C9.611 75.6268 12.7443 80.3267 17.3019 80.0419C16.5897 80.6116 15.1655 81.0389 14.311 81.1813C15.7352 82.7479 18.4412 86.0237 22.8564 85.454C22.2867 86.0237 21.4321 86.3085 20.1503 86.4509C22.1443 88.0176 24.2806 89.4418 26.7018 90.5812C26.9866 91.2933 27.4139 92.0054 27.6988 92.7176C23.9958 91.0085 20.5776 88.5873 17.4443 85.8812C17.8715 85.8812 18.1564 85.8812 18.4412 85.7388C15.0231 84.457 13.4564 82.0358 11.8898 80.3267C12.317 80.3267 12.6019 80.3267 12.8867 80.1843C9.32615 78.4752 6.90495 73.6329 5.3383 70.642C5.76557 70.7844 6.47768 70.7844 6.76253 70.642C2.63225 66.6541 1.20802 60.2451 0.353482 54.9754C0.638328 55.1178 0.780752 55.2602 0.923175 55.2602C-0.785905 47.5694 -0.501058 37.3149 5.05345 25.921C5.19587 26.2059 5.3383 26.3483 5.62314 26.4907C10.8928 11.3939 26.8442 1.28181 43.2229 0ZM64.3016 107.387C63.447 107.957 62.7349 108.527 62.45 109.524C61.1682 110.236 60.3137 110.663 58.4622 110.948C60.1713 111.233 61.8804 111.09 63.5894 110.663C63.5894 109.524 63.8743 108.242 64.3016 107.387ZM68.2894 102.545C68.2894 103.114 68.2894 103.827 68.2894 104.111C67.7197 104.539 66.7227 104.966 65.7258 105.108C67.4349 105.393 69.1439 105.251 70.5682 104.539C69.5712 104.111 69.0015 103.684 68.2894 102.545ZM64.7288 106.533C67.4349 107.387 70.5682 107.387 73.5591 105.108C70.9954 103.684 68.8591 101.548 67.4349 98.9842L68.7167 97.8448C70.1409 100.978 72.847 103.257 76.2651 104.681C74.1288 107.387 70.5682 108.811 67.5773 108.669C66.4379 109.951 66.1531 112.23 67.15 113.654C61.5955 114.366 58.3198 115.22 54.6168 112.23L54.9016 110.52C56.3258 111.517 57.1804 112.23 58.8895 112.514C60.0289 112.657 61.1682 112.657 62.3076 112.514C63.3046 112.372 64.0167 112.23 65.0137 112.23C64.8712 110.805 65.1561 109.096 66.1531 108.099C65.5834 107.387 65.0137 107.102 64.7288 106.533ZM34.3927 107.387C35.2472 107.957 35.9593 108.527 36.2442 109.524C37.526 110.236 38.3805 110.663 40.232 110.948C38.5229 111.233 36.8139 111.09 35.1048 110.663C35.1048 109.524 34.8199 108.242 34.3927 107.387ZM30.4048 102.545C30.4048 103.114 30.4048 103.827 30.4048 104.111C30.9745 104.539 31.9715 104.966 32.9684 105.108C31.2593 105.393 29.5503 105.251 28.126 104.539C29.123 104.111 29.6927 103.684 30.4048 102.545ZM33.9654 106.533C31.2593 107.387 28.126 107.387 25.1351 105.108C27.6988 103.684 29.8351 101.548 31.2593 98.9842L29.9775 97.8448C28.5533 100.978 25.8473 103.257 22.4291 104.681C24.5654 107.387 28.126 108.811 31.1169 108.669C32.2563 109.951 32.5411 112.23 31.5442 113.654C37.0987 114.366 40.3744 115.22 44.0774 112.23L43.7926 110.52C42.3684 111.517 41.5138 112.23 39.8047 112.514C38.6654 112.657 37.526 112.657 36.3866 112.514C35.3896 112.372 34.6775 112.23 33.6805 112.23C33.823 110.805 33.5381 109.096 32.5412 108.099C33.2533 107.387 33.6805 107.102 33.9654 106.533ZM66.1531 60.9572C66.5803 61.5269 67.0076 62.0966 67.4349 62.3814C67.4349 61.9541 67.5773 61.5269 67.7197 61.242C68.0046 60.3875 68.5742 59.8178 69.1439 59.2481C70.1409 58.2511 71.1379 57.3966 72.2773 56.542C79.9681 49.8482 83.956 41.1603 82.959 30.9059C82.5317 27.2028 81.5348 23.7847 80.253 20.3665C76.55 12.3908 71.7076 6.83632 64.1591 2.70604C74.2712 5.98178 90.2226 15.9514 92.9286 30.0513C93.0711 29.7665 93.4983 29.0544 93.7832 28.6271C97.771 37.4573 99.4801 51.5572 95.2074 58.536C95.9195 58.2511 96.4892 57.9663 96.6316 57.539C95.4923 62.8087 93.6408 72.0662 85.8075 71.9238C87.659 72.351 89.7953 72.351 91.0771 72.0662C89.2256 75.4844 86.0923 80.1843 81.5348 79.8995C82.2469 80.4692 83.6711 80.8964 84.5257 81.0389C83.1014 82.6055 80.3954 85.8812 75.9803 85.3116C76.55 85.8812 77.4045 86.1661 78.6863 86.3085C76.6924 87.8752 74.556 89.2994 72.1348 90.4388C71.85 91.1509 71.4227 91.863 71.1379 92.5751C74.8409 90.8661 78.259 88.4449 81.3923 85.7388C80.9651 85.7388 80.6802 85.7388 80.3954 85.5964C83.8135 84.3146 85.3802 81.8934 86.9469 80.1843C86.5196 80.1843 86.2347 80.1843 85.9499 80.0419C89.5105 78.3328 91.9317 73.4904 93.4983 70.4995C93.0711 70.642 92.3589 70.642 92.0741 70.4995C96.2044 66.5117 97.6286 60.1026 98.4832 54.833C98.1983 54.9754 98.0559 55.1178 97.9135 55.1178C99.6225 47.427 99.3377 37.1725 93.7832 25.7786C93.6408 26.0635 93.4983 26.2059 93.2135 26.3483C87.9438 11.3939 71.9924 1.28181 55.4713 0C60.3137 1.70908 65.0137 4.2727 68.8591 7.69086C72.9894 11.3939 76.4075 15.9514 78.5439 21.0786C79.9681 24.3544 80.8227 27.7725 81.2499 31.1907C82.2469 40.7331 78.4015 49.136 71.1379 55.4027C69.9985 56.3996 69.0015 57.2542 68.0046 58.2511C67.2924 59.1057 66.7227 59.8178 66.1531 60.9572C66.2955 60.8148 66.2955 60.8148 66.1531 60.9572ZM47.638 49.7057C46.0714 49.136 45.5017 47.5694 46.2138 45.7179C46.2138 46.9997 46.6411 47.8542 47.638 48.2815C48.635 47.5694 48.9198 46.7148 48.635 45.433C49.3471 47.2845 49.0623 49.136 47.638 49.7057ZM59.3167 42.1573C58.4622 41.73 57.7501 41.5876 56.8955 41.5876C56.4683 41.5876 56.041 41.3028 56.1834 40.4482C55.3289 42.2997 55.044 43.4391 52.6228 42.8694C51.1986 42.5846 50.6289 43.724 50.9138 44.8633C51.0562 45.5755 51.341 46.5724 50.6289 47.2845C50.3441 46.1451 49.6319 45.7179 49.0623 45.2906C50.3441 46.9997 49.7744 48.1391 49.4895 48.7088C52.338 48.1391 52.338 50.4178 51.9107 51.5572C52.6228 51.5572 53.335 51.6997 53.7622 51.6997C53.0501 49.4209 52.4804 47.1421 52.338 44.7209C52.338 44.2936 52.338 44.1512 52.6228 44.2936C54.1895 44.5785 55.7562 44.2936 56.7531 42.8694C58.3198 42.727 59.6016 43.2967 60.8834 44.1512C61.1682 41.5876 61.3107 39.1664 58.1773 38.1694C57.7501 36.7452 56.6107 36.1755 55.044 36.3179C53.0501 33.1846 45.7865 36.4604 42.9381 34.4664C41.9411 33.7543 41.6562 32.6149 41.5138 31.4755C40.5169 32.4725 39.8047 33.0422 39.3775 34.4664C38.6654 36.3179 39.0926 38.5967 40.3744 40.3058C41.229 41.4452 42.3684 42.1573 43.6502 42.4421C43.5077 42.5846 43.3653 42.727 43.3653 42.8694C41.7987 45.433 41.9411 49.2785 41.9411 52.2694C42.3684 52.1269 42.9381 52.1269 43.3653 51.9845C42.9381 50.5603 43.3653 48.9936 45.3592 48.8512C45.0744 48.2815 44.6471 47.2845 45.7865 45.433C45.0744 45.7179 44.3623 46.43 44.2199 47.427C43.6502 46.5724 43.6502 45.8603 43.935 45.1482C44.0774 44.7209 44.2199 44.4361 44.3623 44.1512V44.0088C45.7865 41.3028 50.6289 43.0118 51.9107 38.8816C51.4835 39.4513 50.9138 39.8785 50.4865 40.1634C49.6319 40.5906 49.0623 38.8816 47.9229 38.8816C48.3501 39.1664 48.4926 39.7361 48.4926 40.3058C48.3501 40.8755 48.0653 41.0179 47.638 40.5906C47.2108 40.1634 46.9259 39.3088 46.2138 39.1664C46.6411 39.5937 46.6411 40.1634 46.4986 40.5906C46.3562 41.1603 45.9289 41.4452 45.5017 40.8755C45.2168 40.5906 45.0744 40.0209 44.6471 39.7361C44.7896 40.4482 44.0774 41.1603 43.2229 40.7331C41.9411 40.1634 41.229 39.3088 40.6593 38.1694C40.232 36.8876 40.232 35.6058 40.8017 34.4664C40.8017 34.4664 40.8017 34.4664 40.8017 34.324C43.3653 39.024 52.6228 34.4664 53.7622 37.4573L53.9046 38.027H54.4743C55.4713 37.8846 56.4683 37.8846 56.6107 39.1664V39.7361L57.038 39.8785C58.6046 39.8785 59.3167 40.8755 59.3167 42.1573ZM44.6471 51.8421C44.932 51.2724 45.3592 50.9875 45.6441 50.7027C45.5017 51.13 45.3592 51.4148 45.2168 51.8421C44.932 51.8421 44.932 51.8421 44.6471 51.8421ZM50.3441 51.6997C50.2016 51.2724 49.7744 50.7027 49.3471 50.2754C50.0592 50.4179 50.7713 50.8451 51.1986 51.6997C50.9138 51.6997 50.4865 51.6997 50.3441 51.6997ZM46.0714 51.6997C46.0714 51.4148 46.2138 51.13 46.2138 50.8451C46.2138 51.13 46.2138 51.4148 46.3562 51.5572L46.0714 51.6997ZM48.9198 51.6997C48.9198 51.4148 48.7774 50.9875 48.7774 50.5603C49.0623 50.9875 49.2047 51.2724 49.3471 51.6997H48.9198ZM14.5958 36.1755C14.311 45.0058 18.014 52.4118 25.7048 59.5329C27.2715 61.242 27.4139 63.2359 27.9836 64.945C28.2684 64.8026 28.5533 64.6602 28.8381 64.3753C28.6957 63.5208 28.6957 62.9511 28.5533 62.3814C28.9806 62.6663 29.2654 63.2359 29.5503 63.9481C29.8351 63.8056 29.9775 63.5208 30.2624 63.3784C30.2624 63.0935 30.12 62.8087 30.12 62.5238C30.12 62.239 29.9775 61.8117 29.8351 61.5269C29.2654 60.1026 26.8442 58.2511 25.7048 57.3966C19.1534 51.9845 15.0231 44.5785 14.5958 36.1755ZM14.8807 49.4209C5.62315 41.1603 7.90192 26.6332 15.0231 20.6514C14.1685 24.0695 14.0261 27.4877 14.4534 30.9059C14.8807 27.0604 15.8776 23.4998 17.3019 19.9393C19.0109 15.809 21.5746 11.8211 24.8503 8.26055C17.8715 12.6757 10.608 19.512 7.90192 27.2029C5.76557 34.1816 6.76253 44.4361 14.8807 49.4209ZM4.62618 34.4664C0.638328 47.2845 1.92014 63.0935 14.1685 59.6754C6.62011 59.9602 3.91406 55.2602 4.62618 44.7209C6.47768 49.2785 10.608 51.6997 14.311 52.9815C8.47161 48.8512 4.91103 44.1512 4.62618 34.4664ZM4.48376 61.3844C6.33526 70.9268 12.6019 71.3541 16.3049 67.9359C12.0322 70.2147 9.0413 68.2208 7.61707 64.945C11.1777 65.2299 12.8867 64.2329 14.5958 62.8087C11.6049 63.6632 8.32919 63.8056 4.48376 61.3844ZM10.4655 74.0601C14.8807 80.8964 19.5806 77.6207 20.72 75.1995C18.7261 76.9086 15.7352 77.1934 14.1685 75.3419C16.02 74.4874 17.4443 73.0631 18.1564 71.4965C15.8776 73.348 13.314 74.0601 10.4655 74.0601ZM22.4291 76.9086C21.1473 79.4722 19.2958 81.0389 16.8746 81.751C19.1534 84.3146 22.8564 84.7419 24.2806 82.7479C24.2806 82.3207 24.1382 82.0358 24.1382 81.6086C23.1412 82.7479 21.717 83.0328 20.1503 82.0358C21.4321 80.4692 22.1442 78.9025 22.4291 76.9086ZM25.5624 87.4479C25.42 86.8782 25.2776 86.3085 25.1351 86.0237C24.5654 86.7358 23.9958 87.0206 23.2836 87.1631C24.2806 87.7327 25.1351 87.7327 25.5624 87.4479ZM15.5928 52.2694C14.0261 60.9572 18.2988 59.9602 20.8624 59.6754C18.4412 59.2481 16.4473 58.2511 16.5897 55.6875C17.8716 56.5421 19.5806 56.8269 20.8624 56.8269C17.7291 55.5451 16.3049 53.1239 15.5928 52.2694ZM15.7352 60.9572C15.5928 68.648 20.2927 66.7965 22.0018 65.0874C19.7231 65.942 17.8716 65.5147 17.7291 63.3784C19.5806 63.5208 20.8624 62.6663 21.717 61.9541C18.014 62.9511 16.5897 61.6693 15.7352 60.9572ZM17.5867 68.648C19.7231 74.0601 22.1442 72.6359 23.5685 70.642C23.5685 70.3571 23.5685 70.2147 23.5685 69.9298C22.1442 71.2117 20.72 71.3541 20.1503 70.0723C21.8594 69.2177 22.5715 67.9359 22.8564 66.7965C20.2927 69.2177 18.4412 68.7905 17.5867 68.648ZM20.8624 74.0601C22.0018 75.6268 22.8564 76.4813 23.5685 76.9086C23.4261 75.7692 23.4261 74.6298 23.4261 73.4904C22.4291 74.2025 21.4321 74.0601 20.8624 74.0601ZM22.0018 59.6754C22.1443 65.3723 24.8503 64.2329 26.2745 63.6632C24.8503 63.8056 23.2836 63.5208 23.2836 61.8117C24.2806 62.0966 24.9927 61.9541 25.8473 61.8117C23.7109 61.3844 22.4291 60.1026 22.0018 59.6754ZM22.9988 65.2299C23.2836 66.2268 23.5685 66.7965 23.8533 67.3662V66.9389L24.5654 66.6541C24.5654 66.5117 24.5654 66.5117 24.423 66.3693C25.7048 66.0844 26.1321 65.3723 26.5594 64.8026C24.5654 65.942 23.4261 65.5147 22.9988 65.2299ZM12.317 27.4877C10.0383 31.7604 9.611 40.4482 14.7382 46.5724C13.4564 45.0058 11.7473 39.3088 12.4595 34.6089C11.8898 32.7574 11.7473 30.1937 12.317 27.4877ZM6.62011 51.6997C7.47465 55.5451 9.46857 57.8239 13.1716 57.9663C11.7473 57.2542 10.4655 56.542 9.75342 55.5451C10.7504 55.6875 11.7473 55.6875 12.8867 55.2602C10.3231 54.833 8.32919 53.4087 6.62011 51.6997ZM11.7473 66.5117C12.7443 67.3662 13.8837 67.5086 15.1655 66.9389C14.7382 66.9389 14.311 66.7965 14.0261 66.5117C14.311 66.2268 14.4534 65.7996 14.4534 65.5147C13.7413 66.2268 12.6019 66.5117 11.7473 66.5117ZM16.8746 75.0571C17.8715 75.1995 18.8685 75.3419 19.7231 74.345C19.2958 74.4874 19.0109 74.4874 18.7261 74.345C18.8685 73.9177 18.8685 73.4904 18.7261 73.0632C18.4412 73.9177 17.7291 74.6298 16.8746 75.0571ZM22.1442 81.0389C22.8564 80.8964 23.5685 80.6116 23.8533 80.0419C23.8533 79.8995 23.8533 79.757 23.8533 79.4722C23.7109 79.4722 23.5685 79.6146 23.4261 79.4722C23.4261 79.1874 23.1412 78.6177 22.8564 78.3328C22.9988 79.4722 22.7139 80.3267 22.1442 81.0389ZM84.2408 36.1755C84.5257 45.0058 80.8227 52.4118 73.1318 59.5329C71.5651 61.242 71.4227 63.2359 70.853 64.945C70.5682 64.8026 70.2833 64.6602 69.9985 64.3753C70.1409 63.5208 70.1409 62.9511 70.2833 62.3814C69.8561 62.6663 69.5712 63.2359 69.2864 63.9481C69.0015 63.8056 68.8591 63.5208 68.5742 63.3784C68.5742 63.0935 68.7167 62.8087 68.7167 62.5238C68.7167 62.239 68.8591 61.8117 69.0015 61.5269C69.5712 60.1026 71.9924 58.2511 73.1318 57.3966C79.6833 51.9845 83.5287 44.5785 84.2408 36.1755ZM83.6711 49.4209C93.0711 41.0179 90.6499 26.4907 83.5287 20.509C84.3832 23.9271 84.5257 27.3453 84.0984 30.7634C83.6711 26.918 82.6742 23.3574 81.2499 19.7968C79.5408 15.6666 76.9772 11.6787 73.7015 8.11813C80.6802 12.5332 87.9438 19.3696 90.6499 27.0604C93.0711 34.1816 91.9317 44.4361 83.6711 49.4209ZM94.068 34.4664C98.0559 47.2845 96.7741 63.0935 84.5257 59.6754C92.0741 59.9602 94.7801 55.2602 94.068 44.7209C92.2165 49.2785 88.0863 51.6997 84.3832 52.9815C90.2226 48.8512 93.7832 44.1512 94.068 34.4664ZM94.2104 61.3844C92.3589 70.9268 86.0923 71.3541 82.3893 67.9359C86.662 70.2147 89.6529 68.2208 91.0771 64.945C87.5165 65.2299 85.8075 64.2329 84.0984 62.8087C87.2317 63.6632 90.5074 63.8056 94.2104 61.3844ZM88.2287 74.0601C83.8135 80.8964 79.1136 77.6207 77.9742 75.1995C79.9681 76.9086 82.959 77.1934 84.5257 75.3419C82.6742 74.4874 81.2499 73.0631 80.5378 71.4965C82.959 73.348 85.5226 74.0601 88.2287 74.0601ZM76.4075 76.9086C77.6893 79.3298 79.5408 81.0389 81.962 81.6086C79.6833 84.1722 75.9803 84.5994 74.556 82.6055C74.556 82.1782 74.6984 81.8934 74.6984 81.4661C75.6954 82.6055 77.1197 82.8904 78.6863 81.8934C77.4045 80.4692 76.6924 78.9025 76.4075 76.9086ZM73.2742 87.4479C73.4166 86.8782 73.5591 86.3085 73.7015 86.0237C74.2712 86.7358 74.8409 87.0206 75.553 87.1631C74.4136 87.7327 73.7015 87.7327 73.2742 87.4479ZM83.1014 52.2694C84.6681 60.9572 80.3954 59.9602 77.8318 59.6754C80.253 59.2481 82.2469 58.2511 82.1045 55.6875C80.9651 56.6845 79.1136 56.8269 77.8318 56.8269C80.9651 55.5451 82.3893 53.1239 83.1014 52.2694ZM82.959 60.9572C83.1014 68.648 78.4015 66.7965 76.6924 65.0874C78.9712 65.942 80.8227 65.5147 80.9651 63.3784C79.1136 63.5208 77.8318 62.6663 76.9772 61.9541C80.5378 62.9511 82.2469 61.6693 82.959 60.9572ZM81.1075 68.648C78.9712 74.0601 76.55 72.6359 75.1257 70.642C75.1257 70.3571 75.1257 70.2147 75.1257 69.9298C76.55 71.2117 77.9742 71.3541 78.5439 70.0723C76.8348 69.2177 76.1227 67.9359 75.8378 66.7965C78.259 69.2177 80.253 68.7905 81.1075 68.648ZM77.8318 74.0601C76.6924 75.6268 75.8378 76.4813 75.1257 76.9086C75.2682 75.7692 75.2682 74.6298 75.2682 73.4904C76.2651 74.2025 77.2621 74.0601 77.8318 74.0601ZM76.8348 59.6754C76.6924 65.3723 73.9863 64.2329 72.5621 63.6632C73.9863 63.8056 75.553 63.5208 75.553 61.8117C74.556 62.0966 73.8439 61.9541 72.9894 61.8117C75.1257 61.3844 76.2651 60.1026 76.8348 59.6754ZM75.8378 65.2299C75.553 66.2268 75.2681 66.7965 74.9833 67.3662V66.9389L74.1288 66.6541C74.1288 66.5117 74.1288 66.5117 74.2712 66.3693C72.9894 66.0844 72.5621 65.3723 72.1348 64.8026C74.1288 65.942 75.2682 65.5147 75.8378 65.2299ZM86.2347 27.4877C88.5135 31.7604 88.9408 40.4482 83.8135 46.5724C85.0954 45.0058 86.8044 39.3088 86.0923 34.6089C86.8044 32.7574 87.0893 30.1937 86.2347 27.4877ZM91.9317 51.6997C91.0771 55.5451 89.0832 57.8239 85.3802 57.9663C86.8044 57.2542 88.0862 56.542 88.7984 55.5451C87.8014 55.6875 86.8044 55.6875 85.665 55.2602C88.5135 54.833 90.5074 53.4087 91.9317 51.6997ZM87.0893 66.5117C86.0923 67.3662 84.9529 67.5086 83.6711 66.9389C84.0984 66.9389 84.5257 66.7965 84.8105 66.5117C84.5257 66.2268 84.3832 65.7996 84.3832 65.5147C85.0954 66.2268 86.0923 66.5117 87.0893 66.5117ZM81.962 75.0571C80.9651 75.1995 79.9681 75.3419 79.1136 74.345C79.5408 74.4874 79.8257 74.4874 80.1105 74.345C79.9681 73.9177 79.9681 73.4904 80.1105 73.0632C80.253 73.9177 80.9651 74.6298 81.962 75.0571ZM76.6924 81.0389C75.9803 80.8964 75.2681 80.6116 74.9833 80.0419C74.9833 79.8995 74.9833 79.757 74.9833 79.4722C75.1257 79.4722 75.2681 79.6146 75.4106 79.4722C75.4106 79.1874 75.6954 78.6177 75.9803 78.3328C75.6954 79.4722 75.9803 80.3267 76.6924 81.0389ZM49.4895 37.1725C51.341 38.1694 52.7653 37.3149 53.7622 37.8846C54.6168 38.3119 55.044 39.8785 53.9046 40.1634C53.9046 39.3088 53.1925 39.4513 52.7653 39.4513C52.338 39.4513 51.9107 39.024 51.9107 38.5967C51.9107 38.4543 51.9107 38.3119 52.0531 38.1694C51.1986 38.3119 50.2016 38.1694 49.4895 37.1725ZM41.7987 36.7452C41.6562 38.1694 42.2259 39.1664 43.3653 39.8785C43.0805 39.3088 42.9381 38.7391 42.7956 38.1694C44.7896 38.4543 46.9259 38.027 48.7774 37.1725C46.0714 37.8846 43.7926 37.5998 41.7987 36.7452ZM65.0137 85.5964C66.1531 86.1661 67.15 86.1661 68.2894 85.8812C69.4288 85.5964 70.2833 85.0267 70.9954 84.1722C71.9924 83.0328 72.2773 81.751 72.1348 80.4692C71.9924 79.4722 71.5651 78.4752 70.853 77.6207C71.1379 77.051 71.2803 76.4813 71.4227 75.9116C71.5651 74.7722 71.5651 73.7753 71.1379 72.7783C70.7106 71.7813 70.1409 71.0692 69.4288 70.2147C68.5743 69.5026 67.5773 69.0753 66.5803 68.7905C65.4409 68.648 64.444 68.7905 63.447 69.0753C62.7349 69.3601 62.0228 69.7874 61.5955 70.2147C60.5985 69.645 59.744 69.5026 58.747 69.645C57.4652 69.7874 56.1834 70.3571 55.3289 71.3541C54.6168 72.2086 54.1895 73.2056 54.0471 74.345C54.0471 75.4843 54.3319 76.4813 55.044 77.4783C55.3289 78.048 56.041 78.048 56.4683 77.7631C57.038 77.4783 57.038 76.7662 56.7531 76.3389C56.3258 75.7692 56.1834 75.0571 56.1834 74.6298C56.1834 73.9177 56.4683 73.348 56.8955 72.9207C57.4652 72.2086 58.1773 71.9238 58.8895 71.7813C59.3167 71.7813 59.8864 71.7813 60.3137 71.9238C60.0289 72.4935 59.744 73.2056 59.6016 73.6328C59.4592 74.2025 59.8864 74.7722 60.4561 74.9147C61.0258 75.0571 61.5955 74.6298 61.7379 74.0601C61.8804 73.348 62.1652 72.6359 62.5925 72.351C63.0197 71.7813 63.7319 71.3541 64.1591 71.0692C64.8712 70.7844 65.5834 70.7844 66.1531 70.9268C66.8652 71.0692 67.4349 71.3541 67.8621 71.7813C68.4318 72.2086 68.8591 72.9207 69.1439 73.348C69.4288 74.0601 69.4288 74.7722 69.2864 75.3419C69.1439 76.054 68.8591 76.7662 68.4318 77.1934C68.0046 77.6207 67.4349 78.1904 66.8652 78.3328C66.2955 78.4752 66.0106 79.1874 66.1531 79.757C66.2955 80.3267 67.0076 80.6116 67.5773 80.4692C68.4318 80.1843 69.0015 79.757 69.4288 79.1874C69.7136 79.6146 69.8561 80.0419 69.8561 80.4692C69.9985 81.3237 69.7136 81.8934 69.1439 82.6055C68.7167 83.1752 68.147 83.4601 67.5773 83.6025C66.8652 83.7449 66.2955 83.7449 65.7258 83.4601C65.1561 83.1752 64.444 83.4601 64.3016 84.0297C64.1591 84.8843 64.444 85.454 65.0137 85.5964ZM64.0167 87.7327C64.0167 88.16 64.0167 88.4449 64.0167 88.8721V89.2994L60.8834 90.7236L60.741 91.0085C60.5985 91.4358 60.4561 91.863 60.3137 92.2903C60.1713 92.7176 59.8864 93.1448 59.744 93.5721L59.4592 93.857L60.741 96.9903C60.4561 97.4175 60.0289 97.8448 59.744 98.1297C59.3167 98.5569 59.0319 98.8418 58.6046 99.1266L55.4713 97.8448L55.1865 98.1297C54.7592 98.2721 54.3319 98.5569 53.9046 98.6993C53.4774 98.8418 53.0501 98.9842 52.6228 99.1266L52.0531 99.269L50.6289 102.402H50.2016C49.9168 102.402 49.4895 102.402 49.0623 102.402C48.635 102.402 48.3501 102.402 47.9229 102.402H47.4956L46.0714 99.269L45.5017 99.1266C45.0744 98.9842 44.6471 98.8418 44.2199 98.6993C43.7926 98.5569 43.3653 98.2721 42.9381 98.1297L42.5108 97.8448L39.3775 99.1266C38.9502 98.8418 38.5229 98.4145 38.2381 98.1297C37.8108 97.7024 37.526 97.4175 37.2411 96.9903L38.5229 93.857L38.3805 93.5721C38.2381 93.1448 37.9532 92.7176 37.8108 92.2903C37.6684 91.863 37.526 91.4358 37.3835 91.0085L37.2411 90.4388L34.1078 89.0146V88.5873C34.1078 88.3024 34.1078 87.8752 34.1078 87.4479C34.1078 86.8782 33.5381 86.3085 32.9684 86.3085C32.3987 86.3085 31.829 86.8782 31.829 87.4479C31.829 87.8752 31.829 88.3024 31.829 88.7297C31.829 89.157 31.9715 89.5843 31.9715 90.0115L32.1139 90.5812L35.3896 92.0054C35.532 92.2903 35.6745 92.7176 35.8169 93.0024C35.9593 93.2873 36.1017 93.7145 36.2442 93.9994L34.8199 97.2751L35.2472 97.8448C35.8169 98.5569 36.2442 99.1266 36.8139 99.5539C37.3835 100.124 38.0957 100.693 38.5229 101.121L38.9502 101.548L42.3684 100.124C42.6532 100.266 43.0805 100.408 43.3653 100.551C43.6502 100.693 44.0774 100.836 44.3623 100.978L45.7865 104.254L46.3562 104.396C46.7835 104.396 47.2108 104.539 47.638 104.539C48.0653 104.539 48.4926 104.539 48.9198 104.539C49.3471 104.539 49.7744 104.539 50.2016 104.539C50.6289 104.539 51.0562 104.396 51.4835 104.396L52.0531 104.254L53.4774 100.978C53.7622 100.836 54.1895 100.693 54.4743 100.551C54.7592 100.408 55.1865 100.266 55.4713 100.124L58.747 101.548L59.3167 101.121C60.0289 100.551 60.5985 100.124 61.0258 99.5539C61.5955 98.9842 62.1652 98.2721 62.5925 97.8448L63.0197 97.4175L61.5955 93.9994C61.7379 93.7145 61.8804 93.2873 62.0228 93.0024C62.1652 92.7176 62.3076 92.2903 62.45 92.0054L65.7258 90.5812L65.8682 90.0115C65.8682 89.5843 66.0106 89.157 66.0106 88.7297C66.0106 88.3024 66.0106 87.8752 66.0106 87.4479C66.0106 86.8782 65.4409 86.3085 64.8712 86.3085C64.444 86.8782 64.0167 87.3055 64.0167 87.7327ZM34.6775 76.7662C36.3866 70.7844 32.1139 71.2117 30.6896 68.5056C31.9715 71.3541 28.8381 74.345 34.6775 76.7662ZM61.5955 78.3328C61.1682 78.9025 60.741 79.4722 60.4561 79.757C60.3137 80.0419 60.0289 80.3267 59.8864 80.4692C59.4592 80.1843 59.1743 80.0419 58.747 79.757C58.0349 79.4722 57.3228 79.1874 56.4683 79.0449C55.8986 78.9025 55.3289 79.3298 55.1865 79.8995C55.044 80.4692 55.4713 81.0389 56.041 81.1813C56.6107 81.3237 57.3228 81.4661 57.7501 81.751C58.0349 81.8934 58.1773 82.0358 58.4622 82.1782C56.6107 84.3146 54.3319 86.3085 51.9107 88.16C50.9138 89.0146 49.9168 89.5843 48.7774 90.2964C48.4926 90.1539 48.2077 89.8691 47.9229 89.7267C47.3532 89.4418 46.7835 89.4418 46.4986 90.0115C46.2138 90.5812 46.2138 91.1509 46.7835 91.4358C45.6441 92.1479 44.5047 92.7176 43.2229 93.1448C42.6532 93.4297 42.3684 93.9994 42.6532 94.5691C42.9381 95.1388 43.5077 95.4236 44.0774 95.1388C45.6441 94.4267 47.2108 93.7145 48.635 92.86C49.2047 93.1448 49.7744 93.5721 50.2016 93.857C51.4835 94.5691 52.6228 95.2812 54.0471 95.7085C54.6168 95.9933 55.3289 95.7085 55.4713 95.1388C55.7561 94.5691 55.4713 93.857 54.9016 93.7145C53.6198 93.1448 52.4804 92.5751 51.1986 92.0054C51.0562 91.863 50.7713 91.7206 50.6289 91.7206C51.4835 91.1509 52.1956 90.5812 53.0501 90.154C55.4713 88.3024 57.7501 86.0237 59.8864 83.7449C60.0289 83.8873 60.1713 84.1722 60.4561 84.3146C60.8834 84.8843 61.1682 85.454 61.3107 85.8812C61.4531 86.3085 62.1652 86.7358 62.7349 86.5934C63.3046 86.4509 63.5894 85.7388 63.447 85.1691C63.1622 84.457 62.7349 83.7449 62.3076 83.1752C62.0228 82.7479 61.7379 82.4631 61.4531 82.0358C61.7379 81.751 61.8804 81.4661 62.1652 81.1813C62.5925 80.6116 63.0197 80.0419 63.447 79.6146C63.7319 79.0449 63.7319 78.4752 63.1622 78.1904C62.7349 77.7631 62.0228 77.7631 61.5955 78.3328ZM46.9259 83.1752C49.4895 87.1631 46.3562 87.4479 46.0714 89.7267C44.3623 85.8812 46.6411 85.3116 46.9259 83.1752ZM37.8108 88.8721C41.9411 92.7176 42.9381 89.157 45.5017 89.2994C41.6562 86.4509 40.3744 89.0146 37.8108 88.8721ZM34.2502 84.8843C37.9532 89.7267 39.6623 86.3085 42.3684 86.8782C38.8078 82.8904 36.9563 85.454 34.2502 84.8843ZM41.9411 78.048C41.7987 80.4692 39.235 81.3237 41.5138 85.454C41.6562 83.0328 45.0744 82.3207 41.9411 78.048ZM39.9472 74.4874C39.6623 77.051 36.8139 77.7631 38.9502 82.3207C39.5199 79.757 43.0805 79.4722 39.9472 74.4874ZM31.5442 80.8964C34.6775 86.1661 36.8139 82.7479 39.5199 83.7449C36.2442 79.4722 34.1078 81.8934 31.5442 80.8964ZM29.2654 76.6237C31.5442 82.3207 34.2502 79.3298 36.6714 80.6116C34.1078 75.9116 31.6866 77.9055 29.2654 76.6237ZM37.0987 71.2116C36.9563 74.0601 34.1078 75.0571 36.8139 79.6146C36.8139 76.7662 40.8017 76.1965 37.0987 71.2116ZM44.7896 80.3267C44.5047 82.7479 41.7987 83.4601 43.935 87.7327C44.2199 85.1691 47.638 84.8843 44.7896 80.3267ZM45.0744 73.348V78.6177L51.0562 84.5994C51.4835 85.0267 52.1956 85.0267 52.4804 84.5994C52.9077 84.1722 52.9077 83.4601 52.4804 83.1752L47.2108 77.9055V68.2208L50.6289 64.8026V61.6693C51.1986 61.242 51.6259 60.6723 51.6259 60.1026C51.6259 58.9632 50.6289 58.1087 49.632 58.1087C48.635 58.1087 47.638 59.1057 47.638 60.1026C47.638 60.8147 48.0653 61.5269 48.635 61.6693V63.9481L45.2168 67.3662V70.4995L42.7956 68.0783V61.6693C43.3653 61.242 43.7926 60.6723 43.7926 60.1026C43.7926 58.9632 42.7956 58.1087 41.7987 58.1087C40.8017 58.1087 39.8047 59.1057 39.8047 60.1026C39.8047 60.8147 40.232 61.5269 40.8017 61.6693V68.9329L45.0744 73.348ZM54.0471 59.2481C53.6198 59.2481 53.335 59.5329 53.335 59.9602C53.335 60.3875 53.6198 60.6723 54.0471 60.6723C54.4743 60.6723 54.7592 60.3875 54.7592 59.9602C54.7592 59.5329 54.3319 59.2481 54.0471 59.2481ZM49.4895 59.2481C49.0623 59.2481 48.7774 59.5329 48.7774 59.9602C48.7774 60.3875 49.0623 60.6723 49.4895 60.6723C49.9168 60.6723 50.2016 60.3875 50.2016 59.9602C50.2016 59.5329 49.9168 59.2481 49.4895 59.2481ZM41.6562 59.2481C41.229 59.2481 40.9441 59.5329 40.9441 59.9602C40.9441 60.3875 41.229 60.6723 41.6562 60.6723C42.0835 60.6723 42.3684 60.3875 42.3684 59.9602C42.3684 59.5329 42.0835 59.2481 41.6562 59.2481Z" fill="#00598E"/>
<path d="M49.3474 115.079C68.8594 105.679 79.826 90.4396 76.8351 65.2307C69.9988 63.5216 65.8685 59.3913 65.2988 52.555C60.5989 50.5611 55.1868 49.4217 49.3474 49.4217C43.5081 49.4217 38.096 50.4187 33.396 52.555C32.6839 59.3913 28.6961 63.5216 21.8597 65.2307C18.8689 90.4396 29.8354 105.821 49.3474 115.079ZM36.5293 54.8338C40.6596 53.4095 45.0747 52.6974 49.4899 52.6974C53.7626 52.6974 58.3201 53.4095 62.4504 54.8338C63.7322 61.3852 67.8625 65.5155 73.9867 67.6519C75.6958 88.1608 67.72 102.261 49.6323 111.518C31.4021 102.261 23.284 88.1608 25.2779 67.7943C31.1173 65.658 35.2475 61.3852 36.5293 54.8338Z" fill="#6CAF60"/>
</svg>
