<svg width="809" height="528" viewBox="0 0 809 528" fill="none" xmlns="http://www.w3.org/2000/svg">
<g clip-path="url(#clip0_7_185)">
<path d="M431.521 390.412L429.336 392.113L424.644 396.81L424.078 397.296L423.512 397.538L423.026 397.457L422.46 397.538L422.136 397.7L421.813 397.943L418.253 401.83L417.849 402.478L417.525 402.964L417.444 403.288V403.612L417.525 403.936L417.606 404.179L417.849 404.746L418.172 405.232L419.628 407.094L419.79 407.337L419.952 407.58V407.985L419.871 408.471L419.628 408.714L419.386 408.876L411.538 411.71L409.031 412.601L402.559 415.273L400.374 416.731L396.087 421.509L395.358 422.238L393.902 420.375L392.77 419.727L391.394 419.889L387.754 421.671L386.54 421.995L385.165 421.671L383.709 420.942L376.185 415.516L369.632 410.819L364.374 407.094L361.542 404.098L356.526 397.053L353.533 394.137L346.98 389.521L331.447 378.427L323.843 372.92L317.452 368.304L311.951 364.417L309.2 361.664L308.715 361.34L305.317 357.048L304.831 355.428L304.022 351.946L303.861 350.569L304.022 349.273L304.427 348.14L304.67 347.006L304.508 345.71L303.052 342.552L302.89 341.256V339.637L302.647 338.422L302.323 337.288L301.11 334.859L300.786 333.725L300.625 331.134L300.22 330.567L296.337 328.299L294.072 327.651L293.02 326.842L292.858 326.437L302.647 314.208L305.074 308.945L304.508 306.839L302.971 304.491L295.285 295.826L305.883 290.724V289.833L292.535 271.207L309.2 264.891L313.164 264.972L314.62 268.454L315.834 270.478L323.681 279.872L330.072 291.129L331.205 291.776L335.331 292.667L341.479 295.097L348.76 299.227L362.918 307.973L363.969 309.835L365.668 311.536L365.587 312.751L371.25 310.807L374.567 305.786L377.399 299.956L378.208 298.741L379.098 297.931L380.068 297.607L380.958 297.85L381.848 298.66L382.819 300.118L383.062 302.223L383.143 306.272L383.79 307.649L385.812 308.378L398.514 309.916L399.565 308.864L401.021 303.357L401.911 302.871L403.529 302.223L409.759 301.98L411.781 301.575L413.318 300.927L414.774 298.741L415.341 298.822L415.745 300.28L416.797 306.596L417.201 308.216L417.849 310.078L419.467 311.374L421.085 312.346L425.777 313.48L440.015 314.451L442.28 313.803L441.148 317.691L440.905 319.229L440.824 320.849V322.388L440.905 323.683L441.148 324.412L441.067 325.141L440.42 325.06L437.993 324.574L437.507 324.493L437.103 324.655L436.698 324.979L436.213 325.789L436.132 326.518L434.838 330.486L433.786 331.7L432.977 332.51L431.925 335.911L431.359 336.964L425.858 336.883L424.806 336.559L423.754 335.83L422.864 335.021L421.894 334.778H420.842L419.224 335.021L418.415 335.507L418.01 335.992L417.849 336.559L417.768 337.207V337.693L418.01 338.908L419.224 340.123L418.415 342.39L418.01 342.795L417.768 342.876V343.038L417.849 343.281L418.334 344.172L419.709 345.548L420.437 346.52L420.68 346.925L420.599 347.087L419.224 347.249L418.9 347.33L418.577 347.573L418.253 347.816L417.768 347.897L417.12 348.464L414.855 352.999L414.208 353.889L413.399 354.699L412.509 355.347L409.678 356.643L409.273 357.453L408.95 357.857L408.788 358.1L407.251 360.044L406.442 361.745L405.795 363.283L406.523 364.822L409.92 369.6L411.296 370.491L413.48 371.705L413.561 372.029L413.804 372.596L413.965 373.082L414.613 373.487H415.502L417.525 372.596L418.253 372.677L418.658 373.406L424.321 376.078L425.13 377.455L425.534 378.832V379.884L425.696 381.18L426.1 382.476L426.99 382.962L428.123 383.367L428.851 383.772L429.66 384.662L430.388 385.634L430.631 386.039L430.873 386.687L431.359 388.307L431.44 388.711L431.521 390.412V390.412Z" stroke="#B06AB3" stroke-linecap="round" stroke-linejoin="round"/>
<path d="M295.285 295.826L302.97 304.491L304.508 306.839L305.074 308.945L302.647 314.209L292.858 326.437L292.777 326.356L292.373 324.898L292.13 324.331L290.35 321.983L289.703 320.687L288.732 316.881L288.166 315.99L286.629 314.29L286.143 313.48L285.739 312.184L285.253 309.35L283.716 304.086L283.231 302.871L283.554 302.385L283.312 301.494L283.231 297.121L283.069 295.826L282.665 294.773L279.186 288.942L278.296 287.97L267.779 280.196L263.734 278.415L259.123 277.2L257.424 276.957L256.372 277.524L255.725 278.82L255.239 281.006L254.107 281.654L253.217 283.678L251.842 285.136L250.224 285.946L248.444 286.027L246.583 285.217L241.729 281.735H240.839L238.089 282.221L237.846 281.654L237.684 281.087L237.522 280.925L236.632 282.464L236.309 282.788L235.985 283.112L233.72 280.763L230.484 279.953L221.019 280.52L215.275 282.464H212.443L210.825 282.059L209.531 281.087L206.942 278.496L204.111 276.39L199.58 274.042L194.403 271.369L193.108 270.074L192.785 268.616L193.351 263.514L193.755 262.461L194.322 261.57L195.131 260.842L197.072 259.87L197.719 259.141L197.315 257.926L194.16 253.472L192.785 250.719L192.299 248.451L193.513 246.751L194.807 245.86L196.263 245.698L198.043 246.265L199.661 247.318L200.632 247.723L201.36 247.642L201.845 246.832L201.764 245.941L201.36 245.05L200.794 244.321L200.146 243.755L197.881 242.378L197.153 241.649L196.668 240.839L197.234 240.272L197.719 238.815L197.639 238.167L197.153 237.033L196.991 236.79L196.91 236.466L197.072 236.223L197.396 235.98L198.124 235.818L199.418 235.737L200.389 235.332L202.816 233.632L203.706 232.822L203.949 232.66L204.758 232.579L205.729 233.308L206.214 233.632L208.56 234.199L210.906 234.442L211.553 235.009L211.715 236.304V239.139L212.12 240.191L213.333 242.135L213.899 243.755L215.194 246.103L215.841 246.994L216.65 247.561L217.702 247.804H219.886L220.695 248.29L221.18 249.342L221.989 251.772L223.203 253.958L224.74 255.659L235.823 265.782L237.037 266.024L237.684 266.267L238.169 266.672L239.868 268.535L241.325 269.912L242.376 270.316L245.127 270.802L246.017 271.369L248.525 274.123L249.091 275.013L249.657 276.876L250.385 277.2L250.709 277.443L251.761 277.848L252.974 277.767L253.783 277.119L255.644 273.475L256.453 272.584L257.181 272.017L257.99 271.612L258.961 271.369H261.469L270.449 273.556L272.714 274.528L274.898 275.823L277.649 277.929L285.658 286.837L291.24 295.826L291.483 295.988L292.13 296.393L292.777 296.636L295.285 295.826V295.826Z" stroke="#B06AB3" stroke-linecap="round" stroke-linejoin="round"/>
<path d="M285.334 137.993L290.431 146.658L292.777 148.844L305.478 152.326L306.206 152.731V153.379L305.883 154.189L293.101 178.402L281.047 201.644L278.458 207.718L277.406 220.918V221.647L277.568 222.294L282.907 232.174L283.878 234.199L283.635 234.523L283.069 235.09L272.957 240.839L271.986 241.73V242.54L272.39 243.431L292.534 271.207L305.883 289.833V290.724L295.285 295.826L292.777 296.636L292.13 296.393L291.483 295.988L291.24 295.826L285.658 286.837L277.649 277.929L274.898 275.823L272.714 274.528L270.449 273.556L261.469 271.369H258.961L257.99 271.612L257.181 272.017L256.453 272.584L255.644 273.475L253.783 277.119L252.974 277.767L251.761 277.848L250.709 277.443L250.385 277.2L249.657 276.876L249.091 275.013L248.525 274.123L246.017 271.369L245.127 270.802L242.376 270.317L241.325 269.912L239.868 268.535L238.17 266.672L237.684 266.267L237.037 266.025L235.823 265.782L224.74 255.659L223.203 253.958L221.99 251.772L221.181 249.342L220.695 248.29L219.886 247.804H217.702L216.65 247.561L215.841 246.994L215.194 246.103L213.9 243.755L213.333 242.135L212.12 240.191L211.715 239.139V236.304L211.553 235.009L210.906 234.442L208.56 234.199L206.214 233.632L205.729 233.308L204.758 232.579L203.949 232.66L203.706 232.822L202.816 233.632L200.389 235.333L199.418 235.737L198.124 235.818L197.396 235.98L197.072 236.223L196.911 236.466L196.991 236.79L197.153 237.033L197.639 238.167L197.72 238.815L197.234 240.272L196.668 240.839L195.535 239.22L194.16 238.005L189.225 236.142L186.798 236.223L186.151 235.899L185.585 235.009L185.665 234.199L186.232 233.551L187.041 233.308H187.122L189.872 232.255L189.71 229.745L188.821 226.586L189.225 223.671L190.034 223.104L191.005 222.699L191.733 222.133L191.895 221.08L191.328 220.27L190.277 219.622L188.173 218.812L186.474 217.274L185.18 215.249L183.724 213.629L181.62 213.386L179.517 213.629L175.391 213.225L165.44 214.763L163.013 214.682L161.881 214.277L160.02 212.253L158.888 211.848L156.461 211.605L155.166 210.795L154.519 209.661L153.953 204.802L153.548 203.588L152.82 202.535L149.827 199.377L148.694 198.648L147.562 198.81L146.186 199.458L144.811 199.863L143.436 199.944L141.332 199.539L138.015 198.081L134.86 195.085L124.748 183.18L123.615 182.452L122.725 183.909L122.078 189.335L121.107 191.198L119.166 191.845L116.739 191.683L114.312 191.117L109.296 189.011H108.082L107.273 189.254L104.765 190.793L102.986 191.602L102.096 192.25L101.691 193.141L101.934 194.437L102.824 195.166L108.73 198L110.348 199.296L111.804 201.482L113.098 204.479L116.577 210.147L118.438 212.415L119.004 212.901L119.247 213.467L119.004 214.034L118.438 214.358L115.444 214.844L114.635 214.601L114.15 213.791V212.82L114.393 211.686L114.554 210.552L114.069 208.285L112.855 206.665L111.237 205.45L106.626 203.264L105.574 203.021L104.685 203.183L102.986 203.912L102.258 203.993L101.449 203.588L100.397 201.968L99.7497 201.32L98.8598 200.996L97.8081 200.915L96.7564 201.158L95.8665 201.563L95.3811 202.13L94.9766 202.94L93.7631 204.317L92.4687 204.883L91.6597 205.531L91.9833 207.232L92.9541 209.418L93.035 210.39L92.6305 211.929L90.6889 216.302L90.0417 217.031L88.2619 217.679L87.8574 218.488L88.181 219.46L88.8282 220.189L88.9091 220.756L87.9383 221.485L86.9675 221.728L83.8124 221.566L82.9225 221.809L80.2528 223.104L79.2011 223.266L78.8775 220.594L78.473 218.974L77.8258 217.679L76.9359 216.626L75.8033 215.735L73.2954 214.358L71.2729 214.115L70.7875 213.953L70.3021 213.548L69.6549 213.063L68.6841 211.524L68.1178 211.038L67.3088 210.876L66.0953 210.957L63.4256 211.848L61.4031 212.982L60.1896 214.115L59.7042 214.601L58.248 217.679L52.3423 236.223L52.1805 237.195V237.519L47.9737 239.544L46.5984 241.406V243.836L47.6501 248.775L47.4883 251.205L47.1647 253.229L47.0838 255.173L47.9737 257.44L49.0254 259.141L49.5108 260.842L49.6726 262.623V264.81L49.9153 266.591L50.4816 268.292L51.4524 269.912L52.4232 271.045L53.1513 271.531L53.7985 271.855L56.2255 272.422L56.5491 272.746L56.4682 273.151L55.9019 273.799L54.9311 274.528L52.7468 275.58L51.776 276.714L50.3198 279.306L49.4299 279.872L43.686 278.658L39.2365 277.767L28.7195 277.119L17.3126 276.552L8.57536 276.066L0.97076 275.661L0.88986 246.751V232.255V217.679V203.102V188.444V173.706V158.886V144.066V129.166L0.80896 114.265V99.2834V84.1399V69.0773V53.8528V38.5472L0.97076 38.4663L5.33936 37.0086L9.70796 35.6319L14.1575 34.1742L22.9756 31.3399L27.3442 29.8822L31.7937 28.5055L36.1623 27.0479L44.9804 24.2135L49.4299 22.8368L53.7985 21.3791L58.248 20.0025L62.6166 18.5448L71.4347 15.7104L77.3404 13.8479L83.1652 12.0663L89.0709 10.2847L94.9766 8.42208L97.6463 7.61227L100.397 6.80245L105.817 5.18282L108.649 4.373L114.312 2.75337L117.143 1.94356L120.945 0.809814L122.078 0.890796L123.372 1.45767L123.777 1.78159L123.696 1.86258L122.968 3.80613L122.806 5.02086L122.563 5.74969L121.916 7.12638L121.754 7.93619V9.79877L121.593 10.2847L121.431 10.4466L121.026 10.6896L120.865 10.8515L120.703 11.0945L120.298 12.3092L118.599 14.6577L118.357 15.0626L118.276 15.2245L117.79 15.7104L115.606 18.7877L115.363 19.2736L115.282 19.7595L115.121 21.4601L114.554 23.2417L113.907 24.6184L113.664 25.6712L113.422 27.7767L113.179 28.8294L112.775 29.8822L112.289 30.854L111.966 31.2589L111.318 31.9067L110.995 32.3117L110.833 32.7975L110.752 33.2834L110.59 34.2552L110.428 35.227L107.273 42.9202L106.869 45.9166L106.707 47.8601L106.788 49.8037L107.759 52.638L108.73 55.1485L110.024 57.254L110.833 60.1693L110.752 61.708L110.428 62.7607L110.024 63.7325L109.053 64.3804L107.921 66L107.678 67.1337L107.354 67.7816L107.112 68.2675L107.031 68.8344L107.354 71.2638L108.163 73.9362L109.377 75.0699L110.267 76.0417L112.127 76.3656L114.393 76.2037L116.739 74.908L119.166 72.8834L121.269 70.9399L122.644 69.1583L123.372 68.0245L123.939 66.9718L124.91 65.838L126.042 64.2184L127.094 62.4368L127.903 61.2221L128.712 60.0883L128.955 59.2785L128.307 58.0638L127.337 57.6589L126.204 57.173L126.851 58.7117L126.042 58.9546L124.91 58.6307L124.424 57.8209L124.91 55.3104L125.476 54.1767L125.799 53.3669L126.77 53.0429L127.417 52.719L128.388 53.0429L128.631 54.3386L128.874 55.1485L129.521 55.7963L130.492 56.0393L132.029 55.6344L132.838 54.6626L132.595 53.3669L131.543 52.3951L130.977 51.4233L131.462 49.7227L131.543 47.6172L130.977 45.4307L130.573 43.4871V42.1104L131.543 41.8675L132.838 41.6245L133.485 40.1669L133.728 38.5472L134.132 37.3325L134.456 35.389L133.404 34.7411L132.352 35.5509L131.543 37.1706L129.764 38.2233L128.631 38.3853L127.417 39.3571L126.042 38.3853L125.961 36.8466L126.528 35.227L127.337 33.3644L128.065 31.7448L129.521 30.1252L130.249 28.7485L131.543 27.4528L132.919 26.0761L133.97 25.5902L131.786 23.9706L130.573 22.4319L129.521 18.3018L129.116 15.6294L128.955 13.8479L129.116 11.8233L129.764 9.47484L130.492 7.53129L130.896 6.55951L135.507 9.71779L141.494 13.7669L145.62 16.5202L156.703 24.1325L163.903 28.9104L163.742 29.2344L162.609 30.773L161.962 32.0687L161.072 35.065L160.344 37.0086L158.968 39.3571L157.917 40.6528L157.431 43.0012L156.865 45.2687L156.137 46.9693L155.328 48.427L153.71 50.6135L152.982 52.2331L152.416 53.8528L152.092 55.4724L152.658 58.7926L153.872 61.627L155.328 63.5706L159.211 68.0245L165.036 73.8552L168.11 76.8515L170.537 78.6331L172.964 80.5767L173.53 81.1436L173.692 82.0344L173.45 83.8969L172.479 85.3546L170.294 86.8123L169.566 88.7558L168.757 90.6994L167.706 92.6429L168.434 94.4245L170.78 94.8294L172.883 94.6675L174.744 94.1006L175.957 92.9669L177.656 92.8049L179.517 93.1288L181.297 92.481L183.238 91.1853L185.908 89.4037L187.122 87.784L187.364 86.9742L186.717 86.2454L185.827 86.1644L185.018 85.8405L184.533 85.3546L184.371 84.7877V84.0589L184.614 83.573L184.937 82.7632L185.504 82.2773L185.908 81.7914H186.717L187.931 81.8724L189.225 82.1153L190.115 81.8724L190.843 81.1436L191.167 80.2528L191.814 78.0663L192.137 75.9607L191.895 73.8552L191.328 70.373L190.519 67.7006L189.468 65.5141L189.144 63.4086L189.063 61.627L189.872 60.4932L190.681 59.8454L191.571 58.7926L192.218 57.335L192.623 55.4724V53.0429L192.704 49.8847V48.265L193.594 48.9129L202.735 54.9865L211.311 60.8172L219.239 66L226.035 70.6159L235.823 77.0945L238.736 79.038L239.949 80.4147L240.758 82.1963L241.082 83.735L241.406 87.1362L241.891 88.6748L244.642 93.1288L249.981 99.0405L252.57 101.794L255.159 104.628L258.475 108.434L261.145 111.512L266.565 117.828L269.235 120.906L271.905 123.983L274.575 127.06L279.833 133.134L283.393 137.183L285.253 137.993H285.334V137.993Z" stroke="#B06AB3" stroke-linecap="round" stroke-linejoin="round"/>
<path d="M507.728 286.189V286.432L501.984 288.78L501.58 289.752L501.014 290.481L501.742 299.227L501.823 299.551L501.984 299.794L502.227 300.361L502.632 300.847L502.955 301.009L503.602 301.414L507.809 302.547L508.052 302.79L508.214 303.033L508.376 303.276V303.762V304.329L508.214 305.463V306.515L508.295 306.839L508.699 307.892L509.751 309.755L508.456 313.075L501.256 327.085L500.366 326.194L499.8 325.465L499.638 325.222L499.557 324.979L499.477 324.736V324.412L499.8 323.44V322.874L499.719 322.631L499.638 322.388L498.02 320.525L496.645 319.31L496.16 319.067L495.755 318.986L495.27 319.148L491.872 321.497L490.82 321.983L489.849 322.145L489.121 321.983L488.231 321.659L487.422 321.173L486.452 320.444L485.724 320.12L485.076 320.039L484.429 320.201L483.863 320.687L483.297 321.254L482.892 321.983L482.488 322.793L481.921 324.493L481.759 325.465V326.437L482.164 327.571L482.488 328.056L482.73 328.542L482.649 329.028L482.326 329.757L482.002 330.081L481.031 330.486L480.789 330.891V331.377L481.355 332.834L481.517 335.021L481.193 336.398L480.546 337.774L480.465 338.179L480.546 338.584L480.789 338.908L481.436 339.556V340.123L481.193 340.528L479.98 342.228L479.575 343.038L479.332 343.848L478.928 345.225L477.714 348.14L477.634 348.545L477.714 348.95L477.957 349.031H478.281L479.171 348.869H479.575L479.98 348.95L480.384 349.112L480.627 349.517L480.789 349.84V350.326L480.546 350.893L480.061 351.379L477.067 354.213L476.501 354.537L466.388 356.643L464.366 356.238L462.343 354.942L461.373 355.266L460.483 354.78L459.593 354.133L457.651 353.404L456.923 352.594L455.71 350.893L455.224 350.812L455.062 350.731L454.173 350.569L449.885 348.626H449.157L448.833 348.788L448.59 349.031L448.348 349.679L448.186 350.083L448.105 350.326L448.186 351.136L448.024 352.351V352.675L447.943 352.999L447.781 353.161L447.701 353.485L446.487 355.266L446.406 355.671L446.568 355.914H446.892L447.215 355.995L447.458 356.157L447.701 356.4L447.781 356.724L447.701 357.048L447.539 357.534L446.811 359.153L446.649 359.558L445.84 362.717L445.516 363.445L445.112 363.688L444.545 363.931H443.17L441.876 363.769L440.5 363.121L438.882 362.231L438.559 362.15L438.235 362.312L437.993 362.717L437.912 363.121L437.75 364.174L437.345 364.498L436.941 364.822L434.109 365.551L431.844 365.875L431.359 365.956L431.116 366.118L430.873 366.361L430.792 366.685L431.116 367.414L432.572 369.033L433.462 369.843L433.867 370.248L434.271 370.815L435.646 375.998L435.727 376.483L435.646 377.374L435.566 377.941L435.404 378.427L434.028 381.585V381.909L434.595 383.772L437.103 388.793L436.213 389.359L431.521 390.412L431.44 388.712L431.359 388.307L430.873 386.687L430.631 386.039L430.388 385.634L429.66 384.663L428.851 383.772L428.123 383.367L426.99 382.962L426.1 382.476L425.696 381.18L425.534 379.885V378.832L425.129 377.455L424.32 376.079L418.657 373.406L418.253 372.677L417.525 372.596L415.502 373.487H414.612L413.965 373.082L413.803 372.596L413.561 372.029L413.48 371.706L411.296 370.491L409.92 369.6L406.522 364.822L405.794 363.283L406.442 361.745L407.251 360.044L408.788 358.101L408.949 357.858L409.273 357.453L409.678 356.643L412.509 355.347L413.399 354.699L414.208 353.89L414.855 352.999L417.12 348.464L417.768 347.897L418.253 347.816L418.577 347.573L418.9 347.33L419.224 347.249L420.599 347.087L420.68 346.925L420.437 346.52L419.709 345.548L418.334 344.172L417.848 343.281L417.768 343.038V342.876L418.01 342.795L418.415 342.39L419.224 340.123L418.01 338.908L417.768 337.693V337.207L417.848 336.56L418.01 335.993L418.415 335.507L419.224 335.021L420.842 334.778H421.893L422.864 335.021L423.754 335.831L424.806 336.56L425.858 336.883L431.359 336.964L431.925 335.912L432.977 332.51L433.786 331.701L434.837 330.486L436.132 326.518L436.213 325.789L436.698 324.979L437.103 324.655L437.507 324.493L437.993 324.574L440.42 325.06L441.067 325.141L441.148 324.412L440.905 323.683L440.824 322.388V320.849L440.905 319.229L441.148 317.691L442.28 313.804L440.015 314.452L425.777 313.48L421.084 312.346L419.466 311.374L417.848 310.079L417.201 308.216L416.797 306.596L415.745 300.28L415.341 298.822L414.774 298.741L413.318 300.928L411.781 301.575L409.758 301.98L403.529 302.223L401.911 302.871L401.021 303.357L399.565 308.864L398.513 309.917L385.812 308.378L383.79 307.649L383.142 306.272L383.061 302.223L382.819 300.118L381.848 298.66L380.958 297.85L380.068 297.607L379.097 297.931L378.207 298.741L377.398 299.956L374.567 305.787L371.25 310.807L365.587 312.751L365.668 311.536L363.969 309.836L362.917 307.973L348.76 299.227L341.479 295.097L335.33 292.667L331.205 291.777L330.072 291.129L323.681 279.872L315.834 270.479L314.62 268.454L313.164 264.972L309.2 264.891L292.534 271.207L272.39 243.431L271.986 242.54V241.73L272.957 240.839L283.069 235.09L283.635 234.523L283.878 234.199L282.907 232.174L277.568 222.294L277.406 221.647V220.918L278.458 207.718L281.047 201.644L293.101 178.402L305.883 154.189L306.206 153.379V152.731L305.478 152.326L292.777 148.844L290.431 146.658L285.334 137.993L289.217 137.264L292.534 136.697L298.521 135.563L303.86 134.591L306.53 134.106L310.818 133.377L315.105 132.648L336.544 129.166L340.832 128.437L348.032 129.166L355.151 129.814L362.351 130.461L369.47 131.109L376.023 131.676L382.495 132.243L389.048 132.891L395.52 133.458L398.109 133.701L399.727 133.215L404.5 130.623L409.03 128.113L413.723 125.441L418.253 122.93L419.143 122.606L419.952 122.282L421.489 122.525L422.217 123.254L423.026 123.902L428.123 130.542L433.139 137.183L435.485 139.693L437.831 142.123L442.685 145.2L447.539 148.196L449.399 149.897L453.364 158.157L455.952 163.421L459.431 170.709L462.505 176.945L463.314 177.026L470.11 173.382L476.825 169.656L475.854 185.61L474.802 201.482L474.559 204.883L474.155 206.017L473.022 206.422L472.78 207.313L472.537 219.703L472.375 232.012L472.537 232.741L472.941 233.065H478.604H483.701L488.879 233.146H494.542L494.865 233.065L495.27 233.146H495.593L495.836 233.308L496.645 241.325L497.454 249.261L498.91 257.036L500.447 264.81L502.47 274.123L504.492 283.274L505.544 284.569L506.596 285.865L507.728 286.189V286.189Z" stroke="#B06AB3" stroke-linecap="round" stroke-linejoin="round"/>
<path d="M501.257 327.084L501.661 327.408L507.567 327.651L509.508 328.218L510.236 328.38L511.045 328.542L512.097 328.461L513.311 328.218L513.634 328.137L513.877 328.38L514.12 328.704L514.443 329.514L514.686 330.081L514.767 330.728L514.686 331.538L514.443 332.429L514.039 333.401L513.958 333.725L513.877 334.13V334.535L513.958 337.45L514.039 338.503L514.686 341.742L514.848 341.985L515.01 342.309L515.333 342.633L516.304 343.038L516.547 343.281L516.708 343.524V344.009L516.547 344.333V344.819L516.708 345.305L518.003 346.844L517.922 348.301L517.76 348.868L517.598 349.03L517.356 349.273L516.466 349.516L516.223 349.678L516.142 350.002L516.061 350.326L516.304 353.079L516.466 353.403L516.628 353.646L517.194 353.808H517.598L518.003 353.727L518.246 353.646L519.135 353.241L519.378 353.16H519.702H520.025L520.349 353.403L520.592 353.808L520.673 354.618L520.511 355.023V355.59L520.592 355.914L522.21 357.695L522.857 357.452H523.1L523.261 357.371L523.828 358.262L527.549 359.315L528.115 359.396L528.843 359.315L529.167 359.234H529.491L530.3 359.72L530.623 359.882L531.028 359.963L531.513 359.801L532.565 359.882L540.736 361.42L541.545 362.716L542.758 368.466L542.596 368.952L541.868 369.114H541.545L540.25 369.438L539.28 369.762L537.742 370.571L537.014 371.138L536.691 371.462L536.61 371.786L536.448 372.191V373.082V373.649L536.529 374.054L536.61 374.377L536.691 374.944V375.349V376.078L536.61 376.402L536.367 376.726L535.963 376.888L535.558 376.969H534.102L533.536 377.131L533.212 377.698L533.05 378.184L532.969 382.395L533.455 383.447L534.102 384.257L536.044 385.958L539.603 389.116L539.199 389.683L538.632 392.031L538.309 394.461L538.228 396.728L537.662 398.753L537.338 400.777L537.014 400.939L536.529 400.777L536.044 400.939L535.963 401.02L524.718 398.186L522.21 398.024V398.348L522.291 398.996V399.239V399.563L522.129 399.887L521.967 400.13L521.724 400.373L521.482 400.454L520.915 400.616L515.738 400.777L515.09 400.696L514.767 400.535L514.443 400.373L514.12 400.13L513.958 399.806L513.877 399.32L513.958 398.348L514.281 396.728L514.12 395.838L513.149 394.056L512.178 393.894L508.133 393.084L504.493 392.517H503.845L503.036 392.76L502.308 393.165L501.904 393.489L501.58 393.813L500.043 396.162L499.639 396.566L496.079 398.024H495.755L495.108 397.862L494.38 397.457L491.549 395.271L490.416 394.461L489.526 394.542L482.73 396.081L482.488 396.162L477.957 398.348L476.987 398.996L476.258 399.239H474.56L471.404 398.429L471.162 398.186L470.919 397.781L470.838 397.133L470.757 396.647V396.242L470.838 395.271V394.38L470.676 393.975L470.515 393.651L469.382 392.76L467.926 391.789L465.499 389.359L465.013 388.711L464.69 388.225L464.609 387.901L464.123 385.877L464.043 385.634L463.881 385.391L463.638 385.148L463.395 384.986L463.072 384.905L462.667 384.824H461.211L460.645 384.905L460.24 385.148L460.159 385.472V385.796V386.687V387.011L460.078 387.335L459.917 387.577L459.755 387.82L458.703 388.549L457.732 389.116L457.166 389.278L437.103 388.792L434.595 383.771L434.029 381.909V381.585L435.404 378.427L435.566 377.941L435.647 377.374L435.728 376.483L435.647 375.997L434.271 370.814L433.867 370.247L433.462 369.843L432.572 369.033L431.116 367.413L430.793 366.684L430.874 366.36L431.116 366.117L431.359 365.955L431.844 365.874L434.11 365.55L436.941 364.822L437.346 364.498L437.75 364.174L437.912 363.121L437.993 362.716L438.235 362.311L438.559 362.149L438.883 362.23L440.501 363.121L441.876 363.769L443.17 363.931H444.546L445.112 363.688L445.516 363.445L445.84 362.716L446.649 359.558L446.811 359.153L447.539 357.533L447.701 357.047L447.782 356.723L447.701 356.4L447.458 356.157L447.215 355.995L446.892 355.914H446.568L446.406 355.671L446.487 355.266L447.701 353.484L447.782 353.16L447.943 352.998L448.024 352.674V352.35L448.186 351.136L448.105 350.326L448.186 350.083L448.348 349.678L448.591 349.03L448.833 348.787L449.157 348.625H449.885L454.173 350.569L455.063 350.731L455.224 350.812L455.71 350.893L456.923 352.593L457.651 353.403L459.593 354.132L460.483 354.78L461.373 355.266L462.344 354.942L464.366 356.238L466.389 356.643L476.501 354.537L477.067 354.213L480.061 351.379L480.546 350.893L480.789 350.326V349.84L480.627 349.516L480.384 349.111L479.98 348.949L479.575 348.868H479.171L478.281 349.03H477.957L477.715 348.949L477.634 348.544L477.715 348.139L478.928 345.224L479.333 343.847L479.575 343.038L479.98 342.228L481.193 340.527L481.436 340.122V339.555L480.789 338.908L480.546 338.584L480.465 338.179L480.546 337.774L481.193 336.397L481.517 335.02L481.355 332.834L480.789 331.376V330.89L481.032 330.485L482.002 330.081L482.326 329.757L482.65 329.028L482.73 328.542L482.488 328.056L482.164 327.57L481.76 326.436V325.465L481.921 324.493L482.488 322.792L482.892 321.982L483.297 321.254L483.863 320.687L484.429 320.201L485.077 320.039L485.724 320.12L486.452 320.444L487.423 321.173L488.232 321.658L489.122 321.982L489.85 322.144L490.82 321.982L491.872 321.497L495.27 319.148L495.755 318.986L496.16 319.067L496.645 319.31L498.021 320.525L499.639 322.387L499.719 322.63L499.8 322.873V323.44L499.477 324.412V324.736L499.558 324.979L499.639 325.222L499.8 325.465L500.367 326.193L501.257 327.084V327.084Z" stroke="#B06AB3" stroke-linecap="round" stroke-linejoin="round"/>
<path d="M535.962 401.021L535.639 401.345L535.396 401.588L535.315 401.993L535.234 402.883L535.558 405.313L536.852 406.528L542.596 408.552L546.398 408.714L548.259 409.443L548.421 409.686L548.825 410.415L549.068 410.658L549.392 410.739L550.201 410.577L550.524 410.658L550.929 411.386L551.01 412.196L550.443 416.893L550.686 418.432H550.767L550.039 418.999L549.23 419.323L545.832 419.485L545.185 419.647L544.699 419.889L544.376 420.051L544.133 420.294L543.729 420.618L543.486 421.104L543.324 421.509V421.995L543.729 423.453L543.971 425.639L545.104 427.664L545.185 427.907L545.266 428.231V428.635L545.185 428.959L545.104 429.364V429.688L545.023 430.012V430.336L545.104 430.66V430.984L545.266 431.227L545.347 431.875L545.428 432.199V432.523L545.266 433.009L545.023 433.494L544.538 434.223L544.295 434.709L544.214 435.195V436.248L544.133 436.491L543.971 436.734L543.648 436.653L543.405 436.491L542.515 435.6L542.353 435.438L542.111 435.276L541.787 435.114L541.059 434.952L540.331 434.871H539.684L539.036 435.033L538.389 435.357L537.985 435.681L537.661 436.005L537.418 436.248L534.587 441.755L534.102 442.402L533.293 443.293L532.807 443.617L532.079 444.022L530.218 444.508L529.895 445.318L529.328 446.209L528.519 447.099L526.74 448.557L526.497 448.962L526.173 449.772L525.931 450.743L525.445 453.821L525.041 455.278L524.96 455.602L524.313 456.25L519.135 460.461L516.465 461.919L515.899 462.081L514.2 462.405L513.796 462.648L513.391 463.215L512.663 464.429L512.178 465.644L511.935 466.292L511.692 467.021L511.369 467.75L511.045 468.397L505.301 473.742L504.897 474.309L504.654 475.281L504.411 477.629L504.169 478.439L503.44 479.897L501.984 480.788L501.418 479.168L499.881 478.034L498.182 477.143L496.321 476.658H492.762L491.305 476.253L486.532 473.985L484.348 471.232L482.973 469.855L481.436 469.207L478.361 468.316L475.449 465.968L474.155 465.239L471 464.753L466.307 462.486L464.689 462.324L463.395 462.891L461.13 464.672L459.916 465.401L456.68 465.644L453.525 464.591L445.759 459.328L441.067 456.169L434.756 451.877L430.307 447.747L423.997 442.078L420.842 440.054L413.965 437.624L407.898 434.142L398.028 425.72L395.358 422.238L396.086 421.509L400.374 416.731L402.558 415.274L409.03 412.601L411.538 411.71L419.385 408.876L419.628 408.714L419.871 408.471L419.952 407.985V407.58L419.79 407.337L419.628 407.094L418.172 405.232L417.848 404.746L417.606 404.179L417.525 403.936L417.444 403.612V403.288L417.525 402.964L417.848 402.478L418.253 401.831L421.812 397.943L422.136 397.701L422.46 397.539L423.026 397.458L423.511 397.539L424.078 397.296L424.644 396.81L429.336 392.113L431.52 390.412L436.213 389.359L437.102 388.793L457.166 389.278L457.732 389.116L458.703 388.55L459.754 387.821L459.916 387.578L460.078 387.335L460.159 387.011V386.687V385.796V385.472L460.24 385.148L460.644 384.905L461.211 384.824H462.667L463.071 384.905L463.395 384.986L463.638 385.148L463.88 385.391L464.042 385.634L464.123 385.877L464.608 387.902L464.689 388.226L465.013 388.712L465.498 389.359L467.925 391.789L469.382 392.761L470.514 393.651L470.676 393.975L470.838 394.38V395.271L470.757 396.243V396.648L470.838 397.134L470.919 397.782L471.161 398.186L471.404 398.429L474.559 399.239H476.258L476.986 398.996L477.957 398.348L482.487 396.162L482.73 396.081L489.526 394.542L490.416 394.461L491.548 395.271L494.38 397.458L495.108 397.862L495.755 398.024H496.079L499.638 396.567L500.043 396.162L501.58 393.813L501.903 393.489L502.308 393.166L503.036 392.761L503.845 392.518H504.492L508.133 393.085L512.178 393.894L513.148 394.056L514.119 395.838L514.281 396.729L513.957 398.348L513.877 399.32L513.957 399.806L514.119 400.13L514.443 400.373L514.766 400.535L515.09 400.697L515.737 400.778L520.915 400.616L521.481 400.454L521.724 400.373L521.967 400.13L522.128 399.887L522.29 399.563V399.239V398.996L522.209 398.348V398.024L524.717 398.186L535.962 401.021V401.021Z" stroke="#B06AB3" stroke-linecap="round" stroke-linejoin="round"/>
<path d="M501.985 480.788L503.441 479.897L504.169 478.44L504.412 477.63L504.654 475.281L504.897 474.31L505.301 473.743L511.045 468.398L511.369 467.75L511.693 467.021L511.935 466.292L512.178 465.645L512.663 464.43L513.391 463.215L513.796 462.648L514.2 462.405L515.899 462.081L516.466 461.919L519.135 460.462L524.313 456.251L524.96 455.603L525.041 455.279L525.446 453.821L525.931 450.744L526.174 449.772L526.497 448.962L526.74 448.558L528.52 447.1L529.329 446.209L529.895 445.318L530.219 444.508L532.079 444.023L532.807 443.618L533.293 443.294L534.102 442.403L534.587 441.755L537.419 436.248L537.661 436.005L537.985 435.681L538.39 435.357L539.037 435.034L539.684 434.872H540.331L541.059 434.953L541.787 435.115L542.111 435.277L542.354 435.439L542.515 435.6L543.405 436.491L543.648 436.653L543.972 436.734L544.133 436.491L544.214 436.248V435.196L544.295 434.71L544.538 434.224L545.023 433.495L545.266 433.009L545.428 432.523V432.199L545.347 431.875L545.266 431.227L545.104 430.985V430.661L545.023 430.337V430.013L545.104 429.689V429.365L545.185 428.96L545.266 428.636V428.231L545.185 427.907L545.104 427.664L543.972 425.64L543.729 423.453L543.324 421.996V421.51L543.486 421.105L543.729 420.619L544.133 420.295L544.376 420.052L544.7 419.89L545.185 419.647L545.832 419.485L549.23 419.323L550.039 418.999L550.767 418.432L551.576 419.242L557.563 420.295L558.857 420.214L562.417 418.999L563.064 418.675L563.711 418.513H564.439L565.167 418.837L565.572 418.999L566.3 419.728L567.028 419.89L567.837 419.566L568.646 418.999L568.97 418.918H569.374H569.779L570.183 418.999L570.911 419.89L572.448 423.453L573.824 425.478L574.309 426.693L574.228 427.988L573.824 429.041L573.257 429.851L572.529 430.499L571.72 430.904L570.588 431.146H569.779L569.293 431.47L569.132 432.766L569.212 433.414L569.536 433.9L569.698 434.467V435.196L569.455 435.519L568.242 436.41L567.918 437.301L567.999 438.354L568.646 440.621L568.727 441.836L568.565 445.318L568.727 446.614L569.051 447.424L570.183 449.205L570.507 450.096L570.588 452.04L570.75 452.85L571.154 453.74L573.015 455.522L574.795 458.68L575.604 459.571L578.031 460.948L581.752 464.268L582.885 466.05L583.046 468.398L582.318 471.88L581.186 475.2L579.325 478.035L578.759 479.169L578.354 480.14L578.192 481.112L577.788 481.841L577.06 482.408L576.332 482.57L574.147 482.894L572.691 483.38L571.882 484.27L569.86 490.344L568.484 493.097L565.087 497.875L562.498 500.305L560.071 503.382L558.129 506.864L556.754 510.508L556.592 513.019L557.563 517.716L557.725 520.226L557.482 522.332L556.916 524.356L556.026 526.138L555.783 526.948L555.621 525.895L555.055 525.085L554.246 524.599L553.275 524.356L551.576 524.437L550.929 524.356L550.444 524.032L549.392 523.304L548.907 523.142L548.34 523.223L547.45 523.465L546.965 523.546L546.641 523.789L546.399 524.356L545.994 524.923L545.509 525.166L544.7 524.437L543.81 522.008L542.758 521.441L541.787 521.765L540.897 522.413L539.36 523.951L538.47 524.68L537.5 525.166L536.448 525.409L535.315 525.571L534.102 525.814L532.322 526.948L531.27 527.191L530.219 526.786L529.733 525.895L529.329 524.761L528.924 523.708L527.953 522.899L525.85 522.089L524.879 521.441L524.475 520.55L523.666 517.959L523.099 517.473L522.129 517.149L520.268 515.853L519.378 515.367H517.113L512.825 516.339L506.677 516.663L506.191 516.825L505.221 517.635L504.735 517.797H503.441L502.874 517.635L499.8 516.339L498.668 516.177L497.454 516.339L496.564 516.582L495.351 515.691L495.432 514.638L496.16 513.586L497.05 512.695L497.778 511.48L497.616 510.508L496.888 509.699L495.917 508.889L495.27 507.269L495.513 505.083L496.483 501.115L496.645 498.766L496.322 494.069L496.483 491.721L498.101 488.805L500.771 485.404L502.47 482.003L501.985 480.788V480.788Z" stroke="#B06AB3" stroke-linecap="round" stroke-linejoin="round"/>
<path d="M764.91 329.352L764.829 329.028L764.424 327.571L764.343 326.761L764.505 325.627L764.667 324.493V323.765V323.36L764.586 323.036L763.939 322.469L761.512 321.74L760.946 321.659L760.622 321.416L759.732 320.039L759.085 319.554L758.599 319.958L758.114 320.606L757.305 320.687L754.474 320.12L752.208 319.392L750.914 319.473L749.943 319.634L748.811 319.473L748.406 319.311L748.002 319.068L746.141 316.476L745.736 315.747L745.332 315.342L744.766 315.019L742.339 314.209L741.61 314.128L741.044 314.209L740.801 314.371L740.397 314.29L739.75 314.128L738.455 313.399H737.97L737.727 313.642L737.646 314.695L737.404 314.614L736.918 313.885L735.947 311.941L734.491 309.836L735.867 308.459L735.138 306.92L734.572 306.192L734.491 305.706L734.734 305.382L736.271 303.924L736.837 303.519L737.485 302.628L742.339 301.333L743.876 302.061L745.817 301.171L746.384 301.009H747.435L748.568 301.09L749.862 300.928L756.011 302.466L756.82 302.547L757.629 302.385L760.46 302.304L761.107 302.142L761.431 301.98L761.593 301.9L761.997 301.576L763.13 296.393L763.373 295.34L766.042 294.53L767.822 294.287L768.146 293.963L768.712 292.344L768.955 291.939L769.845 291.21L770.411 291.615L771.786 293.72L772.757 294.368L774.132 294.773L776.64 295.016L776.883 295.178L776.964 295.421V295.745L776.883 296.15V297.608L777.773 298.012L778.905 298.093L779.876 298.498L781.818 301.657L783.274 303.195L785.135 304.005L787.157 304.248L793.225 303.681L795.004 304.248L795.247 306.03L795.085 307.082L795.733 307.001L797.917 305.463L801.395 303.843L802.124 304.329L802.771 305.301L803.742 305.949L806.492 305.787L807.948 306.111L808.191 307.325L806.735 309.269L804.551 310.565L800.101 312.184L796.056 314.695L792.658 315.585L791.04 316.314L789.908 318.015L789.341 322.145L787.966 322.793L786.267 321.983H785.377L785.054 323.036L784.973 323.927L784.73 324.817L784.326 325.546L783.598 326.194L781.737 326.275L778.42 324.007L776.64 323.765L775.265 323.036L773.728 321.254L772.11 319.877L770.734 320.525L770.573 321.497L771.624 323.198L771.543 324.331L771.301 325.384V326.032L771.705 326.599L773.728 328.057L774.213 329.352V330.81L773.647 332.349L772.676 333.644L771.624 333.887L770.33 333.401L767.579 331.782L766.851 331.539L764.748 331.62L764.101 331.377L764.343 330.81L764.91 330.648L765.719 330.567L766.366 330.405L766.609 329.757L766.123 329.352L765.314 329.271L764.91 329.352V329.352Z" stroke="#B06AB3" stroke-linecap="round" stroke-linejoin="round"/>
<path d="M742.743 363.607L742.015 363.769L740.882 363.364L739.911 362.959L738.941 362.231L738.455 361.34L739.264 360.368H740.397L741.206 359.963L742.905 358.667L744.118 358.262L744.28 358.91L743.228 362.878L742.743 363.607V363.607ZM715.156 355.023L715.48 355.104L715.722 354.942L716.208 354.537L716.531 354.375L717.664 354.051L718.311 354.213L718.635 354.78L718.311 355.752L716.127 357.291L715.399 358.019L715.48 359.639L717.583 361.826L717.502 363.769L716.936 364.498L716.289 364.741H714.751L712.486 365.389L711.839 365.308L711.273 364.741L711.192 364.093L710.949 363.607L710.059 363.526L709.493 363.931L708.846 364.579L708.199 364.984L707.632 364.66L707.551 363.121L709.574 359.963L709.331 358.1L708.765 357.696L707.551 357.453L706.904 357.129L706.419 356.319L705.205 353.808L704.963 352.756L705.043 351.784L705.286 350.65L706.095 348.788L707.551 347.978L708.603 348.626L709.412 350.083L710.059 351.784L710.868 352.837L712.163 353.646L714.751 354.78L714.913 354.942L715.156 355.023V355.023ZM734.491 309.835L735.947 311.941L736.918 313.884L737.403 314.613L737.646 314.694L737.727 313.642L737.97 313.399H738.455L739.75 314.127L740.397 314.289L740.801 314.37L741.044 314.208L741.61 314.127L742.338 314.208L744.765 315.018L745.332 315.342L745.736 315.747L746.141 316.476L748.001 319.067L748.406 319.31L748.81 319.472L749.943 319.634L750.914 319.472L752.208 319.391L754.473 320.12L757.305 320.687L758.114 320.606L758.599 319.958L759.085 319.553L759.732 320.039L760.622 321.416L760.945 321.659L761.512 321.74L763.939 322.469L764.586 323.035L764.667 323.359V323.764V324.493L764.505 325.627L764.343 326.761L764.424 327.57L764.829 329.028L764.909 329.352L762.806 329.433L761.997 329.595L758.842 331.377L758.437 332.024L758.114 333.158L757.467 334.859L756.253 336.154L752.127 338.179L751.885 339.07L752.208 340.042L753.098 340.608L754.473 341.256L755.121 341.742L755.363 342.228L755.04 342.876L754.392 343.038L753.664 342.957L753.098 342.714L752.774 342.633H752.451L751.885 342.795L750.105 342.633L748.244 342.228L746.464 342.309L745.008 343.767L744.199 345.71L743.633 346.601L742.905 347.33L740.397 348.788L739.75 348.95L738.779 348.545L738.536 347.573V345.062L738.212 343.848L737.565 342.471L736.675 341.742L735.866 342.471L735.543 343.686L735.462 344.738L735.057 345.467L733.925 345.548L731.66 345.143L730.608 344.657L729.637 344.091L728.747 343.2L728.343 342.309L727.938 341.58L725.835 340.932L724.379 339.556L723.408 339.475L721.952 339.637L721.143 339.556L720.495 339.232L720.01 338.665L719.605 338.017L719.12 337.693L718.473 337.855L717.664 338.989L717.259 340.365L716.612 341.418L715.156 341.58L709.655 340.77L706.904 341.256L705.205 342.957L704.234 342.876L700.109 343.281L693.394 345.305L691.371 345.467L689.43 345.386L687.488 344.01L686.679 341.418L686.032 338.503L684.818 336.478L683.767 336.073L682.877 336.154L681.987 336.397L680.935 336.478L679.964 336.235L677.618 335.183L678.266 332.996L678.104 332.753L677.699 332.267L677.618 332.186L677.052 331.296L676.971 331.134L676.89 330.81L676.809 329.514L677.537 328.299L678.913 327.408L682.149 326.68L682.634 326.437L683.12 325.87L684.252 323.926L684.899 323.278L685.547 322.954L686.194 322.792L686.922 322.469L687.488 321.902L689.187 319.877L692.019 317.529L692.747 316.881L693.394 316.314L693.798 316.152L694.607 315.99L694.769 315.747L694.85 315.423L695.012 315.18L695.74 314.694L696.953 313.965L697.439 313.318L697.843 312.751L698.41 312.184L699.138 311.779L699.785 311.698L701.079 311.86L701.727 311.779L703.911 309.754H704.882L705.61 310.078L706.014 310.321L706.338 310.645L707.794 310.807L713.133 310.564L710.14 314.613L710.383 314.937L712.244 315.099L712.567 315.261L713.942 316.719L714.266 316.881L714.751 317.043L715.641 317.205L716.127 317.367L717.098 318.176L719.282 319.391L719.929 319.553L720.981 319.391L724.055 316.476L725.511 314.127L726.482 313.399L730.608 311.131L734.491 309.835V309.835Z" stroke="#B06AB3" stroke-linecap="round" stroke-linejoin="round"/>
<path d="M763.373 295.339L763.13 296.392L761.997 301.575L761.593 301.899L761.431 301.98L761.107 302.142L760.46 302.304L757.629 302.385L756.82 302.547L756.011 302.466L749.862 300.927L748.568 301.089L747.435 301.008H746.384L745.817 301.17L743.876 302.061L742.339 301.332L737.485 302.628L736.837 303.519L736.271 303.923L734.734 305.381L734.491 305.705L734.572 306.191L735.138 306.92L735.867 308.458L734.491 309.835L730.608 311.131L726.482 313.398L725.511 314.127L724.055 316.476L720.981 319.391L719.929 319.553L719.282 319.391L717.098 318.176L716.127 317.366L715.642 317.204L714.752 317.042L714.266 316.881L713.943 316.719L712.567 315.261L712.244 315.099L710.383 314.937L710.14 314.613L713.134 310.564L707.794 310.807L706.338 310.645L706.014 310.321L705.61 310.078L704.882 309.754H703.911L701.727 311.779L701.079 311.86L699.785 311.698L699.138 311.779L698.41 312.184L697.843 312.75L697.439 313.317L696.954 313.965L695.74 314.694L695.821 314.208L696.225 312.103L694.446 311.05L690.158 309.997L689.43 309.106L689.268 307.973L689.753 307.244L690.643 307.082L692.261 308.539L693.232 308.863L693.313 307.73L692.909 307.163L684.333 297.445L682.877 296.149L682.715 295.987L682.634 295.744L681.663 294.773L682.068 293.315L681.906 288.699L681.744 287.322L680.774 285.703L679.803 284.407L679.56 283.921L679.398 283.516V283.03L679.479 282.706L680.369 280.763L680.531 280.358L680.774 279.548L680.612 278.981L679.317 278.819L679.156 278.576L678.994 278.252L678.913 277.281L678.832 276.552L678.913 276.147L678.994 275.742L681.34 272.665L681.744 271.936L682.311 270.397H682.634L684.171 269.83L689.996 266.51L691.533 266.267L692.423 266.834L693.232 267.887L695.902 272.422L696.306 273.717L696.387 275.013L695.74 278.9L695.821 279.953L696.387 280.844L697.115 280.763L698.086 280.277L699.138 280.196L700.028 280.601L700.837 281.168L701.646 281.977L702.293 282.868L703.102 283.678L704.073 283.759L706.095 283.516L708.36 283.921L709.412 284.407L710.383 285.136L711.192 285.622L712.972 285.865L713.7 286.512L714.913 288.456L715.642 289.023L716.127 287.808L716.046 286.512L715.803 285.379L715.884 284.488L716.855 283.921L717.988 284.083L718.554 284.812L719.12 287.16L719.525 288.051L720.172 288.699L720.819 288.618L721.305 287.403L722.437 285.946L725.673 288.699L726.725 287.808L726.968 285.622L726.563 274.851L726.887 274.041L727.534 274.203L729.799 276.309L731.822 277.2L733.44 276.876L734.734 275.499L736.271 272.098L736.918 269.992L737.161 268.777L736.999 267.644L735.624 265.862L735.138 264.809L736.109 262.461L736.676 261.732L737.727 261.327L738.779 261.489L739.345 262.299L739.588 263.514V264.809L738.698 268.373L738.779 269.101L739.183 269.263L739.507 268.777L739.669 268.13L739.912 267.725L740.397 267.968L740.64 268.939L741.125 269.182L741.449 268.858L741.53 267.482L741.853 267.239L742.177 267.401L742.581 267.725L747.031 274.365L747.759 276.228L748.002 278.333L747.921 280.925L748.163 283.597L749.377 284.164L753.098 283.516L754.231 284.488L754.959 285.541L755.768 285.946L757.143 285.136L758.195 284.164L759.328 283.516L760.46 283.273L761.674 284.002L762.159 285.217L762.402 286.917L762.483 288.699L762.887 291.938V293.153L762.564 294.287L761.916 295.825L763.373 295.339V295.339ZM690.401 298.741L689.834 297.202L689.187 296.149L688.055 295.177L686.76 294.611L686.032 294.773L686.517 296.068L687.407 296.959L688.783 298.822L689.592 299.55L690.482 299.793L690.401 298.741V298.741Z" stroke="#B06AB3" stroke-linecap="round" stroke-linejoin="round"/>
<path d="M578.678 316.719L578.516 319.229L577.95 319.877L575.361 320.363L574.714 320.444L574.471 320.606L574.228 320.768L574.147 321.092L574.066 322.55L573.743 324.898L573.905 325.222L574.147 325.465L574.875 325.303L575.765 325.06H576.17L576.332 325.789L570.75 338.584L570.588 339.475L570.426 340.447L570.669 342.147L570.83 342.633L571.073 343.119L571.316 343.281L572.61 343.524L583.289 343.767L597.366 340.285H597.527L597.608 340.366L597.366 340.852L597.123 341.175L596.961 341.499L596.718 341.904L596.071 344.253L595.909 344.658L595.748 345.225L596.314 346.277V346.358L594.453 346.844L593.482 347.573L594.696 348.869L596.799 350.245L598.417 350.893L598.903 350.812L596.88 353.485L596.152 354.78L595.909 355.428V355.914V356.319L595.99 356.643L596.152 357.21L596.476 357.858L596.799 358.991L596.961 359.558L597.042 359.882V360.449L596.961 362.474L596.799 362.798H596.557L596.476 362.555L596.233 362.312L595.99 362.231L595.748 362.15L595.343 362.393L595.262 362.636L595.424 362.879L595.586 363.121L596.476 363.607L596.718 363.85L596.799 364.093L596.718 364.417L596.638 364.822L596.395 365.389L596.314 366.361L596.233 366.928H596.071L595.586 366.847L595.1 368.223L594.615 378.103L594.372 379.561L593.725 380.775L592.593 381.909L590.57 383.205L589.923 384.096L590.489 385.31L589.518 385.715L586.606 386.525L584.341 386.687L581.995 386.525L578.192 385.148L571.154 384.987L555.055 380.775L552.871 380.694L551.091 381.261L546.722 384.42L543.001 384.987L542.03 385.958L542.354 388.631L542.192 388.874L542.03 389.036L541.787 389.117L541.545 389.198L540.331 389.036L539.603 389.117L536.043 385.958L534.102 384.258L533.455 383.448L532.969 382.395L533.05 378.184L533.212 377.698L533.536 377.131L534.102 376.969H535.558L535.963 376.888L536.367 376.726L536.61 376.402L536.691 376.079V375.35V374.945L536.61 374.378L536.529 374.054L536.448 373.649V373.082V372.191L536.61 371.787L536.691 371.463L537.014 371.139L537.742 370.572L539.279 369.762L540.25 369.438L541.545 369.114H541.868L542.596 368.952L542.758 368.466L541.545 362.717L540.736 361.421L532.565 359.882L531.513 359.801L531.028 359.963L530.623 359.882L530.3 359.72L529.491 359.234H529.167L528.843 359.315L528.115 359.396L527.549 359.315L523.828 358.263L523.261 357.372L523.099 357.453H522.857L522.21 357.696L520.592 355.914L520.511 355.59V355.023L520.672 354.618L520.592 353.809L520.349 353.404L520.025 353.161H519.702H519.378L519.135 353.242L518.245 353.647L518.003 353.728L517.598 353.809H517.194L516.627 353.647L516.466 353.404L516.304 353.08L516.061 350.326L516.142 350.002L516.223 349.679L516.466 349.517L517.356 349.274L517.598 349.031L517.76 348.869L517.922 348.302L518.003 346.844L516.708 345.306L516.547 344.82V344.334L516.708 344.01V343.524L516.547 343.281L516.304 343.038L515.333 342.633L515.009 342.309L514.848 341.985L514.686 341.742L514.039 338.503L513.958 337.45L513.877 334.535V334.13L513.958 333.725L514.039 333.401L514.443 332.429L514.686 331.539L514.767 330.729L514.686 330.081L514.443 329.514L514.12 328.704L513.877 328.38L513.634 328.137L513.311 328.218L512.097 328.461L511.045 328.542L510.236 328.38L509.508 328.218L507.567 327.652L501.661 327.409L501.256 327.085L508.457 313.075L509.751 309.755L508.699 307.892L508.295 306.839L508.214 306.515V305.463L508.376 304.329V303.762V303.276L508.214 303.033L508.052 302.79L507.809 302.547L503.603 301.413L502.955 301.009L502.632 300.847L502.227 300.361L501.985 299.794L501.823 299.551L501.742 299.227L501.014 290.481L501.58 289.752L501.985 288.78L507.728 286.432V286.189L510.398 286.918L515.899 286.594L520.511 286.27L532.322 285.541L538.39 285.217L548.259 284.569L554.246 284.245L555.379 284.569L557.32 285.622L558.372 285.946L559.262 285.784L560.637 284.893L562.012 284.002L563.145 283.193L563.469 284.164L563.711 284.974L563.873 285.136L564.197 285.784L565.248 287.161L566.3 288.537L566.785 289.671L566.947 290.886L567.109 292.02L567.433 292.586L567.756 293.072L568.323 292.586L568.889 292.344L569.455 292.425L570.021 293.072L570.669 291.696L571.639 291.615L571.801 292.91V293.072L571.72 293.639L572.206 293.801L572.287 293.882L571.235 294.692L570.83 294.935L571.235 295.097L571.397 295.421L571.801 296.15V297.931L571.559 298.984L571.316 300.037L570.992 301.009L570.669 302.061L569.941 303.681L569.374 304.491L568.727 305.301L567.918 305.867L566.3 306.677L565.815 307.001L565.734 307.487L565.976 307.73L567.837 308.135L569.293 308.945L573.581 313.237L575.199 314.452L576.736 315.747L578.678 316.719Z" stroke="#B06AB3" stroke-linecap="round" stroke-linejoin="round"/>
<path d="M596.233 366.928L596.314 366.361L596.395 365.389L596.638 364.822L596.719 364.417L596.799 364.093L596.719 363.85L596.476 363.607L595.586 363.122L595.424 362.879L595.262 362.636L595.343 362.393L595.748 362.15L595.99 362.231L596.233 362.312L596.476 362.555L596.557 362.798H596.799L596.961 362.474L597.042 360.449V359.882L596.961 359.558L596.799 358.992L596.476 357.858L596.152 357.21L595.99 356.643L595.91 356.319V355.914V355.428L596.152 354.78L596.88 353.485L598.903 350.812L609.905 348.626L612.09 350.165L612.413 351.055L612.494 352.027V352.918L612.09 353.647L611.038 353.809L607.559 353.323L606.669 353.566L604.97 355.023L604.323 355.266L603.271 353.323L602.543 352.756L601.977 353.89L602.058 354.457L602.867 355.104L603.029 355.59L602.948 356.805L603.029 357.372L603.271 358.02L607.397 363.769L607.559 365.146L605.537 365.956L604.485 364.255L603.757 361.664L602.786 359.558L601.815 358.83L601.492 359.315L601.653 360.449L602.139 361.826L603.191 364.012L603.11 364.903L602.543 366.118L602.382 366.199L601.896 366.28L601.734 366.361L601.411 367.333V367.738L601.33 368.304L601.006 368.709L600.359 368.385L599.146 366.361L598.337 365.713L596.719 367.171L596.233 366.928V366.928ZM616.62 344.334L615.083 343.524L614.031 343.362L606.427 344.577L605.456 344.982L603.838 345.873L602.705 346.034L600.035 345.549L598.984 345.63L596.314 346.358V346.277L595.748 345.225L595.91 344.658L596.071 344.253L596.719 341.904L596.961 341.5L597.123 341.176L597.366 340.852L597.608 340.366L597.528 340.285H597.366L583.289 343.767L572.61 343.524L571.316 343.281L571.073 343.119L570.831 342.633L570.669 342.147L570.426 340.447L570.588 339.475L570.75 338.584L576.332 325.789L576.17 325.06H575.765L574.876 325.303L574.147 325.465L573.905 325.222L573.743 324.898L574.067 322.55L574.147 321.092L574.228 320.768L574.471 320.606L574.714 320.444L575.361 320.363L577.95 319.877L578.516 319.23L578.678 316.719L582.318 318.663L587.82 321.578L587.981 321.254L588.548 320.687H589.276L589.599 320.282L589.923 319.715L590.327 319.473L590.894 319.553L592.754 320.444L593.968 320.687L595.02 320.039L595.262 319.23L594.372 318.744L595.505 316.881L595.586 316.476L595.181 315.747L594.939 315.019L594.696 314.209L594.777 313.399L593.563 313.156L593.159 312.913L592.754 312.427L592.431 311.212L592.188 308.621L591.945 306.03L592.026 305.544L592.107 305.058L592.431 304.734L592.674 304.491L592.997 303.843L593.078 303.195L592.916 301.819L592.997 301.171L593.159 301.252L593.644 301.414L593.806 301.576L594.372 300.118L595.667 299.227L596.638 298.741L599.065 300.928L599.388 301.495L599.55 302.142L599.631 303.6L599.793 304.086L600.035 304.248L600.44 303.924H600.602L600.764 304.329L600.925 305.382L601.653 305.058L602.705 305.301L603.757 305.706L604.485 306.273L604.889 306.839L605.375 307.892L605.779 308.297L606.103 308.54L607.316 309.188L607.883 309.593L608.125 309.917L608.611 310.969V311.212L608.53 311.941L608.611 312.265L608.934 312.508L609.258 312.589L609.582 312.508L609.905 312.589L610.552 313.237L611.038 313.966L611.2 314.776L610.552 315.585L611.281 316.071L611.928 315.828L612.575 315.423L613.303 315.18L613.788 315.423L613.546 316.071L612.818 317.286L614.84 316.962L615.649 317.043L616.215 318.582L617.105 319.311L617.348 319.877L617.105 320.363L616.377 321.092V321.578L616.701 321.821L617.186 321.497L617.672 320.93L618.157 320.687L618.562 320.93L618.885 321.335V321.74L617.672 322.307L617.267 323.198L616.701 325.384L617.267 325.303L617.753 325.384L618.238 325.546L618.642 325.87L617.753 326.356L617.833 326.842L618.319 327.328L618.642 327.733L618.723 328.219L618.885 328.785L618.966 329.352L618.804 329.838L618.076 330.729L617.833 331.215L617.591 331.782L617.429 332.268L616.458 337.936L617.105 339.637L617.429 340.123L617.51 341.014L616.863 343.443L616.62 344.334V344.334Z" stroke="#B06AB3" stroke-linecap="round" stroke-linejoin="round"/>
<path d="M682.311 270.398L681.744 271.936L681.34 272.665L678.994 275.742L678.913 276.147L678.832 276.552L678.913 277.281L678.994 278.253L679.155 278.577L679.317 278.82L680.612 278.982L680.773 279.548L680.531 280.358L680.369 280.763L679.479 282.707L679.398 283.031V283.517L679.56 283.921L679.803 284.407L680.773 285.703L681.744 287.323L681.906 288.699L682.068 293.315L681.663 294.773L681.097 294.125L678.994 293.234L677.214 293.72L675.919 300.28L673.331 303.357L669.933 305.463L665.079 307.406L660.629 310.807L651.973 313.561L650.921 314.047L649.951 314.856L648.009 317.367L646.876 318.339L645.663 318.744L644.207 318.258L643.559 317.691L643.074 317.043L642.265 315.585L641.699 314.937L640.566 314.128L640 313.642L638.139 310.807L637.087 309.755L635.55 309.593L634.822 309.188L634.256 308.54L633.609 308.054L632.8 307.973L631.263 308.459L630.535 308.864L629.806 309.431L628.674 310.969L627.946 312.589L627.622 314.451L627.541 316.719L627.865 320.039L627.703 320.849L626.975 321.254L624.144 321.497L622.445 322.712V324.007L624.305 327.166H624.386L625.357 330.648L625.842 331.782L627.056 333.968L627.541 335.183L627.865 336.559L627.46 339.556L626.004 339.799L624.144 339.151L622.93 339.313L623.173 341.094L626.57 344.172V345.629L624.791 346.439L622.445 346.358L618.238 345.144L616.62 344.334L616.863 343.443L617.51 341.013L617.429 340.123L617.105 339.637L616.458 337.936L617.429 332.267L617.591 331.782L617.833 331.215L618.076 330.729L618.804 329.838L618.966 329.352L618.885 328.785L618.723 328.218L618.642 327.732L618.319 327.328L617.833 326.842L617.752 326.356L618.642 325.87L618.238 325.546L617.752 325.384L617.267 325.303L616.701 325.384L617.267 323.198L617.672 322.307L618.885 321.74V321.335L618.561 320.93L618.157 320.687L617.672 320.93L617.186 321.497L616.701 321.821L616.377 321.578V321.092L617.105 320.363L617.348 319.877L617.105 319.31L616.215 318.582L615.649 317.043L614.84 316.962L612.818 317.286L613.546 316.071L613.788 315.423L613.303 315.18L612.575 315.423L611.928 315.828L611.28 316.071L610.552 315.585L611.2 314.775L611.038 313.966L610.552 313.237L609.905 312.589L609.582 312.508L609.258 312.589L608.934 312.508L608.611 312.265L608.53 311.941L608.611 311.212V310.969L608.125 309.917L607.883 309.593L607.316 309.188L606.103 308.54L605.779 308.297L605.375 307.892L604.889 306.839L604.485 306.272L603.757 305.705L602.705 305.301L601.653 305.058L600.925 305.382L600.763 304.329L600.602 303.924H600.44L600.035 304.248L599.793 304.086L599.631 303.6L599.55 302.142L599.388 301.494L599.065 300.928L596.638 298.741L598.498 297.931L599.469 296.798L600.359 294.287L601.249 291.777L601.815 291.048L602.543 290.319L604.161 289.59L605.698 288.861L606.912 286.837L607.235 286.432L607.478 286.027L608.449 285.703L610.471 285.46L611.361 285.055L612.17 284.65L612.979 284.083L613.788 283.517L614.597 282.707L615.002 281.978L615.325 278.982L615.73 276.066L615.649 275.013L615.568 274.285L615.406 274.042L615.164 273.88L614.759 273.313L614.597 272.827L614.84 272.341L615.245 272.017L617.429 270.964L618.319 270.721L619.128 271.045L619.613 269.75L620.827 268.616L622.04 267.806L623.335 266.996L624.144 266.753L625.519 267.32L626.166 267.239L628.027 266.025L628.674 265.863L630.13 266.105L631.505 266.348L632.072 266.025L631.991 265.377L631.182 263.919L631.02 263.271L631.344 262.461L631.667 261.652L632.881 260.68L635.55 259.87L637.977 257.926L640.323 256.064L641.052 255.254L641.699 254.525L642.508 253.877L645.663 252.986L648.818 252.096L651.488 252.015L654.076 251.853L656.018 251.043L657.474 249.342L658.121 248.371L658.85 247.804L660.144 247.318L661.438 246.832L665.402 243.917L665.969 243.188L666.535 242.54L668.153 239.705L669.771 236.952L670.418 236.223L671.227 235.818L672.117 235.494L672.845 235.09L673.492 234.442L673.654 233.875L673.816 233.308L674.949 230.717L676 229.826L676.971 228.935L681.582 226.991L682.23 227.072L683.12 227.72L683.848 228.53L684.252 229.421L684.576 230.555L685.304 231.283L686.275 231.688L687.407 231.85L688.135 231.526L688.863 231.202L689.834 229.34L690.32 228.125L690.724 226.991L691.776 224.886L692.504 224.157L693.151 223.347L693.637 222.456L694.041 221.323L694.688 220.351H695.821L698.005 220.918L699.785 220.675L700.675 220.27L701.565 219.784L704.72 217.193L705.772 216.221L707.794 214.601L709.331 214.439L710.787 215.087L717.421 219.784L719.039 220.351L718.392 222.78L716.612 223.995L712.729 225.129L706.095 230.069L704.154 230.555L701.807 230.474L699.947 230.959L699.057 233.308L698.976 236.952L698.41 238.005L696.792 238.653L692.099 239.139L690.643 240.029L686.032 243.997L684.009 246.427L682.634 249.423L681.502 251.124L680.045 252.015L678.508 252.825L675.758 255.011L668.153 259.546L667.101 261.166L667.991 263.19L669.69 264.081L676.324 264.81L676.405 264.891L678.104 265.944L678.913 266.672L679.641 267.563L680.773 269.75L681.502 270.398H682.311V270.398ZM630.211 277.119L629.726 276.552L630.13 275.985L629.645 275.256L628.997 274.851L629.726 273.637L629.483 272.584L627.784 271.45L626.328 271.288L625.195 270.478L623.658 270.559L621.15 273.07L620.746 275.013L619.532 278.091L619.694 278.172L620.503 277.767L620.584 278.496L620.908 279.224L622.04 280.52L622.849 279.791V280.034L622.606 280.601L623.173 281.654L624.548 282.059L626.085 280.196L628.431 278.01L630.211 277.119V277.119Z" stroke="#4568DC" stroke-linecap="round" stroke-linejoin="round"/>
<path d="M630.211 277.119L628.431 278.01L626.085 280.196L624.548 282.059L623.173 281.654L622.607 280.601L622.849 280.034V279.791L622.04 280.52L620.908 279.224L620.584 278.495L620.503 277.767L619.694 278.171L619.532 278.091L620.746 275.013L621.15 273.07L623.658 270.559L625.195 270.478L626.328 271.288L627.784 271.45L629.483 272.584L629.726 273.637L628.998 274.851L629.645 275.256L630.13 275.985L629.726 276.552L630.211 277.119Z" fill="#4568DC" stroke="#4568DC" stroke-linecap="round" stroke-linejoin="round"/>
</g>
<defs>
<clipPath id="clip0_7_185">
<rect width="809" height="528" fill="white"/>
</clipPath>
</defs>
</svg>
