<svg width="97" height="97" viewBox="0 0 97 97" fill="none" xmlns="http://www.w3.org/2000/svg">
<path fill-rule="evenodd" clip-rule="evenodd" d="M57.8519 17.7175C57.8519 15.914 56.3848 14.4468 54.5812 14.4468H42.4165C40.6131 14.4468 39.1458 15.9139 39.1458 17.7175V24.645H57.8521L57.8519 17.7175ZM56.4136 67.976V68.3697C56.4136 70.8753 58.376 72.8377 60.8816 72.8377C62.1274 72.8377 63.2798 72.3577 64.1266 71.4868C64.9501 70.6393 65.3847 69.5139 65.3502 68.3178C65.3496 68.3022 65.3496 68.2872 65.3496 68.2717V68.271V67.9755C65.3496 65.4699 63.3872 63.5074 60.8816 63.5074C58.3759 63.508 56.4135 65.4705 56.4135 67.9761L56.4136 67.976ZM68.9791 82.9683H28.0209C25.3157 82.9683 23.1149 80.7677 23.1149 78.0623V27.7509C23.1149 25.0456 25.3155 22.8448 28.0209 22.8448H35.8765V26.2808C35.8765 27.1838 36.6089 27.9162 37.5119 27.9162H59.4881C60.3912 27.9162 61.1236 27.1837 61.1236 26.2808V22.8448H68.9791C71.6843 22.8448 73.8851 25.0455 73.8851 27.7509V78.0623C73.8851 80.7676 71.6845 82.9683 68.9791 82.9683ZM68.6203 68.2495V67.9761V67.976C68.6203 65.9131 67.8277 63.9752 66.388 62.5192C64.9325 61.0479 62.9771 60.2372 60.8815 60.2372C58.818 60.2372 56.8801 61.0298 55.4247 62.4695C53.9534 63.9244 53.1427 65.8804 53.1427 67.976V68.3697C53.1427 70.4332 53.9353 72.371 55.375 73.8265C56.8304 75.2978 58.7858 76.1084 60.8815 76.1084C63.0192 76.1084 65.0044 75.2768 66.4721 73.7664C67.9106 72.2859 68.6734 70.3275 68.6203 68.2495ZM63.7161 35.6338H33.286C32.3824 35.6338 31.6506 36.3662 31.6506 37.2692C31.6506 38.1722 32.3831 38.9046 33.286 38.9046H63.7161C64.6191 38.9046 65.3515 38.1722 65.3515 37.2692C65.3515 36.3662 64.619 35.6338 63.7161 35.6338ZM63.7161 47.4124H33.286C32.3824 47.4124 31.6506 48.1443 31.6506 49.0478C31.6506 49.9509 32.3831 50.6833 33.286 50.6833H63.7161C64.6191 50.6833 65.3515 49.9508 65.3515 49.0478C65.3515 48.1448 64.619 47.4124 63.7161 47.4124ZM45.0647 59.191H33.286C32.3824 59.191 31.6506 59.9229 31.6506 60.8264C31.6506 61.7295 32.3831 62.4619 33.286 62.4619H45.0647C45.9677 62.4619 46.7001 61.7294 46.7001 60.8264C46.7001 59.9234 45.9676 59.191 45.0647 59.191Z" fill="url(#paint0_linear_10_267)"/>
<defs>
<linearGradient id="paint0_linear_10_267" x1="22.8774" y1="53.208" x2="65.0492" y2="79.5423" gradientUnits="userSpaceOnUse">
<stop stop-color="#4568DC"/>
<stop offset="1" stop-color="#B06AB3"/>
</linearGradient>
</defs>
</svg>
