<svg width="97" height="97" viewBox="0 0 97 97" fill="none" xmlns="http://www.w3.org/2000/svg">
<path fill-rule="evenodd" clip-rule="evenodd" d="M69.3923 80.1547C69.3923 83.0708 67.0259 85.4347 64.1 85.4347H32.8992C29.9771 85.4347 27.6077 83.0695 27.6077 80.1547V16.4724C27.6077 13.5563 29.9733 11.1924 32.8992 11.1924H64.1C67.0229 11.1924 69.3923 13.5576 69.3923 16.4724V80.1547ZM52.0613 17.6792C52.9365 17.6792 53.6449 18.3809 53.6449 19.2605C53.6449 20.1342 52.935 20.8418 52.0613 20.8418H44.6507C43.7756 20.8418 43.0665 20.1401 43.0665 19.2605C43.0665 18.3868 43.7771 17.6792 44.6507 17.6792H52.0613ZM45.4815 78.3397C45.4815 80.0872 46.902 81.503 48.6553 81.503C50.4077 81.503 51.8282 80.0872 51.8282 78.3397C51.8282 76.5929 50.4078 75.1771 48.6553 75.1771C46.902 75.1771 45.4815 76.5929 45.4815 78.3397Z" fill="url(#paint0_linear_10_351)"/>
<defs>
<linearGradient id="paint0_linear_10_351" x1="27.4122" y1="53.1897" x2="66.7937" y2="71.8696" gradientUnits="userSpaceOnUse">
<stop stop-color="#4568DC"/>
<stop offset="1" stop-color="#B06AB3"/>
</linearGradient>
</defs>
</svg>
