<svg width="97" height="97" viewBox="0 0 97 97" fill="none" xmlns="http://www.w3.org/2000/svg">
<path fill-rule="evenodd" clip-rule="evenodd" d="M31.8654 39.2831C29.1831 39.7562 27.4474 37.8633 26.6582 33.4451L26.6578 33.4448C25.5527 28.0802 26.9725 26.1871 30.1292 26.8167C26.1844 1.8852 62.1611 5.67278 60.4253 12.4573C59.7289 15.2431 60.8615 15.5395 62.335 15.925C64.5338 16.5003 67.4918 17.2743 66.2634 26.8167C70.2082 26.5008 70.0497 29.815 69.1031 34.3904C68.3141 37.862 66.5782 39.2819 64.2118 39.1245C62.9506 45.1211 58.8471 51.5908 50.0111 54.2731C49.3793 54.589 48.5901 54.589 47.9594 54.589H47.3287C40.0708 53.4839 33.1278 47.6461 31.8654 39.2831ZM42.1222 78.1005C42.1222 77.6272 42.1222 77.3113 42.2796 76.838L45.5936 70.684C45.7521 70.2096 45.7521 69.8948 45.4362 69.5789C39.124 63.425 41.8062 58.2178 48.2759 57.7445C54.7446 58.3751 57.4268 63.425 51.1156 69.5789C50.8008 69.8948 50.8008 70.3681 50.9582 70.684L54.4297 77.3113C54.7444 77.6272 54.7444 78.1005 54.5871 78.5738L53.7979 80.7828L53.6405 80.9402C52.9139 82.959 52.2697 84.3581 51.687 85.6236C51.1311 86.8309 50.6312 87.9167 50.169 89.3032V89.6191H46.6976V89.3032C46.2734 88.0306 45.7858 87.0112 45.2631 85.9187C44.6196 84.5734 43.9229 83.1171 43.2262 80.9402C43.1475 80.9402 43.1081 80.9402 43.0885 80.9205C43.0688 80.9008 43.0688 80.8615 43.0688 80.7828L42.1222 78.1005ZM10.5633 84.7276C11.3525 87.5673 12.615 89.3031 14.3506 89.7776H14.508H42.7529C43.0688 89.7776 43.2262 89.4617 43.0688 89.3043C42.6593 88.076 42.1908 87.0246 41.676 85.8694L41.676 85.8693C41.0006 84.3537 40.2456 82.6593 39.4398 80.1523L39.2824 79.9949L32.9713 61.2174C32.8139 60.7441 32.498 60.5867 32.0247 60.7441C25.3974 62.7957 19.5597 65.1623 15.299 68.0031C11.1947 70.6843 9.77486 78.574 10.5638 84.7277L10.5633 84.7276ZM64.5286 60.7427C71.1556 62.7945 77.152 65.162 81.2543 68.0017L81.2548 68.0018C85.3582 70.684 86.9354 78.5736 85.99 84.7275V84.8849C85.201 87.5671 83.9384 89.3029 82.2027 89.7762H82.0453H53.8004C53.6419 89.7762 53.3271 89.6188 53.4845 89.3029C53.8941 88.0737 54.3628 87.022 54.8779 85.8664C55.5531 84.3512 56.308 82.6574 57.1135 80.1509C57.2709 80.1509 57.2709 80.1509 57.2709 79.9935L63.582 61.216C63.7394 60.9001 64.2127 60.5853 64.5286 60.7427Z" fill="url(#paint0_linear_10_191)"/>
<defs>
<linearGradient id="paint0_linear_10_191" x1="10" y1="49" x2="69.8487" y2="89.7762" gradientUnits="userSpaceOnUse">
<stop stop-color="#4568DC"/>
<stop offset="1" stop-color="#B06AB3"/>
</linearGradient>
</defs>
</svg>
