<svg width="97" height="97" viewBox="0 0 97 97" fill="none" xmlns="http://www.w3.org/2000/svg">
<path d="M85.5615 83.3843H80.2322V14.1032C80.2322 11.1721 77.834 8.77393 74.9029 8.77393H48.2563C45.3252 8.77393 42.927 11.1721 42.927 14.1032V30.0912H21.6097C18.6786 30.0912 16.2804 32.4894 16.2804 35.4205V83.3843H10.9511C9.48553 83.3843 8.28644 84.5834 8.28644 86.049C8.28644 87.5145 9.48553 88.7136 10.9511 88.7136H85.5615C87.027 88.7136 88.2261 87.5145 88.2261 86.049C88.2261 84.5834 87.027 83.3843 85.5615 83.3843ZM58.9149 38.0851V46.0791H50.9209V38.0851H58.9149ZM50.9209 30.0912V22.0972H58.9149V30.0912H50.9209ZM58.9149 54.0731V62.0671H50.9209V54.0731H58.9149ZM72.2382 54.0731V62.0671H64.2442V54.0731H72.2382ZM64.2442 46.0791V38.0851H72.2382V46.0791H64.2442ZM72.2382 30.0912H64.2442V22.0972H72.2382V30.0912Z" fill="url(#paint0_linear_10_196)"/>
<defs>
<linearGradient id="paint0_linear_10_196" x1="7.91244" y1="49.1445" x2="67.578" y2="93.2668" gradientUnits="userSpaceOnUse">
<stop stop-color="#4568DC"/>
<stop offset="1" stop-color="#B06AB3"/>
</linearGradient>
</defs>
</svg>
