<svg width="72" height="72" viewBox="0 0 72 72" fill="none" xmlns="http://www.w3.org/2000/svg">
<path fill-rule="evenodd" clip-rule="evenodd" d="M27.4139 8.69922C23.3208 8.69802 19.3382 10.0264 16.0648 12.484C12.7916 14.9413 10.4049 18.3955 9.2636 22.3263C8.12225 26.2571 8.28818 30.4523 9.73655 34.2808C11.1849 38.1093 13.8372 41.3639 17.2946 43.5548C20.7516 45.7461 24.8272 46.7555 28.9071 46.4313C32.9833 46.107 36.8441 44.4694 39.9099 41.7647L43.8899 45.7447C43.6749 46.1084 43.5068 46.5038 43.394 46.9229C42.9537 48.5563 43.4187 50.3005 44.6134 51.4984V51.498L48.1091 54.9998L49.7944 53.3145L46.2987 49.8188C45.8226 49.387 45.5438 48.7788 45.5275 48.136C45.5151 47.6368 45.6614 47.1506 45.9401 46.7449C46.2127 46.6277 46.4373 46.4104 46.5608 46.1287C46.9613 45.8576 47.4392 45.7143 47.9301 45.7249C48.5729 45.7389 49.1819 46.0153 49.6157 46.4902L60.2451 57.0961C60.6961 57.713 60.8242 58.509 60.5885 59.236C60.3532 59.9634 59.7833 60.5332 59.0559 60.7685C58.329 61.0042 57.533 60.8762 56.9161 60.4252L52.3424 55.8456L50.6572 57.5309L55.2367 62.0985C56.122 62.9898 57.3271 63.4894 58.5833 63.4858L58.5839 63.4855C59.8369 63.4819 61.0372 62.9818 61.9221 62.0949C62.807 61.2077 63.3043 60.0061 63.3047 58.7532C63.3051 57.5003 62.809 56.2983 61.9249 55.4106V55.4102L51.319 44.8105C50.1242 43.613 48.3812 43.1432 46.7466 43.5791C46.3295 43.6902 45.9356 43.856 45.573 44.0684L41.5904 40.0859L41.5985 40.0767C44.8279 36.4223 46.5175 31.6601 46.3134 26.7879C46.1096 21.9153 44.0279 17.3109 40.5048 13.9392C36.9815 10.5671 32.2903 8.68962 27.4141 8.69963L27.4139 8.69922ZM39.3864 38.951C42.2939 35.8879 43.9224 31.8227 43.9271 27.5886C43.9271 23.2091 42.1872 19.0088 39.0907 15.9118C35.994 12.8149 31.7936 11.075 27.4139 11.075C23.0343 11.075 18.834 12.8149 15.7371 15.9118C12.6401 19.0089 10.9003 23.2093 10.9003 27.5886C10.9003 31.9682 12.6401 36.1685 15.7371 39.2654C18.8341 42.3619 23.0345 44.1018 27.4139 44.1018V44.1022L27.4134 44.1023C31.6477 44.0977 35.7129 42.4691 38.7759 39.5615C38.8347 39.4277 38.9182 39.3045 39.0237 39.1988C39.1294 39.0934 39.2526 39.0098 39.3864 38.951ZM26.9851 17.084C25.1591 17.0832 23.4428 17.9557 22.3673 19.4312C21.2922 20.9071 20.9871 22.808 21.547 24.546C22.1068 26.2836 23.4636 27.6494 25.1981 28.2197C21.3932 28.9345 18.535 31.8882 18.535 35.4252V40.1894H35.4233V35.4252C35.4233 31.8883 32.5653 28.9466 28.7721 28.2198C30.5066 27.6495 31.8635 26.2837 32.4234 24.546C32.9833 22.8081 32.6782 20.9071 31.6031 19.4312C30.5276 17.9557 28.8112 17.0832 26.9853 17.084H26.9851ZM26.9851 26.1179C26.1014 26.1195 25.2536 25.7698 24.6279 25.1457C24.0026 24.5216 23.6509 23.6746 23.6501 22.791C23.6497 21.9073 24.0006 21.0599 24.6251 20.435C25.25 19.8101 26.0974 19.4596 26.9811 19.46C27.8648 19.4608 28.7118 19.8125 29.3359 20.4378C29.9599 21.0634 30.3097 21.9113 30.3081 22.795C30.3081 23.6763 29.9579 24.5213 29.3347 25.1446C28.7114 25.7679 27.8663 26.118 26.985 26.118L26.9851 26.1179ZM20.9283 37.8314L33.0533 37.831L33.0408 35.4495C33.0408 32.6983 30.3256 30.4591 26.9846 30.4591C23.6441 30.4591 20.9283 32.6983 20.9283 35.4495V37.8314Z" fill="url(#paint0_linear_7_313)"/>
<defs>
<linearGradient id="paint0_linear_7_313" x1="15.73" y1="32.1136" x2="37.1077" y2="43.1794" gradientUnits="userSpaceOnUse">
<stop stop-color="#4568DC"/>
<stop offset="1" stop-color="#B06AB3"/>
</linearGradient>
</defs>
</svg>
